<?xml version="1.0" encoding="UTF-8" standalone="no"?><svg xmlns="http://www.w3.org/2000/svg" xmlns:xlink="http://www.w3.org/1999/xlink" contentScriptType="application/ecmascript" contentStyleType="text/css" height="660px" preserveAspectRatio="none" style="width:542px;height:660px;background:#FFFFFF;" version="1.1" viewBox="0 0 542 660" width="542px" zoomAndPan="magnify"><defs><filter height="300%" id="fb5034s71nxm0" width="300%" x="-1" y="-1"><feGaussianBlur result="blurOut" stdDeviation="2.0"/><feColorMatrix in="blurOut" result="blurOut2" type="matrix" values="0 0 0 0 0 0 0 0 0 0 0 0 0 0 0 0 0 0 .4 0"/><feOffset dx="4.0" dy="4.0" in="blurOut2" result="blurOut3"/><feBlend in="SourceGraphic" in2="blurOut3" mode="normal"/></filter></defs><g><rect fill="#FFFFFF" filter="url(#fb5034s71nxm0)" height="323.9375" style="stroke:#000000;stroke-width:2.0;" width="518" x="10" y="234.8281"/><rect fill="#FFFFFF" filter="url(#fb5034s71nxm0)" height="148.4688" style="stroke:#000000;stroke-width:2.0;" width="498" x="20" y="301.0938"/><rect fill="#FFFFFF" height="102.2031" style="stroke:none;stroke-width:1.0;" width="498" x="20" y="347.3594"/><rect fill="#FFFFFF" height="102.2031" style="stroke:none;stroke-width:1.0;" width="518" x="10" y="456.5625"/><line style="stroke:#A80036;stroke-width:1.0;stroke-dasharray:5.0,5.0;" x1="57" x2="57" y1="88.2969" y2="575.7656"/><line style="stroke:#A80036;stroke-width:1.0;stroke-dasharray:5.0,5.0;" x1="244" x2="244" y1="88.2969" y2="575.7656"/><line style="stroke:#A80036;stroke-width:1.0;stroke-dasharray:5.0,5.0;" x1="432" x2="432" y1="88.2969" y2="575.7656"/><text fill="#000000" font-family="sans-serif" font-size="14" lengthAdjust="spacing" textLength="48" x="30" y="84.9951">Nutzer</text><ellipse cx="57" cy="15" fill="#FEFECE" filter="url(#fb5034s71nxm0)" rx="8" ry="8" style="stroke:#A80036;stroke-width:2.0;"/><path d="M57,23 L57,50 M44,31 L70,31 M57,50 L44,65 M57,50 L70,65 " fill="none" filter="url(#fb5034s71nxm0)" style="stroke:#A80036;stroke-width:2.0;"/><text fill="#000000" font-family="sans-serif" font-size="14" lengthAdjust="spacing" textLength="48" x="30" y="587.7607">Nutzer</text><ellipse cx="57" cy="601.0625" fill="#FEFECE" filter="url(#fb5034s71nxm0)" rx="8" ry="8" style="stroke:#A80036;stroke-width:2.0;"/><path d="M57,609.0625 L57,636.0625 M44,617.0625 L70,617.0625 M57,636.0625 L44,651.0625 M57,636.0625 L70,651.0625 " fill="none" filter="url(#fb5034s71nxm0)" style="stroke:#A80036;stroke-width:2.0;"/><text fill="#000000" font-family="sans-serif" font-size="14" lengthAdjust="spacing" textLength="68" x="207" y="84.9951">Webshop</text><ellipse cx="244" cy="56" fill="#FEFECE" filter="url(#fb5034s71nxm0)" rx="12" ry="12" style="stroke:#A80036;stroke-width:2.0;"/><polygon fill="#A80036" points="240,44,246,39,244,44,246,49,240,44" style="stroke:#A80036;stroke-width:1.0;"/><text fill="#000000" font-family="sans-serif" font-size="14" lengthAdjust="spacing" textLength="68" x="207" y="587.7607">Webshop</text><ellipse cx="244" cy="607.0625" fill="#FEFECE" filter="url(#fb5034s71nxm0)" rx="12" ry="12" style="stroke:#A80036;stroke-width:2.0;"/><polygon fill="#A80036" points="240,595.0625,246,590.0625,244,595.0625,246,600.0625,240,595.0625" style="stroke:#A80036;stroke-width:1.0;"/><text fill="#000000" font-family="sans-serif" font-size="14" lengthAdjust="spacing" textLength="146" x="356" y="84.9951">Webshopdatenbank</text><path d="M414,36 C414,26 432,26 432,26 C432,26 450,26 450,36 L450,62 C450,72 432,72 432,72 C432,72 414,72 414,62 L414,36 " fill="#FEFECE" filter="url(#fb5034s71nxm0)" style="stroke:#000000;stroke-width:1.5;"/><path d="M414,36 C414,46 432,46 432,46 C432,46 450,46 450,36 " fill="none" style="stroke:#000000;stroke-width:1.5;"/><text fill="#000000" font-family="sans-serif" font-size="14" lengthAdjust="spacing" textLength="146" x="356" y="587.7607">Webshopdatenbank</text><path d="M414,601.0625 C414,591.0625 432,591.0625 432,591.0625 C432,591.0625 450,591.0625 450,601.0625 L450,627.0625 C450,637.0625 432,637.0625 432,637.0625 C432,637.0625 414,637.0625 414,627.0625 L414,601.0625 " fill="#FEFECE" filter="url(#fb5034s71nxm0)" style="stroke:#000000;stroke-width:1.5;"/><path d="M414,601.0625 C414,611.0625 432,611.0625 432,611.0625 C432,611.0625 450,611.0625 450,601.0625 " fill="none" style="stroke:#000000;stroke-width:1.5;"/><polygon fill="#A80036" points="232,115.4297,242,119.4297,232,123.4297,236,119.4297" style="stroke:#A80036;stroke-width:1.0;"/><line style="stroke:#A80036;stroke-width:1.0;" x1="57" x2="238" y1="119.4297" y2="119.4297"/><text fill="#000000" font-family="sans-serif" font-size="13" font-weight="bold" lengthAdjust="spacing" textLength="9" x="64" y="114.3638">1</text><text fill="#000000" font-family="sans-serif" font-size="13" lengthAdjust="spacing" textLength="150" x="77" y="114.3638">Zahlungsdaten löschen</text><polygon fill="#A80036" points="420,144.5625,430,148.5625,420,152.5625,424,148.5625" style="stroke:#A80036;stroke-width:1.0;"/><line style="stroke:#A80036;stroke-width:1.0;" x1="244" x2="426" y1="148.5625" y2="148.5625"/><text fill="#000000" font-family="sans-serif" font-size="13" font-weight="bold" lengthAdjust="spacing" textLength="9" x="251" y="143.4966">2</text><text fill="#000000" font-family="sans-serif" font-size="13" lengthAdjust="spacing" textLength="151" x="264" y="143.4966">Zahlungsdaten abrufen</text><polygon fill="#A80036" points="255,156.5625,245,160.5625,255,164.5625,251,160.5625" style="stroke:#A80036;stroke-width:1.0;"/><line style="stroke:#A80036;stroke-width:1.0;stroke-dasharray:2.0,2.0;" x1="249" x2="431" y1="160.5625" y2="160.5625"/><text fill="#000000" font-family="sans-serif" font-size="13" font-weight="bold" lengthAdjust="spacing" textLength="8" x="261" y="173.6294">3</text><text fill="#000000" font-family="sans-serif" font-size="13" lengthAdjust="spacing" textLength="97" x="273" y="173.6294">Zahlungsdaten</text><line style="stroke:#A80036;stroke-width:1.0;" x1="244" x2="286" y1="206.8281" y2="206.8281"/><line style="stroke:#A80036;stroke-width:1.0;" x1="286" x2="286" y1="206.8281" y2="219.8281"/><line style="stroke:#A80036;stroke-width:1.0;" x1="245" x2="286" y1="219.8281" y2="219.8281"/><polygon fill="#A80036" points="255,215.8281,245,219.8281,255,223.8281,251,219.8281" style="stroke:#A80036;stroke-width:1.0;"/><text fill="#000000" font-family="sans-serif" font-size="13" font-weight="bold" lengthAdjust="spacing" textLength="9" x="251" y="201.7622">4</text><text fill="#000000" font-family="sans-serif" font-size="13" lengthAdjust="spacing" textLength="143" x="264" y="201.7622">Zahlungsdaten prüfen</text><path d="M10,234.8281 L76,234.8281 L76,241.8281 L66,251.8281 L10,251.8281 L10,234.8281 " fill="#EEEEEE" style="stroke:#000000;stroke-width:1.0;"/><rect fill="none" height="323.9375" style="stroke:#000000;stroke-width:2.0;" width="518" x="10" y="234.8281"/><text fill="#000000" font-family="sans-serif" font-size="13" font-weight="bold" lengthAdjust="spacing" textLength="21" x="25" y="247.895">alt</text><text fill="#000000" font-family="sans-serif" font-size="11" font-weight="bold" lengthAdjust="spacing" textLength="285" x="91" y="247.0386">[keine weiteren Zahlungsdaten vorhanden]</text><line style="stroke:#A80036;stroke-width:1.0;" x1="244" x2="286" y1="273.0938" y2="273.0938"/><line style="stroke:#A80036;stroke-width:1.0;" x1="286" x2="286" y1="273.0938" y2="286.0938"/><line style="stroke:#A80036;stroke-width:1.0;" x1="245" x2="286" y1="286.0938" y2="286.0938"/><polygon fill="#A80036" points="255,282.0938,245,286.0938,255,290.0938,251,286.0938" style="stroke:#A80036;stroke-width:1.0;"/><text fill="#000000" font-family="sans-serif" font-size="13" lengthAdjust="spacing" textLength="111" x="251" y="268.0278">Aboboxen prüfen</text><path d="M20,301.0938 L86,301.0938 L86,308.0938 L76,318.0938 L20,318.0938 L20,301.0938 " fill="#EEEEEE" style="stroke:#000000;stroke-width:1.0;"/><rect fill="none" height="148.4688" style="stroke:#000000;stroke-width:2.0;" width="498" x="20" y="301.0938"/><text fill="#000000" font-family="sans-serif" font-size="13" font-weight="bold" lengthAdjust="spacing" textLength="21" x="35" y="314.1606">alt</text><text fill="#000000" font-family="sans-serif" font-size="11" font-weight="bold" lengthAdjust="spacing" textLength="134" x="101" y="313.3042">[Abobox vorhanden]</text><polygon fill="#A80036" points="68,318.2266,58,322.2266,68,326.2266,64,322.2266" style="stroke:#A80036;stroke-width:1.0;"/><line style="stroke:#A80036;stroke-width:1.0;stroke-dasharray:2.0,2.0;" x1="62" x2="243" y1="322.2266" y2="322.2266"/><text fill="#000000" font-family="sans-serif" font-size="13" lengthAdjust="spacing" textLength="31" x="74" y="335.2935">Error</text><line style="stroke:#000000;stroke-width:1.0;stroke-dasharray:2.0,2.0;" x1="20" x2="518" y1="348.3594" y2="348.3594"/><text fill="#000000" font-family="sans-serif" font-size="11" font-weight="bold" lengthAdjust="spacing" textLength="173" x="25" y="358.5698">[keine Abobox vorhanden]</text><polygon fill="#A80036" points="420,379.2969,430,383.2969,420,387.2969,424,383.2969" style="stroke:#A80036;stroke-width:1.0;"/><line style="stroke:#A80036;stroke-width:1.0;" x1="244" x2="426" y1="383.2969" y2="383.2969"/><text fill="#000000" font-family="sans-serif" font-size="13" lengthAdjust="spacing" textLength="92" x="251" y="378.231">Daten löschen</text><polygon fill="#A80036" points="255,391.2969,245,395.2969,255,399.2969,251,395.2969" style="stroke:#A80036;stroke-width:1.0;"/><line style="stroke:#A80036;stroke-width:1.0;stroke-dasharray:2.0,2.0;" x1="249" x2="431" y1="395.2969" y2="395.2969"/><text fill="#000000" font-family="sans-serif" font-size="13" lengthAdjust="spacing" textLength="45" x="261" y="408.3638">Succes</text><polygon fill="#A80036" points="68,420.4297,58,424.4297,68,428.4297,64,424.4297" style="stroke:#A80036;stroke-width:1.0;"/><line style="stroke:#A80036;stroke-width:1.0;stroke-dasharray:2.0,2.0;" x1="62" x2="243" y1="424.4297" y2="424.4297"/><text fill="#000000" font-family="sans-serif" font-size="13" lengthAdjust="spacing" textLength="76" x="74" y="437.4966">Bestätigung</text><line style="stroke:#000000;stroke-width:1.0;stroke-dasharray:2.0,2.0;" x1="10" x2="528" y1="457.5625" y2="457.5625"/><text fill="#000000" font-family="sans-serif" font-size="11" font-weight="bold" lengthAdjust="spacing" textLength="238" x="15" y="467.7729">[weitere Zahlungsdaten vorhanden]</text><polygon fill="#A80036" points="420,488.5,430,492.5,420,496.5,424,492.5" style="stroke:#A80036;stroke-width:1.0;"/><line style="stroke:#A80036;stroke-width:1.0;" x1="244" x2="426" y1="492.5" y2="492.5"/><text fill="#000000" font-family="sans-serif" font-size="13" lengthAdjust="spacing" textLength="92" x="251" y="487.4341">Daten löschen</text><polygon fill="#A80036" points="255,500.5,245,504.5,255,508.5,251,504.5" style="stroke:#A80036;stroke-width:1.0;"/><line style="stroke:#A80036;stroke-width:1.0;stroke-dasharray:2.0,2.0;" x1="249" x2="431" y1="504.5" y2="504.5"/><text fill="#000000" font-family="sans-serif" font-size="13" lengthAdjust="spacing" textLength="45" x="261" y="517.5669">Succes</text><polygon fill="#A80036" points="68,529.6328,58,533.6328,68,537.6328,64,533.6328" style="stroke:#A80036;stroke-width:1.0;"/><line style="stroke:#A80036;stroke-width:1.0;stroke-dasharray:2.0,2.0;" x1="62" x2="243" y1="533.6328" y2="533.6328"/><text fill="#000000" font-family="sans-serif" font-size="13" lengthAdjust="spacing" textLength="76" x="74" y="546.6997">Bestätigung</text><!--MD5=[3f3be040cb6dbf4d59e35e2a30ac58aa]
@startuml
actor Nutzer
    control Webshop
    database Webshopdatenbank

    skinparam responseMessageBelowArrow true
    autonumber
    Nutzer -> Webshop : Zahlungsdaten löschen
    Webshop -> Webshopdatenbank : Zahlungsdaten abrufen
    Webshopdatenbank - -> Webshop : Zahlungsdaten
    Webshop -> Webshop : Zahlungsdaten prüfen
    alt keine weiteren Zahlungsdaten vorhanden
    autonumber stop
        Webshop -> Webshop : Aboboxen prüfen
        alt Abobox vorhanden
            Webshop - -> Nutzer : Error
        else keine Abobox vorhanden
            Webshop -> Webshopdatenbank : Daten löschen
            Webshopdatenbank - -> Webshop : Succes 
            Webshop - -> Nutzer : Bestätigung
        end
    else weitere Zahlungsdaten vorhanden
        Webshop -> Webshopdatenbank : Daten löschen
        Webshopdatenbank - -> Webshop : Succes 
        Webshop - -> Nutzer : Bestätigung
    end
@enduml

PlantUML version 1.2021.15beta6(Unknown compile time)
(GPL source distribution)
Java Runtime: Java(TM) SE Runtime Environment
JVM: Java HotSpot(TM) 64-Bit Server VM
Default Encoding: UTF-8
Language: en
Country: US
--></g></svg>