<?xml version="1.0" encoding="UTF-8" standalone="no"?><svg xmlns="http://www.w3.org/2000/svg" xmlns:xlink="http://www.w3.org/1999/xlink" contentScriptType="application/ecmascript" contentStyleType="text/css" height="451px" preserveAspectRatio="none" style="width:586px;height:451px;background:#FFFFFF;" version="1.1" viewBox="0 0 586 451" width="586px" zoomAndPan="magnify"><defs><filter height="300%" id="f1svko30wxhfiu" width="300%" x="-1" y="-1"><feGaussianBlur result="blurOut" stdDeviation="2.0"/><feColorMatrix in="blurOut" result="blurOut2" type="matrix" values="0 0 0 0 0 0 0 0 0 0 0 0 0 0 0 0 0 0 .4 0"/><feOffset dx="4.0" dy="4.0" in="blurOut2" result="blurOut3"/><feBlend in="SourceGraphic" in2="blurOut3" mode="normal"/></filter></defs><g><line style="stroke:#A80036;stroke-width:1.0;stroke-dasharray:5.0,5.0;" x1="32" x2="32" y1="88.2969" y2="367.3594"/><line style="stroke:#A80036;stroke-width:1.0;stroke-dasharray:5.0,5.0;" x1="291" x2="291" y1="88.2969" y2="367.3594"/><line style="stroke:#A80036;stroke-width:1.0;stroke-dasharray:5.0,5.0;" x1="509" x2="509" y1="88.2969" y2="367.3594"/><text fill="#000000" font-family="sans-serif" font-size="14" lengthAdjust="spacing" textLength="48" x="5" y="84.9951">Nutzer</text><ellipse cx="32" cy="15" fill="#FEFECE" filter="url(#f1svko30wxhfiu)" rx="8" ry="8" style="stroke:#A80036;stroke-width:2.0;"/><path d="M32,23 L32,50 M19,31 L45,31 M32,50 L19,65 M32,50 L45,65 " fill="none" filter="url(#f1svko30wxhfiu)" style="stroke:#A80036;stroke-width:2.0;"/><text fill="#000000" font-family="sans-serif" font-size="14" lengthAdjust="spacing" textLength="48" x="5" y="379.3545">Nutzer</text><ellipse cx="32" cy="392.6563" fill="#FEFECE" filter="url(#f1svko30wxhfiu)" rx="8" ry="8" style="stroke:#A80036;stroke-width:2.0;"/><path d="M32,400.6563 L32,427.6563 M19,408.6563 L45,408.6563 M32,427.6563 L19,442.6563 M32,427.6563 L45,442.6563 " fill="none" filter="url(#f1svko30wxhfiu)" style="stroke:#A80036;stroke-width:2.0;"/><text fill="#000000" font-family="sans-serif" font-size="14" lengthAdjust="spacing" textLength="68" x="254" y="84.9951">Webshop</text><ellipse cx="291" cy="56" fill="#FEFECE" filter="url(#f1svko30wxhfiu)" rx="12" ry="12" style="stroke:#A80036;stroke-width:2.0;"/><polygon fill="#A80036" points="287,44,293,39,291,44,293,49,287,44" style="stroke:#A80036;stroke-width:1.0;"/><text fill="#000000" font-family="sans-serif" font-size="14" lengthAdjust="spacing" textLength="68" x="254" y="379.3545">Webshop</text><ellipse cx="291" cy="398.6563" fill="#FEFECE" filter="url(#f1svko30wxhfiu)" rx="12" ry="12" style="stroke:#A80036;stroke-width:2.0;"/><polygon fill="#A80036" points="287,386.6563,293,381.6563,291,386.6563,293,391.6563,287,386.6563" style="stroke:#A80036;stroke-width:1.0;"/><text fill="#000000" font-family="sans-serif" font-size="14" lengthAdjust="spacing" textLength="146" x="433" y="84.9951">Webshopdatenbank</text><path d="M491,36 C491,26 509,26 509,26 C509,26 527,26 527,36 L527,62 C527,72 509,72 509,72 C509,72 491,72 491,62 L491,36 " fill="#FEFECE" filter="url(#f1svko30wxhfiu)" style="stroke:#000000;stroke-width:1.5;"/><path d="M491,36 C491,46 509,46 509,46 C509,46 527,46 527,36 " fill="none" style="stroke:#000000;stroke-width:1.5;"/><text fill="#000000" font-family="sans-serif" font-size="14" lengthAdjust="spacing" textLength="146" x="433" y="379.3545">Webshopdatenbank</text><path d="M491,392.6563 C491,382.6563 509,382.6563 509,382.6563 C509,382.6563 527,382.6563 527,392.6563 L527,418.6563 C527,428.6563 509,428.6563 509,428.6563 C509,428.6563 491,428.6563 491,418.6563 L491,392.6563 " fill="#FEFECE" filter="url(#f1svko30wxhfiu)" style="stroke:#000000;stroke-width:1.5;"/><path d="M491,392.6563 C491,402.6563 509,402.6563 509,402.6563 C509,402.6563 527,402.6563 527,392.6563 " fill="none" style="stroke:#000000;stroke-width:1.5;"/><polygon fill="#A80036" points="279,115.4297,289,119.4297,279,123.4297,283,119.4297" style="stroke:#A80036;stroke-width:1.0;"/><line style="stroke:#A80036;stroke-width:1.0;" x1="32" x2="285" y1="119.4297" y2="119.4297"/><text fill="#000000" font-family="sans-serif" font-size="13" lengthAdjust="spacing" textLength="235" x="39" y="114.3638">Zahlungsdart als aktiv kennzeichnen</text><polygon fill="#A80036" points="497,144.5625,507,148.5625,497,152.5625,501,148.5625" style="stroke:#A80036;stroke-width:1.0;"/><line style="stroke:#A80036;stroke-width:1.0;" x1="291" x2="503" y1="148.5625" y2="148.5625"/><text fill="#000000" font-family="sans-serif" font-size="13" lengthAdjust="spacing" textLength="148" x="298" y="143.4966">Zahlungsarten abrufen</text><polygon fill="#A80036" points="302,173.6953,292,177.6953,302,181.6953,298,177.6953" style="stroke:#A80036;stroke-width:1.0;"/><line style="stroke:#A80036;stroke-width:1.0;stroke-dasharray:2.0,2.0;" x1="296" x2="508" y1="177.6953" y2="177.6953"/><text fill="#000000" font-family="sans-serif" font-size="13" lengthAdjust="spacing" textLength="94" x="308" y="172.6294">Zahlungsarten</text><line style="stroke:#A80036;stroke-width:1.0;" x1="291" x2="333" y1="206.8281" y2="206.8281"/><line style="stroke:#A80036;stroke-width:1.0;" x1="333" x2="333" y1="206.8281" y2="219.8281"/><line style="stroke:#A80036;stroke-width:1.0;" x1="292" x2="333" y1="219.8281" y2="219.8281"/><polygon fill="#A80036" points="302,215.8281,292,219.8281,302,223.8281,298,219.8281" style="stroke:#A80036;stroke-width:1.0;"/><text fill="#000000" font-family="sans-serif" font-size="13" lengthAdjust="spacing" textLength="204" x="298" y="201.7622">aktive Zahlungsart deaktivieren</text><line style="stroke:#A80036;stroke-width:1.0;" x1="291" x2="333" y1="248.9609" y2="248.9609"/><line style="stroke:#A80036;stroke-width:1.0;" x1="333" x2="333" y1="248.9609" y2="261.9609"/><line style="stroke:#A80036;stroke-width:1.0;" x1="292" x2="333" y1="261.9609" y2="261.9609"/><polygon fill="#A80036" points="302,257.9609,292,261.9609,302,265.9609,298,261.9609" style="stroke:#A80036;stroke-width:1.0;"/><text fill="#000000" font-family="sans-serif" font-size="13" lengthAdjust="spacing" textLength="181" x="298" y="243.895">neue Zahlungsart aktivieren</text><polygon fill="#A80036" points="497,287.0938,507,291.0938,497,295.0938,501,291.0938" style="stroke:#A80036;stroke-width:1.0;"/><line style="stroke:#A80036;stroke-width:1.0;" x1="291" x2="503" y1="291.0938" y2="291.0938"/><text fill="#000000" font-family="sans-serif" font-size="13" lengthAdjust="spacing" textLength="141" x="298" y="286.0278">Änderung übermitteln</text><polygon fill="#A80036" points="302,316.2266,292,320.2266,302,324.2266,298,320.2266" style="stroke:#A80036;stroke-width:1.0;"/><line style="stroke:#A80036;stroke-width:1.0;stroke-dasharray:2.0,2.0;" x1="296" x2="508" y1="320.2266" y2="320.2266"/><text fill="#000000" font-family="sans-serif" font-size="13" lengthAdjust="spacing" textLength="68" x="308" y="315.1606">Bestätigen</text><polygon fill="#A80036" points="43,345.3594,33,349.3594,43,353.3594,39,349.3594" style="stroke:#A80036;stroke-width:1.0;"/><line style="stroke:#A80036;stroke-width:1.0;stroke-dasharray:2.0,2.0;" x1="37" x2="290" y1="349.3594" y2="349.3594"/><text fill="#000000" font-family="sans-serif" font-size="13" lengthAdjust="spacing" textLength="68" x="49" y="344.2935">Bestätigen</text><!--MD5=[2ec6a944ac916cd27533b241fc73e53a]
@startuml
actor Nutzer
    control Webshop
    database Webshopdatenbank

    Nutzer -> Webshop : Zahlungsdart als aktiv kennzeichnen
    Webshop -> Webshopdatenbank : Zahlungsarten abrufen
    Webshopdatenbank - -> Webshop :Zahlungsarten
    Webshop -> Webshop : aktive Zahlungsart deaktivieren
    Webshop -> Webshop : neue Zahlungsart aktivieren
    Webshop -> Webshopdatenbank : Änderung übermitteln
    Webshopdatenbank - -> Webshop : Bestätigen
    Webshop - -> Nutzer : Bestätigen
@enduml

PlantUML version 1.2021.15beta6(Unknown compile time)
(GPL source distribution)
Java Runtime: Java(TM) SE Runtime Environment
JVM: Java HotSpot(TM) 64-Bit Server VM
Default Encoding: UTF-8
Language: en
Country: US
--></g></svg>