<?xml version="1.0" encoding="UTF-8" standalone="no"?><svg xmlns="http://www.w3.org/2000/svg" xmlns:xlink="http://www.w3.org/1999/xlink" contentScriptType="application/ecmascript" contentStyleType="text/css" height="343px" preserveAspectRatio="none" style="width:178px;height:343px;background:#FFFFFF;" version="1.1" viewBox="0 0 178 343" width="178px" zoomAndPan="magnify"><defs><filter height="300%" id="fuulypbjwm4cx" width="300%" x="-1" y="-1"><feGaussianBlur result="blurOut" stdDeviation="2.0"/><feColorMatrix in="blurOut" result="blurOut2" type="matrix" values="0 0 0 0 0 0 0 0 0 0 0 0 0 0 0 0 0 0 .4 0"/><feOffset dx="4.0" dy="4.0" in="blurOut2" result="blurOut3"/><feBlend in="SourceGraphic" in2="blurOut3" mode="normal"/></filter></defs><g><!--MD5=[3fd616f346a44cd59a91eb10b19e157c]
class User--><rect codeLine="1" fill="#FEFECE" filter="url(#fuulypbjwm4cx)" height="150.4375" id="User" style="stroke:#A80036;stroke-width:1.5;" width="157" x="7" y="7"/><ellipse cx="66.75" cy="23" fill="#ADD1B2" rx="11" ry="11" style="stroke:#A80036;stroke-width:1.0;"/><path d="M65.5469,23.875 L67,23.875 L67,23.9844 C67,24.3906 67.0313,24.5469 67.1094,24.7031 C67.2656,24.9531 67.5469,25.1094 67.8438,25.1094 C68.0938,25.1094 68.3594,24.9688 68.5156,24.75 C68.6406,24.5938 68.6719,24.4375 68.6719,23.9844 L68.6719,22.0625 C68.6719,21.9063 68.6719,21.8594 68.6563,21.7031 C68.5938,21.2344 68.2813,20.9219 67.8281,20.9219 C67.5781,20.9219 67.3125,21.0625 67.1406,21.2813 C67.0313,21.4531 67,21.6094 67,22.0625 L67,22.1875 L65.5469,22.1875 L65.5469,19.7813 L69.5313,19.7813 L69.5313,20.6406 C69.5313,21.0469 69.5625,21.2188 69.6406,21.375 C69.8125,21.625 70.0938,21.7813 70.375,21.7813 C70.6406,21.7813 70.9063,21.6406 71.0781,21.4219 C71.1875,21.25 71.2188,21.1094 71.2188,20.6406 L71.2188,18.0938 L63.5938,18.0938 C63.1563,18.0938 63.0313,18.1094 62.875,18.2031 C62.625,18.3594 62.4688,18.6563 62.4688,18.9375 C62.4688,19.2188 62.6094,19.4688 62.8281,19.6406 C62.9844,19.75 63.1719,19.7813 63.5938,19.7813 L63.8438,19.7813 L63.8438,26.2969 L63.5938,26.2969 C63.1875,26.2969 63.0313,26.3125 62.875,26.4219 C62.625,26.5938 62.4688,26.8594 62.4688,27.1563 C62.4688,27.4219 62.6094,27.6719 62.8281,27.8281 C62.9688,27.9531 63.2031,28 63.5938,28 L71.5938,28 L71.5938,25.4219 C71.5938,24.9844 71.5625,24.8438 71.4844,24.6875 C71.3125,24.4375 71.0313,24.2813 70.75,24.2813 C70.4844,24.2813 70.2188,24.3906 70.0469,24.6406 C69.9375,24.7969 69.9063,24.9375 69.9063,25.4219 L69.9063,26.2969 L65.5469,26.2969 L65.5469,23.875 Z " fill="#000000"/><text fill="#000000" font-family="sans-serif" font-size="12" lengthAdjust="spacing" textLength="29" x="87.25" y="27.1543">User</text><line style="stroke:#A80036;stroke-width:1.5;" x1="8" x2="163" y1="39" y2="39"/><ellipse cx="18" cy="50" fill="#000000" rx="3" ry="3" style="stroke:#000000;stroke-width:1.0;"/><text fill="#000000" font-family="sans-serif" font-size="11" lengthAdjust="spacing" textLength="90" x="27" y="53.2104">userid : number</text><line style="stroke:#A80036;stroke-width:1.0;" x1="8" x2="163" y1="59.8047" y2="59.8047"/><ellipse cx="18" cy="70.8047" fill="#000000" rx="3" ry="3" style="stroke:#000000;stroke-width:1.0;"/><text fill="#000000" font-family="sans-serif" font-size="11" lengthAdjust="spacing" textLength="103" x="27" y="74.0151">adressid : number</text><ellipse cx="18" cy="83.6094" fill="#000000" rx="3" ry="3" style="stroke:#000000;stroke-width:1.0;"/><text fill="#000000" font-family="sans-serif" font-size="11" lengthAdjust="spacing" textLength="104" x="27" y="86.8198">vorname : varchar</text><ellipse cx="18" cy="96.4141" fill="#000000" rx="3" ry="3" style="stroke:#000000;stroke-width:1.0;"/><text fill="#000000" font-family="sans-serif" font-size="11" lengthAdjust="spacing" textLength="120" x="27" y="99.6245">nachname : varhchar</text><ellipse cx="18" cy="109.2188" fill="#000000" rx="3" ry="3" style="stroke:#000000;stroke-width:1.0;"/><text fill="#000000" font-family="sans-serif" font-size="11" lengthAdjust="spacing" textLength="131" x="27" y="112.4292">emailadresse : varchar</text><ellipse cx="18" cy="122.0234" fill="#000000" rx="3" ry="3" style="stroke:#000000;stroke-width:1.0;"/><text fill="#000000" font-family="sans-serif" font-size="11" lengthAdjust="spacing" textLength="103" x="27" y="125.2339">passwort : varchar</text><ellipse cx="18" cy="134.8281" fill="#000000" rx="3" ry="3" style="stroke:#000000;stroke-width:1.0;"/><text fill="#000000" font-family="sans-serif" font-size="11" lengthAdjust="spacing" textLength="87" x="27" y="138.0386">status : varchar</text><ellipse cx="18" cy="147.6328" fill="#000000" rx="3" ry="3" style="stroke:#000000;stroke-width:1.0;"/><text fill="#000000" font-family="sans-serif" font-size="11" lengthAdjust="spacing" textLength="111" x="27" y="150.8433">registerDate : Date</text><!--MD5=[70c811998a0d7544d2536fae1accd5d3]
class Adresse--><rect codeLine="13" fill="#FEFECE" filter="url(#fuulypbjwm4cx)" height="112.0234" id="Adresse" style="stroke:#A80036;stroke-width:1.5;" width="146" x="12.5" y="217"/><ellipse cx="55.85" cy="233" fill="#ADD1B2" rx="11" ry="11" style="stroke:#A80036;stroke-width:1.0;"/><path d="M54.6469,233.875 L56.1,233.875 L56.1,233.9844 C56.1,234.3906 56.1313,234.5469 56.2094,234.7031 C56.3656,234.9531 56.6469,235.1094 56.9438,235.1094 C57.1938,235.1094 57.4594,234.9688 57.6156,234.75 C57.7406,234.5938 57.7719,234.4375 57.7719,233.9844 L57.7719,232.0625 C57.7719,231.9063 57.7719,231.8594 57.7563,231.7031 C57.6938,231.2344 57.3813,230.9219 56.9281,230.9219 C56.6781,230.9219 56.4125,231.0625 56.2406,231.2813 C56.1313,231.4531 56.1,231.6094 56.1,232.0625 L56.1,232.1875 L54.6469,232.1875 L54.6469,229.7813 L58.6313,229.7813 L58.6313,230.6406 C58.6313,231.0469 58.6625,231.2188 58.7406,231.375 C58.9125,231.625 59.1938,231.7813 59.475,231.7813 C59.7406,231.7813 60.0063,231.6406 60.1781,231.4219 C60.2875,231.25 60.3188,231.1094 60.3188,230.6406 L60.3188,228.0938 L52.6938,228.0938 C52.2563,228.0938 52.1313,228.1094 51.975,228.2031 C51.725,228.3594 51.5688,228.6563 51.5688,228.9375 C51.5688,229.2188 51.7094,229.4688 51.9281,229.6406 C52.0844,229.75 52.2719,229.7813 52.6938,229.7813 L52.9438,229.7813 L52.9438,236.2969 L52.6938,236.2969 C52.2875,236.2969 52.1313,236.3125 51.975,236.4219 C51.725,236.5938 51.5688,236.8594 51.5688,237.1563 C51.5688,237.4219 51.7094,237.6719 51.9281,237.8281 C52.0688,237.9531 52.3031,238 52.6938,238 L60.6938,238 L60.6938,235.4219 C60.6938,234.9844 60.6625,234.8438 60.5844,234.6875 C60.4125,234.4375 60.1313,234.2813 59.85,234.2813 C59.5844,234.2813 59.3188,234.3906 59.1469,234.6406 C59.0375,234.7969 59.0063,234.9375 59.0063,235.4219 L59.0063,236.2969 L54.6469,236.2969 L54.6469,233.875 Z " fill="#000000"/><text fill="#000000" font-family="sans-serif" font-size="12" lengthAdjust="spacing" textLength="51" x="76.15" y="237.1543">Adresse</text><line style="stroke:#A80036;stroke-width:1.5;" x1="13.5" x2="157.5" y1="249" y2="249"/><ellipse cx="23.5" cy="260" fill="#000000" rx="3" ry="3" style="stroke:#000000;stroke-width:1.0;"/><text fill="#000000" font-family="sans-serif" font-size="11" lengthAdjust="spacing" textLength="103" x="32.5" y="263.2104">adressid : number</text><line style="stroke:#A80036;stroke-width:1.0;" x1="13.5" x2="157.5" y1="269.8047" y2="269.8047"/><ellipse cx="23.5" cy="280.8047" fill="#000000" rx="3" ry="3" style="stroke:#000000;stroke-width:1.0;"/><text fill="#000000" font-family="sans-serif" font-size="11" lengthAdjust="spacing" textLength="90" x="32.5" y="284.0151">Straße : varchar</text><ellipse cx="23.5" cy="293.6094" fill="#000000" rx="3" ry="3" style="stroke:#000000;stroke-width:1.0;"/><text fill="#000000" font-family="sans-serif" font-size="11" lengthAdjust="spacing" textLength="120" x="32.5" y="296.8198">Hausnummer : String</text><ellipse cx="23.5" cy="306.4141" fill="#000000" rx="3" ry="3" style="stroke:#000000;stroke-width:1.0;"/><text fill="#000000" font-family="sans-serif" font-size="11" lengthAdjust="spacing" textLength="109" x="32.5" y="309.6245">Postleitzahl : String</text><ellipse cx="23.5" cy="319.2188" fill="#000000" rx="3" ry="3" style="stroke:#000000;stroke-width:1.0;"/><text fill="#000000" font-family="sans-serif" font-size="11" lengthAdjust="spacing" textLength="61" x="32.5" y="322.4292">Ort : String</text><!--MD5=[eb4433770ab12eb90f0ebf6e1038ff35]
link User to Adresse--><path codeLine="22" d="M85.5,157.155 C85.5,177.011 85.5,198.125 85.5,216.762 " fill="none" id="User-Adresse" style="stroke:#A80036;stroke-width:1.0;"/><!--MD5=[da9796087c030c797404a8037994c90b]
@startuml
entity User{
    * userid : number
    - -
    * adressid : number
    * vorname : varchar
    * nachname : varhchar
    * emailadresse : varchar
    * passwort : varchar
    * status : varchar
    * registerDate : Date
}

entity Adresse{
    * adressid : number
    - -
    * Straße : varchar
    * Hausnummer : String
    * Postleitzahl : String
    * Ort : String
}

User - - Adresse
@enduml

PlantUML version 1.2021.15beta6(Unknown compile time)
(GPL source distribution)
Java Runtime: Java(TM) SE Runtime Environment
JVM: Java HotSpot(TM) 64-Bit Server VM
Default Encoding: UTF-8
Language: en
Country: US
--></g></svg>