<?xml version="1.0" encoding="UTF-8" standalone="no"?><svg xmlns="http://www.w3.org/2000/svg" xmlns:xlink="http://www.w3.org/1999/xlink" contentScriptType="application/ecmascript" contentStyleType="text/css" height="279px" preserveAspectRatio="none" style="width:568px;height:279px;background:#FFFFFF;" version="1.1" viewBox="0 0 568 279" width="568px" zoomAndPan="magnify"><defs><filter height="300%" id="fgogl59hoktyu" width="300%" x="-1" y="-1"><feGaussianBlur result="blurOut" stdDeviation="2.0"/><feColorMatrix in="blurOut" result="blurOut2" type="matrix" values="0 0 0 0 0 0 0 0 0 0 0 0 0 0 0 0 0 0 .4 0"/><feOffset dx="4.0" dy="4.0" in="blurOut2" result="blurOut3"/><feBlend in="SourceGraphic" in2="blurOut3" mode="normal"/></filter></defs><g><!--MD5=[59a63838318adfb8fbef32dba04053e1]
class UserZahlungsdaten--><rect codeLine="1" fill="#FEFECE" filter="url(#fgogl59hoktyu)" height="112.0234" id="UserZahlungsdaten" style="stroke:#A80036;stroke-width:1.5;" width="176" x="220.5" y="7"/><ellipse cx="247.2" cy="23" fill="#ADD1B2" rx="11" ry="11" style="stroke:#A80036;stroke-width:1.0;"/><path d="M249.5438,18.6719 C248.6063,18.2344 248.0125,18.0938 247.1375,18.0938 C244.5125,18.0938 242.5125,20.1719 242.5125,22.8906 L242.5125,24.0156 C242.5125,26.5938 244.6219,28.4844 247.5125,28.4844 C248.7313,28.4844 249.8875,28.1875 250.6375,27.6406 C251.2156,27.2344 251.5438,26.7813 251.5438,26.3906 C251.5438,25.9375 251.1531,25.5469 250.6844,25.5469 C250.4656,25.5469 250.2625,25.625 250.075,25.8125 C249.6219,26.2969 249.6219,26.2969 249.4344,26.3906 C249.0125,26.6563 248.325,26.7813 247.5594,26.7813 C245.5125,26.7813 244.2156,25.6875 244.2156,23.9844 L244.2156,22.8906 C244.2156,21.1094 245.4656,19.7969 247.2,19.7969 C247.7781,19.7969 248.3875,19.9531 248.8563,20.2031 C249.3406,20.4844 249.5125,20.7031 249.6063,21.1094 C249.6688,21.5156 249.7,21.6406 249.8406,21.7656 C249.9813,21.9063 250.2156,22.0156 250.4344,22.0156 C250.7,22.0156 250.9656,21.875 251.1375,21.6563 C251.2469,21.5 251.2781,21.3125 251.2781,20.8906 L251.2781,19.4688 C251.2781,19.0313 251.2625,18.9063 251.1688,18.75 C251.0125,18.4844 250.7313,18.3438 250.4344,18.3438 C250.1375,18.3438 249.9344,18.4375 249.7156,18.75 L249.5438,18.6719 Z " fill="#000000"/><text fill="#000000" font-family="sans-serif" font-size="12" lengthAdjust="spacing" textLength="118" x="263.8" y="27.1543">UserZahlungsdaten</text><line style="stroke:#A80036;stroke-width:1.5;" x1="221.5" x2="395.5" y1="39" y2="39"/><text fill="#000000" font-family="sans-serif" font-size="11" lengthAdjust="spacing" textLength="60" x="226.5" y="53.2104">userid : int</text><text fill="#000000" font-family="sans-serif" font-size="11" lengthAdjust="spacing" textLength="119" x="226.5" y="66.0151">zahlungsdatenid : int</text><text fill="#000000" font-family="sans-serif" font-size="11" lengthAdjust="spacing" textLength="164" x="226.5" y="78.8198">status : Zahlungsdatenstatus</text><text fill="#000000" font-family="sans-serif" font-size="11" lengthAdjust="spacing" textLength="156" x="226.5" y="91.6245">zahlungsartID : Zahlungsart</text><text fill="#000000" font-family="sans-serif" font-size="11" lengthAdjust="spacing" textLength="76" x="226.5" y="104.4292">token : String</text><line style="stroke:#A80036;stroke-width:1.5;" x1="221.5" x2="395.5" y1="111.0234" y2="111.0234"/><!--MD5=[69d50a1fce144b39a2558c7d9636a4c2]
class Zahlungsdatenstatus--><rect codeLine="9" fill="#FEFECE" filter="url(#fgogl59hoktyu)" height="73.6094" id="Zahlungsdatenstatus" style="stroke:#A80036;stroke-width:1.5;" width="157" x="7" y="185"/><ellipse cx="22" cy="201" fill="#EB937F" rx="11" ry="11" style="stroke:#A80036;stroke-width:1.0;"/><path d="M20.7969,201.875 L22.25,201.875 L22.25,201.9844 C22.25,202.3906 22.2813,202.5469 22.3594,202.7031 C22.5156,202.9531 22.7969,203.1094 23.0938,203.1094 C23.3438,203.1094 23.6094,202.9688 23.7656,202.75 C23.8906,202.5938 23.9219,202.4375 23.9219,201.9844 L23.9219,200.0625 C23.9219,199.9063 23.9219,199.8594 23.9063,199.7031 C23.8438,199.2344 23.5313,198.9219 23.0781,198.9219 C22.8281,198.9219 22.5625,199.0625 22.3906,199.2813 C22.2813,199.4531 22.25,199.6094 22.25,200.0625 L22.25,200.1875 L20.7969,200.1875 L20.7969,197.7813 L24.7813,197.7813 L24.7813,198.6406 C24.7813,199.0469 24.8125,199.2188 24.8906,199.375 C25.0625,199.625 25.3438,199.7813 25.625,199.7813 C25.8906,199.7813 26.1563,199.6406 26.3281,199.4219 C26.4375,199.25 26.4688,199.1094 26.4688,198.6406 L26.4688,196.0938 L18.8438,196.0938 C18.4063,196.0938 18.2813,196.1094 18.125,196.2031 C17.875,196.3594 17.7188,196.6563 17.7188,196.9375 C17.7188,197.2188 17.8594,197.4688 18.0781,197.6406 C18.2344,197.75 18.4219,197.7813 18.8438,197.7813 L19.0938,197.7813 L19.0938,204.2969 L18.8438,204.2969 C18.4375,204.2969 18.2813,204.3125 18.125,204.4219 C17.875,204.5938 17.7188,204.8594 17.7188,205.1563 C17.7188,205.4219 17.8594,205.6719 18.0781,205.8281 C18.2188,205.9531 18.4531,206 18.8438,206 L26.8438,206 L26.8438,203.4219 C26.8438,202.9844 26.8125,202.8438 26.7344,202.6875 C26.5625,202.4375 26.2813,202.2813 26,202.2813 C25.7344,202.2813 25.4688,202.3906 25.2969,202.6406 C25.1875,202.7969 25.1563,202.9375 25.1563,203.4219 L25.1563,204.2969 L20.7969,204.2969 L20.7969,201.875 Z " fill="#000000"/><text fill="#000000" font-family="sans-serif" font-size="12" lengthAdjust="spacing" textLength="125" x="36" y="205.1543">Zahlungsdatenstatus</text><line style="stroke:#A80036;stroke-width:1.5;" x1="8" x2="163" y1="217" y2="217"/><text fill="#000000" font-family="sans-serif" font-size="11" lengthAdjust="spacing" textLength="27" x="13" y="231.2104">akitv</text><text fill="#000000" font-family="sans-serif" font-size="11" lengthAdjust="spacing" textLength="37" x="13" y="244.0151">inaktiv</text><line style="stroke:#A80036;stroke-width:1.5;" x1="8" x2="163" y1="250.6094" y2="250.6094"/><!--MD5=[f779d502cece46e23a1d08e54fab3446]
class Zahlungsart--><rect codeLine="14" fill="#FEFECE" filter="url(#fgogl59hoktyu)" height="86.4141" id="Zahlungsart" style="stroke:#A80036;stroke-width:1.5;" width="103" x="199" y="179"/><ellipse cx="214" cy="195" fill="#EB937F" rx="11" ry="11" style="stroke:#A80036;stroke-width:1.0;"/><path d="M212.7969,195.875 L214.25,195.875 L214.25,195.9844 C214.25,196.3906 214.2813,196.5469 214.3594,196.7031 C214.5156,196.9531 214.7969,197.1094 215.0938,197.1094 C215.3438,197.1094 215.6094,196.9688 215.7656,196.75 C215.8906,196.5938 215.9219,196.4375 215.9219,195.9844 L215.9219,194.0625 C215.9219,193.9063 215.9219,193.8594 215.9063,193.7031 C215.8438,193.2344 215.5313,192.9219 215.0781,192.9219 C214.8281,192.9219 214.5625,193.0625 214.3906,193.2813 C214.2813,193.4531 214.25,193.6094 214.25,194.0625 L214.25,194.1875 L212.7969,194.1875 L212.7969,191.7813 L216.7813,191.7813 L216.7813,192.6406 C216.7813,193.0469 216.8125,193.2188 216.8906,193.375 C217.0625,193.625 217.3438,193.7813 217.625,193.7813 C217.8906,193.7813 218.1563,193.6406 218.3281,193.4219 C218.4375,193.25 218.4688,193.1094 218.4688,192.6406 L218.4688,190.0938 L210.8438,190.0938 C210.4063,190.0938 210.2813,190.1094 210.125,190.2031 C209.875,190.3594 209.7188,190.6563 209.7188,190.9375 C209.7188,191.2188 209.8594,191.4688 210.0781,191.6406 C210.2344,191.75 210.4219,191.7813 210.8438,191.7813 L211.0938,191.7813 L211.0938,198.2969 L210.8438,198.2969 C210.4375,198.2969 210.2813,198.3125 210.125,198.4219 C209.875,198.5938 209.7188,198.8594 209.7188,199.1563 C209.7188,199.4219 209.8594,199.6719 210.0781,199.8281 C210.2188,199.9531 210.4531,200 210.8438,200 L218.8438,200 L218.8438,197.4219 C218.8438,196.9844 218.8125,196.8438 218.7344,196.6875 C218.5625,196.4375 218.2813,196.2813 218,196.2813 C217.7344,196.2813 217.4688,196.3906 217.2969,196.6406 C217.1875,196.7969 217.1563,196.9375 217.1563,197.4219 L217.1563,198.2969 L212.7969,198.2969 L212.7969,195.875 Z " fill="#000000"/><text fill="#000000" font-family="sans-serif" font-size="12" lengthAdjust="spacing" textLength="71" x="228" y="199.1543">Zahlungsart</text><line style="stroke:#A80036;stroke-width:1.5;" x1="200" x2="301" y1="211" y2="211"/><text fill="#000000" font-family="sans-serif" font-size="11" lengthAdjust="spacing" textLength="37" x="205" y="225.2104">Paypal</text><text fill="#000000" font-family="sans-serif" font-size="11" lengthAdjust="spacing" textLength="62" x="205" y="238.0151">Kreditkarte</text><text fill="#000000" font-family="sans-serif" font-size="11" lengthAdjust="spacing" textLength="60" x="205" y="250.8198">Debitkarte</text><line style="stroke:#A80036;stroke-width:1.5;" x1="200" x2="301" y1="257.4141" y2="257.4141"/><!--MD5=[3fd616f346a44cd59a91eb10b19e157c]
class User--><rect fill="#FEFECE" filter="url(#fgogl59hoktyu)" height="48" id="User" style="stroke:#A80036;stroke-width:1.5;" width="61" x="337" y="198"/><ellipse cx="352" cy="214" fill="#ADD1B2" rx="11" ry="11" style="stroke:#A80036;stroke-width:1.0;"/><path d="M354.3438,209.6719 C353.4063,209.2344 352.8125,209.0938 351.9375,209.0938 C349.3125,209.0938 347.3125,211.1719 347.3125,213.8906 L347.3125,215.0156 C347.3125,217.5938 349.4219,219.4844 352.3125,219.4844 C353.5313,219.4844 354.6875,219.1875 355.4375,218.6406 C356.0156,218.2344 356.3438,217.7813 356.3438,217.3906 C356.3438,216.9375 355.9531,216.5469 355.4844,216.5469 C355.2656,216.5469 355.0625,216.625 354.875,216.8125 C354.4219,217.2969 354.4219,217.2969 354.2344,217.3906 C353.8125,217.6563 353.125,217.7813 352.3594,217.7813 C350.3125,217.7813 349.0156,216.6875 349.0156,214.9844 L349.0156,213.8906 C349.0156,212.1094 350.2656,210.7969 352,210.7969 C352.5781,210.7969 353.1875,210.9531 353.6563,211.2031 C354.1406,211.4844 354.3125,211.7031 354.4063,212.1094 C354.4688,212.5156 354.5,212.6406 354.6406,212.7656 C354.7813,212.9063 355.0156,213.0156 355.2344,213.0156 C355.5,213.0156 355.7656,212.875 355.9375,212.6563 C356.0469,212.5 356.0781,212.3125 356.0781,211.8906 L356.0781,210.4688 C356.0781,210.0313 356.0625,209.9063 355.9688,209.75 C355.8125,209.4844 355.5313,209.3438 355.2344,209.3438 C354.9375,209.3438 354.7344,209.4375 354.5156,209.75 L354.3438,209.6719 Z " fill="#000000"/><text fill="#000000" font-family="sans-serif" font-size="12" lengthAdjust="spacing" textLength="29" x="366" y="218.1543">User</text><line style="stroke:#A80036;stroke-width:1.5;" x1="338" x2="397" y1="230" y2="230"/><line style="stroke:#A80036;stroke-width:1.5;" x1="338" x2="397" y1="238" y2="238"/><!--MD5=[0d9dc95f9c64590887281dc2e718ea2e]
class Zahlungsdaten--><rect fill="#FEFECE" filter="url(#fgogl59hoktyu)" height="48" id="Zahlungsdaten" style="stroke:#A80036;stroke-width:1.5;" width="121" x="433" y="198"/><ellipse cx="448" cy="214" fill="#ADD1B2" rx="11" ry="11" style="stroke:#A80036;stroke-width:1.0;"/><path d="M450.3438,209.6719 C449.4063,209.2344 448.8125,209.0938 447.9375,209.0938 C445.3125,209.0938 443.3125,211.1719 443.3125,213.8906 L443.3125,215.0156 C443.3125,217.5938 445.4219,219.4844 448.3125,219.4844 C449.5313,219.4844 450.6875,219.1875 451.4375,218.6406 C452.0156,218.2344 452.3438,217.7813 452.3438,217.3906 C452.3438,216.9375 451.9531,216.5469 451.4844,216.5469 C451.2656,216.5469 451.0625,216.625 450.875,216.8125 C450.4219,217.2969 450.4219,217.2969 450.2344,217.3906 C449.8125,217.6563 449.125,217.7813 448.3594,217.7813 C446.3125,217.7813 445.0156,216.6875 445.0156,214.9844 L445.0156,213.8906 C445.0156,212.1094 446.2656,210.7969 448,210.7969 C448.5781,210.7969 449.1875,210.9531 449.6563,211.2031 C450.1406,211.4844 450.3125,211.7031 450.4063,212.1094 C450.4688,212.5156 450.5,212.6406 450.6406,212.7656 C450.7813,212.9063 451.0156,213.0156 451.2344,213.0156 C451.5,213.0156 451.7656,212.875 451.9375,212.6563 C452.0469,212.5 452.0781,212.3125 452.0781,211.8906 L452.0781,210.4688 C452.0781,210.0313 452.0625,209.9063 451.9688,209.75 C451.8125,209.4844 451.5313,209.3438 451.2344,209.3438 C450.9375,209.3438 450.7344,209.4375 450.5156,209.75 L450.3438,209.6719 Z " fill="#000000"/><text fill="#000000" font-family="sans-serif" font-size="12" lengthAdjust="spacing" textLength="89" x="462" y="218.1543">Zahlungsdaten</text><line style="stroke:#A80036;stroke-width:1.5;" x1="434" x2="553" y1="230" y2="230"/><line style="stroke:#A80036;stroke-width:1.5;" x1="434" x2="553" y1="238" y2="238"/><!--MD5=[2435a393d398a135aae30102f15a2bc0]
reverse link UserZahlungsdaten to User--><path codeLine="20" d="M333.904,131.601 C342.829,155.35 352.264,180.4561 358.855,197.9961 " fill="none" id="UserZahlungsdaten-backto-User" style="stroke:#A80036;stroke-width:1.0;"/><polygon fill="#FFFFFF" points="329.301,119.352,327.667,126.3755,333.5219,130.5852,335.1558,123.5616,329.301,119.352" style="stroke:#A80036;stroke-width:1.0;"/><!--MD5=[c2b340dd5335b63f8d58efd876a32a18]
reverse link UserZahlungsdaten to Zahlungsdaten--><path codeLine="21" d="M383.684,127.805 C412.917,152.614 444.543,179.4528 466.314,197.9283 " fill="none" id="UserZahlungsdaten-backto-Zahlungsdaten" style="stroke:#A80036;stroke-width:1.0;"/><polygon fill="#FFFFFF" points="373.464,119.132,375.4504,126.0641,382.6133,126.8967,380.6269,119.9646,373.464,119.132" style="stroke:#A80036;stroke-width:1.0;"/><!--MD5=[af46f4730b59bfac70cd5e60db772cdf]
reverse link UserZahlungsdaten to Zahlungsdatenstatus--><path codeLine="22" d="M219.528,126.639 C191.409,146.437 161.294,167.6383 136.748,184.9198 " fill="none" id="UserZahlungsdaten-backto-Zahlungsdatenstatus" style="stroke:#A80036;stroke-width:1.0;"/><polygon fill="#FFFFFF" points="230.192,119.132,222.9832,119.3155,220.38,126.0403,227.5888,125.8568,230.192,119.132" style="stroke:#A80036;stroke-width:1.0;"/><!--MD5=[c88c74e28bc5d5f32ceea6cffcb8b444]
reverse link UserZahlungsdaten to Zahlungsart--><path codeLine="23" d="M283.384,131.985 C277.483,147.96 271.363,164.527 266.026,178.9736 " fill="none" id="UserZahlungsdaten-backto-Zahlungsart" style="stroke:#A80036;stroke-width:1.0;"/><polygon fill="#FFFFFF" points="288.051,119.352,282.2194,123.5937,283.8919,130.6082,289.7235,126.3665,288.051,119.352" style="stroke:#A80036;stroke-width:1.0;"/><!--MD5=[77b44ef5e061c646ec6a69c9e60f6faf]
@startuml
class UserZahlungsdaten {
    userid : int
    zahlungsdatenid : int
    status : Zahlungsdatenstatus
    zahlungsartID : Zahlungsart
    token : String
}

enum Zahlungsdatenstatus {
    akitv
    inaktiv
}

enum Zahlungsart {
    Paypal
    Kreditkarte
    Debitkarte
}

UserZahlungsdaten o- - User
UserZahlungsdaten o- - Zahlungsdaten
UserZahlungsdaten o- - Zahlungsdatenstatus
UserZahlungsdaten o- - Zahlungsart
@enduml

PlantUML version 1.2021.15beta6(Unknown compile time)
(GPL source distribution)
Java Runtime: Java(TM) SE Runtime Environment
JVM: Java HotSpot(TM) 64-Bit Server VM
Default Encoding: UTF-8
Language: en
Country: US
--></g></svg>