<?xml version="1.0" encoding="UTF-8" standalone="no"?><svg xmlns="http://www.w3.org/2000/svg" xmlns:xlink="http://www.w3.org/1999/xlink" contentScriptType="application/ecmascript" contentStyleType="text/css" height="264px" preserveAspectRatio="none" style="width:1058px;height:264px;background:#FFFFFF;" version="1.1" viewBox="0 0 1058 264" width="1058px" zoomAndPan="magnify"><defs/><g><text fill="#000000" font-family="Serif" font-size="10" lengthAdjust="spacing" textLength="13" x="17.5" y="25.2822">Mi</text><text fill="#000000" font-family="Serif" font-size="10" lengthAdjust="spacing" textLength="15" x="64.5" y="25.2822">Do</text><text fill="#000000" font-family="Serif" font-size="10" lengthAdjust="spacing" textLength="12" x="114" y="25.2822">Fr</text><text fill="#000000" font-family="Serif" font-size="10" lengthAdjust="spacing" textLength="13" x="161.5" y="25.2822">Sa</text><text fill="#000000" font-family="Serif" font-size="10" lengthAdjust="spacing" textLength="13" x="209.5" y="25.2822">So</text><text fill="#000000" font-family="Serif" font-size="10" lengthAdjust="spacing" textLength="16" x="256" y="25.2822">Mo</text><text fill="#000000" font-family="Serif" font-size="10" lengthAdjust="spacing" textLength="12" x="306" y="25.2822">Di</text><text fill="#000000" font-family="Serif" font-size="10" lengthAdjust="spacing" textLength="13" x="353.5" y="25.2822">Mi</text><text fill="#000000" font-family="Serif" font-size="10" lengthAdjust="spacing" textLength="15" x="400.5" y="25.2822">Do</text><text fill="#000000" font-family="Serif" font-size="10" lengthAdjust="spacing" textLength="12" x="450" y="25.2822">Fr</text><text fill="#000000" font-family="Serif" font-size="10" lengthAdjust="spacing" textLength="13" x="497.5" y="25.2822">Sa</text><text fill="#000000" font-family="Serif" font-size="10" lengthAdjust="spacing" textLength="13" x="545.5" y="25.2822">So</text><text fill="#000000" font-family="Serif" font-size="10" lengthAdjust="spacing" textLength="16" x="592" y="25.2822">Mo</text><text fill="#000000" font-family="Serif" font-size="10" lengthAdjust="spacing" textLength="12" x="642" y="25.2822">Di</text><text fill="#000000" font-family="Serif" font-size="10" lengthAdjust="spacing" textLength="13" x="689.5" y="25.2822">Mi</text><text fill="#000000" font-family="Serif" font-size="10" lengthAdjust="spacing" textLength="15" x="736.5" y="25.2822">Do</text><text fill="#000000" font-family="Serif" font-size="10" lengthAdjust="spacing" textLength="12" x="786" y="25.2822">Fr</text><text fill="#000000" font-family="Serif" font-size="10" lengthAdjust="spacing" textLength="13" x="833.5" y="25.2822">Sa</text><text fill="#000000" font-family="Serif" font-size="10" lengthAdjust="spacing" textLength="13" x="881.5" y="25.2822">So</text><text fill="#000000" font-family="Serif" font-size="10" lengthAdjust="spacing" textLength="16" x="928" y="25.2822">Mo</text><text fill="#000000" font-family="Serif" font-size="10" lengthAdjust="spacing" textLength="12" x="978" y="25.2822">Di</text><text fill="#000000" font-family="Serif" font-size="10" lengthAdjust="spacing" textLength="13" x="1025.5" y="25.2822">Mi</text><text fill="#000000" font-family="Serif" font-size="10" lengthAdjust="spacing" textLength="13" x="17.5" y="37.2822">24</text><text fill="#000000" font-family="Serif" font-size="10" lengthAdjust="spacing" textLength="12" x="66" y="37.2822">25</text><text fill="#000000" font-family="Serif" font-size="10" lengthAdjust="spacing" textLength="13" x="113.5" y="37.2822">26</text><text fill="#000000" font-family="Serif" font-size="10" lengthAdjust="spacing" textLength="13" x="161.5" y="37.2822">27</text><text fill="#000000" font-family="Serif" font-size="10" lengthAdjust="spacing" textLength="13" x="209.5" y="37.2822">28</text><text fill="#000000" font-family="Serif" font-size="10" lengthAdjust="spacing" textLength="13" x="257.5" y="37.2822">29</text><text fill="#000000" font-family="Serif" font-size="10" lengthAdjust="spacing" textLength="14" x="305" y="37.2822">30</text><text fill="#000000" font-family="Serif" font-size="10" lengthAdjust="spacing" textLength="7" x="356.5" y="37.2822">1</text><text fill="#000000" font-family="Serif" font-size="10" lengthAdjust="spacing" textLength="6" x="405" y="37.2822">2</text><text fill="#000000" font-family="Serif" font-size="10" lengthAdjust="spacing" textLength="7" x="452.5" y="37.2822">3</text><text fill="#000000" font-family="Serif" font-size="10" lengthAdjust="spacing" textLength="7" x="500.5" y="37.2822">4</text><text fill="#000000" font-family="Serif" font-size="10" lengthAdjust="spacing" textLength="6" x="549" y="37.2822">5</text><text fill="#000000" font-family="Serif" font-size="10" lengthAdjust="spacing" textLength="7" x="596.5" y="37.2822">6</text><text fill="#000000" font-family="Serif" font-size="10" lengthAdjust="spacing" textLength="7" x="644.5" y="37.2822">7</text><text fill="#000000" font-family="Serif" font-size="10" lengthAdjust="spacing" textLength="7" x="692.5" y="37.2822">8</text><text fill="#000000" font-family="Serif" font-size="10" lengthAdjust="spacing" textLength="7" x="740.5" y="37.2822">9</text><text fill="#000000" font-family="Serif" font-size="10" lengthAdjust="spacing" textLength="14" x="785" y="37.2822">10</text><text fill="#000000" font-family="Serif" font-size="10" lengthAdjust="spacing" textLength="14" x="833" y="37.2822">11</text><text fill="#000000" font-family="Serif" font-size="10" lengthAdjust="spacing" textLength="13" x="881.5" y="37.2822">12</text><text fill="#000000" font-family="Serif" font-size="10" lengthAdjust="spacing" textLength="14" x="929" y="37.2822">13</text><text fill="#000000" font-family="Serif" font-size="10" lengthAdjust="spacing" textLength="14" x="977" y="37.2822">14</text><text fill="#000000" font-family="Serif" font-size="10" lengthAdjust="spacing" textLength="13" x="1025.5" y="37.2822">15</text><text fill="#000000" font-family="Serif" font-size="12" font-weight="bold" lengthAdjust="spacing" textLength="110" x="113" y="11.2676">November 2021</text><text fill="#000000" font-family="Serif" font-size="12" font-weight="bold" lengthAdjust="spacing" textLength="107" x="642.5" y="11.2676">Dezember 2021</text><line style="stroke:#C0C0C0;stroke-width:1.0;" x1="0" x2="0" y1="41" y2="225.8516"/><line style="stroke:#C0C0C0;stroke-width:1.0;" x1="48" x2="48" y1="41" y2="225.8516"/><line style="stroke:#C0C0C0;stroke-width:1.0;" x1="96" x2="96" y1="41" y2="225.8516"/><line style="stroke:#C0C0C0;stroke-width:1.0;" x1="144" x2="144" y1="41" y2="225.8516"/><line style="stroke:#C0C0C0;stroke-width:1.0;" x1="192" x2="192" y1="41" y2="225.8516"/><line style="stroke:#C0C0C0;stroke-width:1.0;" x1="240" x2="240" y1="41" y2="225.8516"/><line style="stroke:#C0C0C0;stroke-width:1.0;" x1="288" x2="288" y1="41" y2="225.8516"/><line style="stroke:#C0C0C0;stroke-width:1.0;" x1="336" x2="336" y1="41" y2="225.8516"/><line style="stroke:#C0C0C0;stroke-width:1.0;" x1="384" x2="384" y1="41" y2="225.8516"/><line style="stroke:#C0C0C0;stroke-width:1.0;" x1="432" x2="432" y1="41" y2="225.8516"/><line style="stroke:#C0C0C0;stroke-width:1.0;" x1="480" x2="480" y1="41" y2="225.8516"/><line style="stroke:#C0C0C0;stroke-width:1.0;" x1="528" x2="528" y1="41" y2="225.8516"/><line style="stroke:#C0C0C0;stroke-width:1.0;" x1="576" x2="576" y1="41" y2="225.8516"/><line style="stroke:#C0C0C0;stroke-width:1.0;" x1="624" x2="624" y1="41" y2="225.8516"/><line style="stroke:#C0C0C0;stroke-width:1.0;" x1="672" x2="672" y1="41" y2="225.8516"/><line style="stroke:#C0C0C0;stroke-width:1.0;" x1="720" x2="720" y1="41" y2="225.8516"/><line style="stroke:#C0C0C0;stroke-width:1.0;" x1="768" x2="768" y1="41" y2="225.8516"/><line style="stroke:#C0C0C0;stroke-width:1.0;" x1="816" x2="816" y1="41" y2="225.8516"/><line style="stroke:#C0C0C0;stroke-width:1.0;" x1="864" x2="864" y1="41" y2="225.8516"/><line style="stroke:#C0C0C0;stroke-width:1.0;" x1="912" x2="912" y1="41" y2="225.8516"/><line style="stroke:#C0C0C0;stroke-width:1.0;" x1="960" x2="960" y1="41" y2="225.8516"/><line style="stroke:#C0C0C0;stroke-width:1.0;" x1="1008" x2="1008" y1="41" y2="225.8516"/><line style="stroke:#C0C0C0;stroke-width:1.0;" x1="1056" x2="1056" y1="41" y2="225.8516"/><line style="stroke:#C0C0C0;stroke-width:1.0;" x1="0" x2="1056" y1="41" y2="41"/><line style="stroke:#C0C0C0;stroke-width:1.0;" x1="0" x2="1056" y1="225.8516" y2="225.8516"/><line style="stroke:#A80036;stroke-width:1.5;" x1="216" x2="216" y1="55.8047" y2="66.207"/><line style="stroke:#A80036;stroke-width:1.5;" x1="216" x2="239" y1="66.207" y2="66.207"/><polygon fill="#A80036" points="235,62.207,235,66.207,235,70.207,239,66.207" style="stroke:#A80036;stroke-width:1.5;"/><line style="stroke:#A80036;stroke-width:1.5;" x1="456" x2="456" y1="72.6094" y2="83.0117"/><line style="stroke:#A80036;stroke-width:1.5;" x1="456" x2="479" y1="83.0117" y2="83.0117"/><polygon fill="#A80036" points="475,79.0117,475,83.0117,475,87.0117,479,83.0117" style="stroke:#A80036;stroke-width:1.5;"/><line style="stroke:#A80036;stroke-width:1.5;" x1="456" x2="456" y1="72.6094" y2="99.8164"/><line style="stroke:#A80036;stroke-width:1.5;" x1="456" x2="479" y1="99.8164" y2="99.8164"/><polygon fill="#A80036" points="475,95.8164,475,99.8164,475,103.8164,479,99.8164" style="stroke:#A80036;stroke-width:1.5;"/><line style="stroke:#A80036;stroke-width:1.5;" x1="552" x2="552" y1="106.2188" y2="116.6211"/><line style="stroke:#A80036;stroke-width:1.5;" x1="552" x2="575" y1="116.6211" y2="116.6211"/><polygon fill="#A80036" points="571,112.6211,571,116.6211,571,120.6211,575,116.6211" style="stroke:#A80036;stroke-width:1.5;"/><line style="stroke:#A80036;stroke-width:1.5;" x1="552" x2="552" y1="106.2188" y2="133.4258"/><line style="stroke:#A80036;stroke-width:1.5;" x1="552" x2="575" y1="133.4258" y2="133.4258"/><polygon fill="#A80036" points="571,129.4258,571,133.4258,571,137.4258,575,133.4258" style="stroke:#A80036;stroke-width:1.5;"/><line style="stroke:#A80036;stroke-width:1.5;" x1="648" x2="648" y1="89.4141" y2="150.2305"/><line style="stroke:#A80036;stroke-width:1.5;" x1="648" x2="671" y1="150.2305" y2="150.2305"/><polygon fill="#A80036" points="667,146.2305,667,150.2305,667,154.2305,671,150.2305" style="stroke:#A80036;stroke-width:1.5;"/><line style="stroke:#A80036;stroke-width:1.5;" x1="792" x2="792" y1="156.6328" y2="167.0352"/><line style="stroke:#A80036;stroke-width:1.5;" x1="792" x2="815" y1="167.0352" y2="167.0352"/><polygon fill="#A80036" points="811,163.0352,811,167.0352,811,171.0352,815,167.0352" style="stroke:#A80036;stroke-width:1.5;"/><line style="stroke:#A80036;stroke-width:1.5;" x1="792" x2="792" y1="156.6328" y2="183.8398"/><line style="stroke:#A80036;stroke-width:1.5;" x1="792" x2="815" y1="183.8398" y2="183.8398"/><polygon fill="#A80036" points="811,179.8398,811,183.8398,811,187.8398,815,183.8398" style="stroke:#A80036;stroke-width:1.5;"/><line style="stroke:#A80036;stroke-width:1.5;" x1="888" x2="888" y1="190.2422" y2="200.6445"/><line style="stroke:#A80036;stroke-width:1.5;" x1="888" x2="911" y1="200.6445" y2="200.6445"/><polygon fill="#A80036" points="907,196.6445,907,200.6445,907,204.6445,911,200.6445" style="stroke:#A80036;stroke-width:1.5;"/><line style="stroke:#A80036;stroke-width:1.5;" x1="648" x2="648" y1="89.4141" y2="217.4492"/><line style="stroke:#A80036;stroke-width:1.5;" x1="648" x2="671" y1="217.4492" y2="217.4492"/><polygon fill="#A80036" points="667,213.4492,667,217.4492,667,221.4492,671,217.4492" style="stroke:#A80036;stroke-width:1.5;"/><rect fill="#FEFECE" height="12.8047" style="stroke:none;stroke-width:1.0;" width="236" x="2" y="43"/><line style="stroke:#A80036;stroke-width:1.0;" x1="2" x2="238" y1="43" y2="43"/><line style="stroke:#A80036;stroke-width:1.0;" x1="2" x2="238" y1="55.8047" y2="55.8047"/><line style="stroke:#A80036;stroke-width:1.0;" x1="2" x2="2" y1="43" y2="55.8047"/><line style="stroke:#A80036;stroke-width:1.0;" x1="238" x2="238" y1="43" y2="55.8047"/><rect fill="#FEFECE" height="12.8047" style="stroke:none;stroke-width:1.0;" width="236" x="242" y="59.8047"/><line style="stroke:#A80036;stroke-width:1.0;" x1="242" x2="478" y1="59.8047" y2="59.8047"/><line style="stroke:#A80036;stroke-width:1.0;" x1="242" x2="478" y1="72.6094" y2="72.6094"/><line style="stroke:#A80036;stroke-width:1.0;" x1="242" x2="242" y1="59.8047" y2="72.6094"/><line style="stroke:#A80036;stroke-width:1.0;" x1="478" x2="478" y1="59.8047" y2="72.6094"/><rect fill="#FEFECE" height="12.8047" style="stroke:none;stroke-width:1.0;" width="188" x="482" y="76.6094"/><line style="stroke:#A80036;stroke-width:1.0;" x1="482" x2="670" y1="76.6094" y2="76.6094"/><line style="stroke:#A80036;stroke-width:1.0;" x1="482" x2="670" y1="89.4141" y2="89.4141"/><line style="stroke:#A80036;stroke-width:1.0;" x1="482" x2="482" y1="76.6094" y2="89.4141"/><line style="stroke:#A80036;stroke-width:1.0;" x1="670" x2="670" y1="76.6094" y2="89.4141"/><rect fill="#FEFECE" height="12.8047" style="stroke:none;stroke-width:1.0;" width="92" x="482" y="93.4141"/><line style="stroke:#A80036;stroke-width:1.0;" x1="482" x2="574" y1="93.4141" y2="93.4141"/><line style="stroke:#A80036;stroke-width:1.0;" x1="482" x2="574" y1="106.2188" y2="106.2188"/><line style="stroke:#A80036;stroke-width:1.0;" x1="482" x2="482" y1="93.4141" y2="106.2188"/><line style="stroke:#A80036;stroke-width:1.0;" x1="574" x2="574" y1="93.4141" y2="106.2188"/><rect fill="#FEFECE" height="12.8047" style="stroke:none;stroke-width:1.0;" width="92" x="578" y="110.2188"/><line style="stroke:#A80036;stroke-width:1.0;" x1="578" x2="670" y1="110.2188" y2="110.2188"/><line style="stroke:#A80036;stroke-width:1.0;" x1="578" x2="670" y1="123.0234" y2="123.0234"/><line style="stroke:#A80036;stroke-width:1.0;" x1="578" x2="578" y1="110.2188" y2="123.0234"/><line style="stroke:#A80036;stroke-width:1.0;" x1="670" x2="670" y1="110.2188" y2="123.0234"/><rect fill="#FEFECE" height="12.8047" style="stroke:none;stroke-width:1.0;" width="92" x="578" y="127.0234"/><line style="stroke:#A80036;stroke-width:1.0;" x1="578" x2="670" y1="127.0234" y2="127.0234"/><line style="stroke:#A80036;stroke-width:1.0;" x1="578" x2="670" y1="139.8281" y2="139.8281"/><line style="stroke:#A80036;stroke-width:1.0;" x1="578" x2="578" y1="127.0234" y2="139.8281"/><line style="stroke:#A80036;stroke-width:1.0;" x1="670" x2="670" y1="127.0234" y2="139.8281"/><rect fill="#FEFECE" height="12.8047" style="stroke:none;stroke-width:1.0;" width="140" x="674" y="143.8281"/><line style="stroke:#A80036;stroke-width:1.0;" x1="674" x2="814" y1="143.8281" y2="143.8281"/><line style="stroke:#A80036;stroke-width:1.0;" x1="674" x2="814" y1="156.6328" y2="156.6328"/><line style="stroke:#A80036;stroke-width:1.0;" x1="674" x2="674" y1="143.8281" y2="156.6328"/><line style="stroke:#A80036;stroke-width:1.0;" x1="814" x2="814" y1="143.8281" y2="156.6328"/><rect fill="#FEFECE" height="12.8047" style="stroke:none;stroke-width:1.0;" width="92" x="818" y="160.6328"/><line style="stroke:#A80036;stroke-width:1.0;" x1="818" x2="910" y1="160.6328" y2="160.6328"/><line style="stroke:#A80036;stroke-width:1.0;" x1="818" x2="910" y1="173.4375" y2="173.4375"/><line style="stroke:#A80036;stroke-width:1.0;" x1="818" x2="818" y1="160.6328" y2="173.4375"/><line style="stroke:#A80036;stroke-width:1.0;" x1="910" x2="910" y1="160.6328" y2="173.4375"/><rect fill="#FEFECE" height="12.8047" style="stroke:none;stroke-width:1.0;" width="92" x="818" y="177.4375"/><line style="stroke:#A80036;stroke-width:1.0;" x1="818" x2="910" y1="177.4375" y2="177.4375"/><line style="stroke:#A80036;stroke-width:1.0;" x1="818" x2="910" y1="190.2422" y2="190.2422"/><line style="stroke:#A80036;stroke-width:1.0;" x1="818" x2="818" y1="177.4375" y2="190.2422"/><line style="stroke:#A80036;stroke-width:1.0;" x1="910" x2="910" y1="177.4375" y2="190.2422"/><rect fill="#FEFECE" height="12.8047" style="stroke:none;stroke-width:1.0;" width="140" x="914" y="194.2422"/><line style="stroke:#A80036;stroke-width:1.0;" x1="914" x2="1054" y1="194.2422" y2="194.2422"/><line style="stroke:#A80036;stroke-width:1.0;" x1="914" x2="1054" y1="207.0469" y2="207.0469"/><line style="stroke:#A80036;stroke-width:1.0;" x1="914" x2="914" y1="194.2422" y2="207.0469"/><line style="stroke:#A80036;stroke-width:1.0;" x1="1054" x2="1054" y1="194.2422" y2="207.0469"/><rect fill="#FEFECE" height="12.8047" style="stroke:none;stroke-width:1.0;" width="140" x="674" y="211.0469"/><line style="stroke:#A80036;stroke-width:1.0;" x1="674" x2="814" y1="211.0469" y2="211.0469"/><line style="stroke:#A80036;stroke-width:1.0;" x1="674" x2="814" y1="223.8516" y2="223.8516"/><line style="stroke:#A80036;stroke-width:1.0;" x1="674" x2="674" y1="211.0469" y2="223.8516"/><line style="stroke:#A80036;stroke-width:1.0;" x1="814" x2="814" y1="211.0469" y2="223.8516"/><text fill="#000000" font-family="sans-serif" font-size="11" lengthAdjust="spacing" textLength="99" x="6" y="53.2104">Mockup Webshop</text><text fill="#000000" font-family="sans-serif" font-size="11" lengthAdjust="spacing" textLength="76" x="246" y="70.0151">Produkt listen</text><text fill="#000000" font-family="sans-serif" font-size="11" lengthAdjust="spacing" textLength="101" x="486" y="86.8198">Bestellung Kunde</text><text fill="#000000" font-family="sans-serif" font-size="11" lengthAdjust="spacing" textLength="75" x="486" y="103.6245">Registrierung</text><text fill="#000000" font-family="sans-serif" font-size="11" lengthAdjust="spacing" textLength="30" x="582" y="120.4292">Login</text><text fill="#000000" font-family="sans-serif" font-size="11" lengthAdjust="spacing" textLength="82" x="582" y="137.2339">Zahlungsarten</text><text fill="#000000" font-family="sans-serif" font-size="11" lengthAdjust="spacing" textLength="131" x="678" y="154.0386">Bestellung Lieferanten</text><text fill="#000000" font-family="sans-serif" font-size="11" lengthAdjust="spacing" textLength="54" x="822" y="170.8433">Lieferung</text><text fill="#000000" font-family="sans-serif" font-size="11" lengthAdjust="spacing" textLength="39" x="822" y="187.6479">Lagern</text><text fill="#000000" font-family="sans-serif" font-size="11" lengthAdjust="spacing" textLength="67" x="918" y="204.4526">Box packen</text><text fill="#000000" font-family="sans-serif" font-size="11" lengthAdjust="spacing" textLength="110" x="678" y="221.2573">Reklamation Kunde</text><text fill="#000000" font-family="Serif" font-size="10" lengthAdjust="spacing" textLength="13" x="17.5" y="247.1338">24</text><text fill="#000000" font-family="Serif" font-size="10" lengthAdjust="spacing" textLength="12" x="66" y="247.1338">25</text><text fill="#000000" font-family="Serif" font-size="10" lengthAdjust="spacing" textLength="13" x="113.5" y="247.1338">26</text><text fill="#000000" font-family="Serif" font-size="10" lengthAdjust="spacing" textLength="13" x="161.5" y="247.1338">27</text><text fill="#000000" font-family="Serif" font-size="10" lengthAdjust="spacing" textLength="13" x="209.5" y="247.1338">28</text><text fill="#000000" font-family="Serif" font-size="10" lengthAdjust="spacing" textLength="13" x="257.5" y="247.1338">29</text><text fill="#000000" font-family="Serif" font-size="10" lengthAdjust="spacing" textLength="14" x="305" y="247.1338">30</text><text fill="#000000" font-family="Serif" font-size="10" lengthAdjust="spacing" textLength="7" x="356.5" y="247.1338">1</text><text fill="#000000" font-family="Serif" font-size="10" lengthAdjust="spacing" textLength="6" x="405" y="247.1338">2</text><text fill="#000000" font-family="Serif" font-size="10" lengthAdjust="spacing" textLength="7" x="452.5" y="247.1338">3</text><text fill="#000000" font-family="Serif" font-size="10" lengthAdjust="spacing" textLength="7" x="500.5" y="247.1338">4</text><text fill="#000000" font-family="Serif" font-size="10" lengthAdjust="spacing" textLength="6" x="549" y="247.1338">5</text><text fill="#000000" font-family="Serif" font-size="10" lengthAdjust="spacing" textLength="7" x="596.5" y="247.1338">6</text><text fill="#000000" font-family="Serif" font-size="10" lengthAdjust="spacing" textLength="7" x="644.5" y="247.1338">7</text><text fill="#000000" font-family="Serif" font-size="10" lengthAdjust="spacing" textLength="7" x="692.5" y="247.1338">8</text><text fill="#000000" font-family="Serif" font-size="10" lengthAdjust="spacing" textLength="7" x="740.5" y="247.1338">9</text><text fill="#000000" font-family="Serif" font-size="10" lengthAdjust="spacing" textLength="14" x="785" y="247.1338">10</text><text fill="#000000" font-family="Serif" font-size="10" lengthAdjust="spacing" textLength="14" x="833" y="247.1338">11</text><text fill="#000000" font-family="Serif" font-size="10" lengthAdjust="spacing" textLength="13" x="881.5" y="247.1338">12</text><text fill="#000000" font-family="Serif" font-size="10" lengthAdjust="spacing" textLength="14" x="929" y="247.1338">13</text><text fill="#000000" font-family="Serif" font-size="10" lengthAdjust="spacing" textLength="14" x="977" y="247.1338">14</text><text fill="#000000" font-family="Serif" font-size="10" lengthAdjust="spacing" textLength="13" x="1025.5" y="247.1338">15</text><text fill="#000000" font-family="Serif" font-size="10" lengthAdjust="spacing" textLength="13" x="17.5" y="235.1338">Mi</text><text fill="#000000" font-family="Serif" font-size="10" lengthAdjust="spacing" textLength="15" x="64.5" y="235.1338">Do</text><text fill="#000000" font-family="Serif" font-size="10" lengthAdjust="spacing" textLength="12" x="114" y="235.1338">Fr</text><text fill="#000000" font-family="Serif" font-size="10" lengthAdjust="spacing" textLength="13" x="161.5" y="235.1338">Sa</text><text fill="#000000" font-family="Serif" font-size="10" lengthAdjust="spacing" textLength="13" x="209.5" y="235.1338">So</text><text fill="#000000" font-family="Serif" font-size="10" lengthAdjust="spacing" textLength="16" x="256" y="235.1338">Mo</text><text fill="#000000" font-family="Serif" font-size="10" lengthAdjust="spacing" textLength="12" x="306" y="235.1338">Di</text><text fill="#000000" font-family="Serif" font-size="10" lengthAdjust="spacing" textLength="13" x="353.5" y="235.1338">Mi</text><text fill="#000000" font-family="Serif" font-size="10" lengthAdjust="spacing" textLength="15" x="400.5" y="235.1338">Do</text><text fill="#000000" font-family="Serif" font-size="10" lengthAdjust="spacing" textLength="12" x="450" y="235.1338">Fr</text><text fill="#000000" font-family="Serif" font-size="10" lengthAdjust="spacing" textLength="13" x="497.5" y="235.1338">Sa</text><text fill="#000000" font-family="Serif" font-size="10" lengthAdjust="spacing" textLength="13" x="545.5" y="235.1338">So</text><text fill="#000000" font-family="Serif" font-size="10" lengthAdjust="spacing" textLength="16" x="592" y="235.1338">Mo</text><text fill="#000000" font-family="Serif" font-size="10" lengthAdjust="spacing" textLength="12" x="642" y="235.1338">Di</text><text fill="#000000" font-family="Serif" font-size="10" lengthAdjust="spacing" textLength="13" x="689.5" y="235.1338">Mi</text><text fill="#000000" font-family="Serif" font-size="10" lengthAdjust="spacing" textLength="15" x="736.5" y="235.1338">Do</text><text fill="#000000" font-family="Serif" font-size="10" lengthAdjust="spacing" textLength="12" x="786" y="235.1338">Fr</text><text fill="#000000" font-family="Serif" font-size="10" lengthAdjust="spacing" textLength="13" x="833.5" y="235.1338">Sa</text><text fill="#000000" font-family="Serif" font-size="10" lengthAdjust="spacing" textLength="13" x="881.5" y="235.1338">So</text><text fill="#000000" font-family="Serif" font-size="10" lengthAdjust="spacing" textLength="16" x="928" y="235.1338">Mo</text><text fill="#000000" font-family="Serif" font-size="10" lengthAdjust="spacing" textLength="12" x="978" y="235.1338">Di</text><text fill="#000000" font-family="Serif" font-size="10" lengthAdjust="spacing" textLength="13" x="1025.5" y="235.1338">Mi</text><text fill="#000000" font-family="Serif" font-size="12" font-weight="bold" lengthAdjust="spacing" textLength="110" x="113" y="261.1191">November 2021</text><text fill="#000000" font-family="Serif" font-size="12" font-weight="bold" lengthAdjust="spacing" textLength="107" x="642.5" y="261.1191">Dezember 2021</text><!--MD5=[79b38ae241dcf0df8bdd3cd541ab2f27]
@startgantt Projektplan
language de
printscale daily zoom 3
Project starts 2021-11-24
[Mockup Webshop] starts 2021-11-24
[Mockup Webshop] ends 2021-11-28
[Produkt listen] starts at [Mockup Webshop]'s end and ends 2021-12-3
[Bestellung Kunde] starts at [Produkt listen]'s end and ends 2021-12-7
[Registrierung] starts at [Produkt listen]'s end and ends at 2021-12-5
[Login] starts at [Registrierung]'s end and ends at 2021-12-7
[Zahlungsarten] starts at [Registrierung]'s end and ends at 2021-12-7
[Bestellung Lieferanten] starts at [Bestellung Kunde]'s end and ends at 2021-12-10 
[Lieferung] starts at [Bestellung Lieferanten]'s end and ends 2021-12-12
[Lagern] starts at [Bestellung Lieferanten]'s end and ends 2021-12-12
[Box packen] starts at [Lagern]'s end and ends 2021-12-15
[Reklamation Kunde] starts at [Bestellung Kunde]'s end and ends at 2021-12-10
@endgantt

PlantUML version 1.2021.15beta6(Unknown compile time)
(GPL source distribution)
Java Runtime: Java(TM) SE Runtime Environment
JVM: Java HotSpot(TM) 64-Bit Server VM
Default Encoding: UTF-8
Language: en
Country: US
--></g></svg>