<?xml version="1.0" encoding="UTF-8" standalone="no"?><svg xmlns="http://www.w3.org/2000/svg" xmlns:xlink="http://www.w3.org/1999/xlink" contentScriptType="application/ecmascript" contentStyleType="text/css" height="446px" preserveAspectRatio="none" style="width:352px;height:446px;background:#FFFFFF;" version="1.1" viewBox="0 0 352 446" width="352px" zoomAndPan="magnify"><defs><filter height="300%" id="f170soei392mls" width="300%" x="-1" y="-1"><feGaussianBlur result="blurOut" stdDeviation="2.0"/><feColorMatrix in="blurOut" result="blurOut2" type="matrix" values="0 0 0 0 0 0 0 0 0 0 0 0 0 0 0 0 0 0 .4 0"/><feOffset dx="4.0" dy="4.0" in="blurOut2" result="blurOut3"/><feBlend in="SourceGraphic" in2="blurOut3" mode="normal"/></filter></defs><g><!--MD5=[8221f441efb746fc84627c31e7ee6d26]
class Abobox--><rect codeLine="1" fill="#FEFECE" filter="url(#f170soei392mls)" height="60.8047" id="Abobox" style="stroke:#A80036;stroke-width:1.5;" width="130" x="89.5" y="7"/><ellipse cx="127.45" cy="23" fill="#ADD1B2" rx="11" ry="11" style="stroke:#A80036;stroke-width:1.0;"/><path d="M129.7938,18.6719 C128.8563,18.2344 128.2625,18.0938 127.3875,18.0938 C124.7625,18.0938 122.7625,20.1719 122.7625,22.8906 L122.7625,24.0156 C122.7625,26.5938 124.8719,28.4844 127.7625,28.4844 C128.9813,28.4844 130.1375,28.1875 130.8875,27.6406 C131.4656,27.2344 131.7938,26.7813 131.7938,26.3906 C131.7938,25.9375 131.4031,25.5469 130.9344,25.5469 C130.7156,25.5469 130.5125,25.625 130.325,25.8125 C129.8719,26.2969 129.8719,26.2969 129.6844,26.3906 C129.2625,26.6563 128.575,26.7813 127.8094,26.7813 C125.7625,26.7813 124.4656,25.6875 124.4656,23.9844 L124.4656,22.8906 C124.4656,21.1094 125.7156,19.7969 127.45,19.7969 C128.0281,19.7969 128.6375,19.9531 129.1063,20.2031 C129.5906,20.4844 129.7625,20.7031 129.8563,21.1094 C129.9188,21.5156 129.95,21.6406 130.0906,21.7656 C130.2313,21.9063 130.4656,22.0156 130.6844,22.0156 C130.95,22.0156 131.2156,21.875 131.3875,21.6563 C131.4969,21.5 131.5281,21.3125 131.5281,20.8906 L131.5281,19.4688 C131.5281,19.0313 131.5125,18.9063 131.4188,18.75 C131.2625,18.4844 130.9813,18.3438 130.6844,18.3438 C130.3875,18.3438 130.1844,18.4375 129.9656,18.75 L129.7938,18.6719 Z " fill="#000000"/><text fill="#000000" font-family="sans-serif" font-size="12" lengthAdjust="spacing" textLength="47" x="146.55" y="27.1543">Abobox</text><line style="stroke:#A80036;stroke-width:1.5;" x1="90.5" x2="218.5" y1="39" y2="39"/><text fill="#000000" font-family="sans-serif" font-size="11" lengthAdjust="spacing" textLength="118" x="95.5" y="53.2104">p : orderedProdukt[*]</text><line style="stroke:#A80036;stroke-width:1.5;" x1="90.5" x2="218.5" y1="59.8047" y2="59.8047"/><!--MD5=[4ada9fa634ed74b3eca49d9592533948]
class orderedProdukt--><rect codeLine="6" fill="#FEFECE" filter="url(#f170soei392mls)" height="86.4141" id="orderedProdukt" style="stroke:#A80036;stroke-width:1.5;" width="148" x="80.5" y="145"/><ellipse cx="104.95" cy="161" fill="#ADD1B2" rx="11" ry="11" style="stroke:#A80036;stroke-width:1.0;"/><path d="M107.2938,156.6719 C106.3563,156.2344 105.7625,156.0938 104.8875,156.0938 C102.2625,156.0938 100.2625,158.1719 100.2625,160.8906 L100.2625,162.0156 C100.2625,164.5938 102.3719,166.4844 105.2625,166.4844 C106.4813,166.4844 107.6375,166.1875 108.3875,165.6406 C108.9656,165.2344 109.2938,164.7813 109.2938,164.3906 C109.2938,163.9375 108.9031,163.5469 108.4344,163.5469 C108.2156,163.5469 108.0125,163.625 107.825,163.8125 C107.3719,164.2969 107.3719,164.2969 107.1844,164.3906 C106.7625,164.6563 106.075,164.7813 105.3094,164.7813 C103.2625,164.7813 101.9656,163.6875 101.9656,161.9844 L101.9656,160.8906 C101.9656,159.1094 103.2156,157.7969 104.95,157.7969 C105.5281,157.7969 106.1375,157.9531 106.6063,158.2031 C107.0906,158.4844 107.2625,158.7031 107.3563,159.1094 C107.4188,159.5156 107.45,159.6406 107.5906,159.7656 C107.7313,159.9063 107.9656,160.0156 108.1844,160.0156 C108.45,160.0156 108.7156,159.875 108.8875,159.6563 C108.9969,159.5 109.0281,159.3125 109.0281,158.8906 L109.0281,157.4688 C109.0281,157.0313 109.0125,156.9063 108.9188,156.75 C108.7625,156.4844 108.4813,156.3438 108.1844,156.3438 C107.8875,156.3438 107.6844,156.4375 107.4656,156.75 L107.2938,156.6719 Z " fill="#000000"/><text fill="#000000" font-family="sans-serif" font-size="12" lengthAdjust="spacing" textLength="95" x="121.05" y="165.1543">orderedProdukt</text><line style="stroke:#A80036;stroke-width:1.5;" x1="81.5" x2="227.5" y1="177" y2="177"/><text fill="#000000" font-family="sans-serif" font-size="11" lengthAdjust="spacing" textLength="94" x="86.5" y="191.2104">produkt : Produkt</text><text fill="#000000" font-family="sans-serif" font-size="11" lengthAdjust="spacing" textLength="66" x="86.5" y="204.0151">menge : int</text><text fill="#000000" font-family="sans-serif" font-size="11" lengthAdjust="spacing" textLength="136" x="86.5" y="216.8198">intervall : Lieferintervall</text><line style="stroke:#A80036;stroke-width:1.5;" x1="81.5" x2="227.5" y1="223.4141" y2="223.4141"/><!--MD5=[de72316ce714267ed4a8b16a6d027f69]
class Lieferintervall--><rect codeLine="12" fill="#FEFECE" filter="url(#f170soei392mls)" height="124.8281" id="Lieferintervall" style="stroke:#A80036;stroke-width:1.5;" width="113" x="7" y="308"/><ellipse cx="22" cy="324" fill="#EB937F" rx="11" ry="11" style="stroke:#A80036;stroke-width:1.0;"/><path d="M20.7969,324.875 L22.25,324.875 L22.25,324.9844 C22.25,325.3906 22.2813,325.5469 22.3594,325.7031 C22.5156,325.9531 22.7969,326.1094 23.0938,326.1094 C23.3438,326.1094 23.6094,325.9688 23.7656,325.75 C23.8906,325.5938 23.9219,325.4375 23.9219,324.9844 L23.9219,323.0625 C23.9219,322.9063 23.9219,322.8594 23.9063,322.7031 C23.8438,322.2344 23.5313,321.9219 23.0781,321.9219 C22.8281,321.9219 22.5625,322.0625 22.3906,322.2813 C22.2813,322.4531 22.25,322.6094 22.25,323.0625 L22.25,323.1875 L20.7969,323.1875 L20.7969,320.7813 L24.7813,320.7813 L24.7813,321.6406 C24.7813,322.0469 24.8125,322.2188 24.8906,322.375 C25.0625,322.625 25.3438,322.7813 25.625,322.7813 C25.8906,322.7813 26.1563,322.6406 26.3281,322.4219 C26.4375,322.25 26.4688,322.1094 26.4688,321.6406 L26.4688,319.0938 L18.8438,319.0938 C18.4063,319.0938 18.2813,319.1094 18.125,319.2031 C17.875,319.3594 17.7188,319.6563 17.7188,319.9375 C17.7188,320.2188 17.8594,320.4688 18.0781,320.6406 C18.2344,320.75 18.4219,320.7813 18.8438,320.7813 L19.0938,320.7813 L19.0938,327.2969 L18.8438,327.2969 C18.4375,327.2969 18.2813,327.3125 18.125,327.4219 C17.875,327.5938 17.7188,327.8594 17.7188,328.1563 C17.7188,328.4219 17.8594,328.6719 18.0781,328.8281 C18.2188,328.9531 18.4531,329 18.8438,329 L26.8438,329 L26.8438,326.4219 C26.8438,325.9844 26.8125,325.8438 26.7344,325.6875 C26.5625,325.4375 26.2813,325.2813 26,325.2813 C25.7344,325.2813 25.4688,325.3906 25.2969,325.6406 C25.1875,325.7969 25.1563,325.9375 25.1563,326.4219 L25.1563,327.2969 L20.7969,327.2969 L20.7969,324.875 Z " fill="#000000"/><text fill="#000000" font-family="sans-serif" font-size="12" lengthAdjust="spacing" textLength="81" x="36" y="328.1543">Lieferintervall</text><line style="stroke:#A80036;stroke-width:1.5;" x1="8" x2="119" y1="340" y2="340"/><text fill="#000000" font-family="sans-serif" font-size="11" lengthAdjust="spacing" textLength="7" x="13" y="354.2104">1</text><text fill="#000000" font-family="sans-serif" font-size="11" lengthAdjust="spacing" textLength="7" x="13" y="367.0151">2</text><text fill="#000000" font-family="sans-serif" font-size="11" lengthAdjust="spacing" textLength="7" x="13" y="379.8198">3</text><text fill="#000000" font-family="sans-serif" font-size="11" lengthAdjust="spacing" textLength="7" x="13" y="392.6245">4</text><text fill="#000000" font-family="sans-serif" font-size="11" lengthAdjust="spacing" textLength="7" x="13" y="405.4292">5</text><text fill="#000000" font-family="sans-serif" font-size="11" lengthAdjust="spacing" textLength="7" x="13" y="418.2339">6</text><line style="stroke:#A80036;stroke-width:1.5;" x1="8" x2="119" y1="424.8281" y2="424.8281"/><!--MD5=[a95e7f665f948d831c16659167a5f089]
class Produkt--><rect codeLine="21" fill="#FEFECE" filter="url(#f170soei392mls)" height="112.0234" id="Produkt" style="stroke:#A80036;stroke-width:1.5;" width="183" x="155" y="314.5"/><ellipse cx="219.75" cy="330.5" fill="#ADD1B2" rx="11" ry="11" style="stroke:#A80036;stroke-width:1.0;"/><path d="M222.0938,326.1719 C221.1563,325.7344 220.5625,325.5938 219.6875,325.5938 C217.0625,325.5938 215.0625,327.6719 215.0625,330.3906 L215.0625,331.5156 C215.0625,334.0938 217.1719,335.9844 220.0625,335.9844 C221.2813,335.9844 222.4375,335.6875 223.1875,335.1406 C223.7656,334.7344 224.0938,334.2813 224.0938,333.8906 C224.0938,333.4375 223.7031,333.0469 223.2344,333.0469 C223.0156,333.0469 222.8125,333.125 222.625,333.3125 C222.1719,333.7969 222.1719,333.7969 221.9844,333.8906 C221.5625,334.1563 220.875,334.2813 220.1094,334.2813 C218.0625,334.2813 216.7656,333.1875 216.7656,331.4844 L216.7656,330.3906 C216.7656,328.6094 218.0156,327.2969 219.75,327.2969 C220.3281,327.2969 220.9375,327.4531 221.4063,327.7031 C221.8906,327.9844 222.0625,328.2031 222.1563,328.6094 C222.2188,329.0156 222.25,329.1406 222.3906,329.2656 C222.5313,329.4063 222.7656,329.5156 222.9844,329.5156 C223.25,329.5156 223.5156,329.375 223.6875,329.1563 C223.7969,329 223.8281,328.8125 223.8281,328.3906 L223.8281,326.9688 C223.8281,326.5313 223.8125,326.4063 223.7188,326.25 C223.5625,325.9844 223.2813,325.8438 222.9844,325.8438 C222.6875,325.8438 222.4844,325.9375 222.2656,326.25 L222.0938,326.1719 Z " fill="#000000"/><text fill="#000000" font-family="sans-serif" font-size="12" lengthAdjust="spacing" textLength="45" x="240.25" y="334.6543">Produkt</text><line style="stroke:#A80036;stroke-width:1.5;" x1="156" x2="337" y1="346.5" y2="346.5"/><text fill="#000000" font-family="sans-serif" font-size="11" lengthAdjust="spacing" textLength="143" x="161" y="360.7104">PB : Produktbeschreibung</text><text fill="#000000" font-family="sans-serif" font-size="11" lengthAdjust="spacing" textLength="171" x="161" y="373.5151">TI : Transparenzinformationen</text><text fill="#000000" font-family="sans-serif" font-size="11" lengthAdjust="spacing" textLength="98" x="161" y="386.3198">VT : Verwendung</text><text fill="#000000" font-family="sans-serif" font-size="11" lengthAdjust="spacing" textLength="47" x="161" y="399.1245">G : Preis</text><text fill="#000000" font-family="sans-serif" font-size="11" lengthAdjust="spacing" textLength="118" x="161" y="411.9292">V : Verfuegbarkeit[*]</text><line style="stroke:#A80036;stroke-width:1.5;" x1="156" x2="337" y1="418.5234" y2="418.5234"/><!--MD5=[7cad80ba0cde2167f8acf729e27793b3]
reverse link Abobox to orderedProdukt--><path codeLine="29" d="M154.5,81.354 C154.5,101.357 154.5,125.085 154.5,144.982 " fill="none" id="Abobox-backto-orderedProdukt" style="stroke:#A80036;stroke-width:1.0;"/><polygon fill="#FFFFFF" points="154.5,68.194,150.5,74.194,154.5,80.194,158.5,74.194,154.5,68.194" style="stroke:#A80036;stroke-width:1.0;"/><polygon fill="#000000" points="159.5,111.5664,162.4389,102.5213,156.5611,102.5213,159.5,111.5664" style="stroke:#000000;stroke-width:1.0;"/><text fill="#000000" font-family="sans-serif" font-size="13" lengthAdjust="spacing" textLength="64" x="168.5" y="111.0669">beinhaltet</text><!--MD5=[972e7d67759c83c7b72e7f4153275a37]
reverse link orderedProdukt to Lieferintervall--><path codeLine="30" d="M127.288,242.976 C116.977,263.427 105.164,286.859 94.5283,307.955 " fill="none" id="orderedProdukt-backto-Lieferintervall" style="stroke:#A80036;stroke-width:1.0;"/><polygon fill="#FFFFFF" points="133.165,231.319,126.8921,234.8758,127.7626,242.0341,134.0355,238.4774,133.165,231.319" style="stroke:#A80036;stroke-width:1.0;"/><polygon fill="#000000" points="124.7509,265.1017,118.0547,271.8554,123.3033,274.5015,124.7509,265.1017" style="stroke:#000000;stroke-width:1.0;"/><text fill="#000000" font-family="sans-serif" font-size="13" lengthAdjust="spacing" textLength="62" x="131.5" y="274.0669">bestimmt</text><!--MD5=[4ff998ca1826b53872a2146851316756]
reverse link orderedProdukt to Produkt--><path codeLine="31" d="M191.668,242.181 C195.51,248.416 199.207,254.775 202.5,261 C211.436,277.889 219.741,297.004 226.675,314.433 " fill="none" id="orderedProdukt-backto-Produkt" style="stroke:#A80036;stroke-width:1.0;"/><polygon fill="#FFFFFF" points="184.652,231.146,184.4955,238.3554,191.0902,241.2727,191.2466,234.0633,184.652,231.146" style="stroke:#A80036;stroke-width:1.0;"/><polygon fill="#000000" points="212.3199,265.0667,213.6189,274.4882,218.9086,271.9253,212.3199,265.0667" style="stroke:#000000;stroke-width:1.0;"/><text fill="#000000" font-family="sans-serif" font-size="13" lengthAdjust="spacing" textLength="53" x="223.5" y="274.0669">definiert</text><!--MD5=[8780f9058baabd181c260b08bf74b7a1]
@startuml
class Abobox {
    p : orderedProdukt[*]

}

class orderedProdukt {
    produkt : Produkt
    menge : int
    intervall : Lieferintervall
}

enum Lieferintervall {
    1
    2
    3
    4
    5
    6
}

class Produkt {
    PB : Produktbeschreibung
    TI : Transparenzinformationen
    VT : Verwendung
    G : Preis
    V : Verfuegbarkeit[*]
}

Abobox o- - orderedProdukt : beinhaltet >
orderedProdukt o- - Lieferintervall : bestimmt <
orderedProdukt o- - Produkt : definiert <
@enduml

PlantUML version 1.2021.15beta6(Unknown compile time)
(GPL source distribution)
Java Runtime: Java(TM) SE Runtime Environment
JVM: Java HotSpot(TM) 64-Bit Server VM
Default Encoding: UTF-8
Language: en
Country: US
--></g></svg>