<?xml version="1.0" encoding="UTF-8" standalone="no"?><svg xmlns="http://www.w3.org/2000/svg" xmlns:xlink="http://www.w3.org/1999/xlink" contentScriptType="application/ecmascript" contentStyleType="text/css" height="1189px" preserveAspectRatio="none" style="width:473px;height:1189px;background:#FFFFFF;" version="1.1" viewBox="0 0 473 1189" width="473px" zoomAndPan="magnify"><defs><filter height="300%" id="fx8ngvhjxf54" width="300%" x="-1" y="-1"><feGaussianBlur result="blurOut" stdDeviation="2.0"/><feColorMatrix in="blurOut" result="blurOut2" type="matrix" values="0 0 0 0 0 0 0 0 0 0 0 0 0 0 0 0 0 0 .4 0"/><feOffset dx="4.0" dy="4.0" in="blurOut2" result="blurOut3"/><feBlend in="SourceGraphic" in2="blurOut3" mode="normal"/></filter></defs><g><ellipse cx="254" cy="20" fill="#000000" filter="url(#fx8ngvhjxf54)" rx="10" ry="10" style="stroke:none;stroke-width:1.0;"/><rect fill="#FEFECE" filter="url(#fx8ngvhjxf54)" height="33.9688" rx="12.5" ry="12.5" style="stroke:#A80036;stroke-width:1.5;" width="179" x="164.5" y="50"/><text fill="#000000" font-family="sans-serif" font-size="12" lengthAdjust="spacing" textLength="159" x="174.5" y="71.1387">Bestellstatus = inProgress</text><rect fill="#FEFECE" filter="url(#fx8ngvhjxf54)" height="33.9688" rx="12.5" ry="12.5" style="stroke:#A80036;stroke-width:1.5;" width="164" x="172" y="215.3896"/><text fill="#000000" font-family="sans-serif" font-size="12" lengthAdjust="spacing" textLength="144" x="182" y="236.5283">Nutzer wählt Menge aus</text><rect fill="#FEFECE" filter="url(#fx8ngvhjxf54)" height="33.9688" rx="12.5" ry="12.5" style="stroke:#A80036;stroke-width:1.5;" width="204" x="152" y="269.3584"/><text fill="#000000" font-family="sans-serif" font-size="12" lengthAdjust="spacing" textLength="184" x="162" y="290.4971">Nutzer wählt Lieferintervall aus</text><rect fill="#FEFECE" filter="url(#fx8ngvhjxf54)" height="33.9688" rx="12.5" ry="12.5" style="stroke:#A80036;stroke-width:1.5;" width="220" x="144" y="323.3271"/><text fill="#000000" font-family="sans-serif" font-size="12" lengthAdjust="spacing" textLength="200" x="154" y="344.4658">Produkt wird Abobox hinzugefügt</text><polygon fill="#FEFECE" filter="url(#fx8ngvhjxf54)" points="218,159.6792,290,159.6792,302,171.6792,290,183.6792,218,183.6792,206,171.6792,218,159.6792" style="stroke:#A80036;stroke-width:1.5;"/><text fill="#000000" font-family="sans-serif" font-size="11" lengthAdjust="spacing" textLength="95" x="258" y="193.8896">wählt Produk aus</text><text fill="#000000" font-family="sans-serif" font-size="11" lengthAdjust="spacing" textLength="72" x="218" y="175.4873">Nutzeraktion</text><text fill="#000000" font-family="sans-serif" font-size="11" lengthAdjust="spacing" textLength="196" x="10" y="169.085">Nutzer möchte Produkte bestellen</text><polygon fill="#FEFECE" filter="url(#fx8ngvhjxf54)" points="194,447.6982,314,447.6982,326,459.6982,314,471.6982,194,471.6982,182,459.6982,194,447.6982" style="stroke:#A80036;stroke-width:1.5;"/><text fill="#000000" font-family="sans-serif" font-size="11" lengthAdjust="spacing" textLength="120" x="194" y="463.5063">Nutzer ist registriert?</text><text fill="#000000" font-family="sans-serif" font-size="11" lengthAdjust="spacing" textLength="10" x="172" y="457.104">Ja</text><text fill="#000000" font-family="sans-serif" font-size="11" lengthAdjust="spacing" textLength="26" x="326" y="457.104">Nein</text><rect fill="#FEFECE" filter="url(#fx8ngvhjxf54)" height="33.9688" rx="12.5" ry="12.5" style="stroke:#A80036;stroke-width:1.5;" width="123" x="110.5" y="481.6982"/><text fill="#000000" font-family="sans-serif" font-size="12" lengthAdjust="spacing" textLength="103" x="120.5" y="502.8369">Nutzer einloggen</text><rect fill="#FEFECE" filter="url(#fx8ngvhjxf54)" height="33.9688" rx="12.5" ry="12.5" style="stroke:#A80036;stroke-width:1.5;" width="134" x="269" y="481.6982"/><text fill="#000000" font-family="sans-serif" font-size="12" lengthAdjust="spacing" textLength="114" x="279" y="502.8369">Nutzer registrieren</text><rect fill="#FEFECE" filter="url(#fx8ngvhjxf54)" height="33.9688" rx="12.5" ry="12.5" style="stroke:#A80036;stroke-width:1.5;" width="123" x="274.5" y="550.667"/><text fill="#000000" font-family="sans-serif" font-size="12" lengthAdjust="spacing" textLength="103" x="284.5" y="571.8057">Nutzer einloggen</text><polygon fill="#FEFECE" filter="url(#fx8ngvhjxf54)" points="254,590.6357,266,602.6357,254,614.6357,242,602.6357,254,590.6357" style="stroke:#A80036;stroke-width:1.5;"/><polygon fill="#FEFECE" filter="url(#fx8ngvhjxf54)" points="191,399.2959,317,399.2959,329,411.2959,317,423.2959,191,423.2959,179,411.2959,191,399.2959" style="stroke:#A80036;stroke-width:1.5;"/><text fill="#000000" font-family="sans-serif" font-size="11" lengthAdjust="spacing" textLength="26" x="258" y="433.5063">Nein</text><text fill="#000000" font-family="sans-serif" font-size="11" lengthAdjust="spacing" textLength="126" x="191" y="415.104">Nutzer ist eingeloggt?</text><text fill="#000000" font-family="sans-serif" font-size="11" lengthAdjust="spacing" textLength="10" x="329" y="408.7017">Ja</text><polygon fill="#FEFECE" filter="url(#fx8ngvhjxf54)" points="254,634.6357,266,646.6357,254,658.6357,242,646.6357,254,634.6357" style="stroke:#A80036;stroke-width:1.5;"/><polygon fill="#FEFECE" filter="url(#fx8ngvhjxf54)" points="199,734.3462,309,734.3462,321,746.3462,309,758.3462,199,758.3462,187,746.3462,199,734.3462" style="stroke:#A80036;stroke-width:1.5;"/><text fill="#000000" font-family="sans-serif" font-size="11" lengthAdjust="spacing" textLength="110" x="199" y="750.1543">Bestellung korrekt?</text><text fill="#000000" font-family="sans-serif" font-size="11" lengthAdjust="spacing" textLength="26" x="161" y="743.752">Nein</text><text fill="#000000" font-family="sans-serif" font-size="11" lengthAdjust="spacing" textLength="10" x="321" y="743.752">Ja</text><rect fill="#FEFECE" filter="url(#fx8ngvhjxf54)" height="33.9688" rx="12.5" ry="12.5" style="stroke:#A80036;stroke-width:1.5;" width="129" x="112.25" y="768.3462"/><text fill="#000000" font-family="sans-serif" font-size="12" lengthAdjust="spacing" textLength="109" x="122.25" y="789.4849">Bestellung ändern</text><rect fill="#FEFECE" filter="url(#fx8ngvhjxf54)" height="33.9688" rx="12.5" ry="12.5" style="stroke:#A80036;stroke-width:1.5;" width="140" x="261.25" y="768.3462"/><text fill="#000000" font-family="sans-serif" font-size="12" lengthAdjust="spacing" textLength="120" x="271.25" y="789.4849">Bestätigt Bestellung</text><polygon fill="#FEFECE" filter="url(#fx8ngvhjxf54)" points="254,808.3149,266,820.3149,254,832.3149,242,820.3149,254,808.3149" style="stroke:#A80036;stroke-width:1.5;"/><polygon fill="#FEFECE" filter="url(#fx8ngvhjxf54)" points="187.5,678.6357,320.5,678.6357,332.5,690.6357,320.5,702.6357,187.5,702.6357,175.5,690.6357,187.5,678.6357" style="stroke:#A80036;stroke-width:1.5;"/><text fill="#000000" font-family="sans-serif" font-size="11" lengthAdjust="spacing" textLength="26" x="258" y="712.8462">prüft</text><text fill="#000000" font-family="sans-serif" font-size="11" lengthAdjust="spacing" textLength="133" x="187.5" y="694.4438">Nutzer prüft Bestellung</text><text fill="#000000" font-family="sans-serif" font-size="11" lengthAdjust="spacing" textLength="51" x="124.5" y="688.0415">Bestätigt</text><rect fill="#FEFECE" filter="url(#fx8ngvhjxf54)" height="33.9688" rx="12.5" ry="12.5" style="stroke:#A80036;stroke-width:1.5;" width="180" x="164" y="922.7173"/><text fill="#000000" font-family="sans-serif" font-size="12" lengthAdjust="spacing" textLength="160" x="174" y="943.856">Bestellstatus = completed</text><polygon fill="#FEFECE" filter="url(#fx8ngvhjxf54)" points="102.5,874.3149,405.5,874.3149,417.5,886.3149,405.5,898.3149,102.5,898.3149,90.5,886.3149,102.5,874.3149" style="stroke:#A80036;stroke-width:1.5;"/><text fill="#000000" font-family="sans-serif" font-size="11" lengthAdjust="spacing" textLength="26" x="258" y="908.5254">Nein</text><text fill="#000000" font-family="sans-serif" font-size="11" lengthAdjust="spacing" textLength="303" x="102.5" y="890.123">Weniger als 5 Artikel in Abobox für Minimalzeitraum?</text><text fill="#000000" font-family="sans-serif" font-size="11" lengthAdjust="spacing" textLength="10" x="417.5" y="883.7207">Ja</text><polygon fill="#FEFECE" filter="url(#fx8ngvhjxf54)" points="254,976.686,266,988.686,254,1000.686,242,988.686,254,976.686" style="stroke:#A80036;stroke-width:1.5;"/><polygon fill="#FEFECE" filter="url(#fx8ngvhjxf54)" points="98.5,103.9688,409.5,103.9688,421.5,115.9688,409.5,127.9688,98.5,127.9688,86.5,115.9688,98.5,103.9688" style="stroke:#A80036;stroke-width:1.5;"/><text fill="#000000" font-family="sans-serif" font-size="11" lengthAdjust="spacing" textLength="23" x="258" y="138.1792">true</text><text fill="#000000" font-family="sans-serif" font-size="11" lengthAdjust="spacing" textLength="311" x="98.5" y="119.7769">Bestellstatus = inProgress oder Nutzer bricht nicht ab?</text><text fill="#000000" font-family="sans-serif" font-size="11" lengthAdjust="spacing" textLength="28" x="58.5" y="113.3745">false</text><rect fill="#FEFECE" filter="url(#fx8ngvhjxf54)" height="33.9688" rx="12.5" ry="12.5" style="stroke:#A80036;stroke-width:1.5;" width="191" x="158.5" y="1042.686"/><text fill="#000000" font-family="sans-serif" font-size="12" lengthAdjust="spacing" textLength="171" x="168.5" y="1063.8247">Bestellbestätigung anzeigen</text><rect fill="#FEFECE" filter="url(#fx8ngvhjxf54)" height="33.9688" rx="12.5" ry="12.5" style="stroke:#A80036;stroke-width:1.5;" width="179" x="164.5" y="1096.6548"/><text fill="#000000" font-family="sans-serif" font-size="12" lengthAdjust="spacing" textLength="159" x="174.5" y="1117.7935">Bestätigungsemail senden</text><ellipse cx="254" cy="1161.6235" fill="#FFFFFF" filter="url(#fx8ngvhjxf54)" rx="11" ry="11" style="stroke:#000000;stroke-width:1.0;"/><ellipse cx="254" cy="1161.6235" fill="#000000" rx="6" ry="6" style="stroke:#7F7F7F;stroke-width:1.0;"/><line style="stroke:#A80036;stroke-width:1.5;" x1="254" x2="254" y1="30" y2="50"/><polygon fill="#A80036" points="250,40,254,50,258,40,254,44" style="stroke:#A80036;stroke-width:1.0;"/><line style="stroke:#A80036;stroke-width:1.5;" x1="254" x2="254" y1="249.3584" y2="269.3584"/><polygon fill="#A80036" points="250,259.3584,254,269.3584,258,259.3584,254,263.3584" style="stroke:#A80036;stroke-width:1.0;"/><line style="stroke:#A80036;stroke-width:1.5;" x1="254" x2="254" y1="303.3271" y2="323.3271"/><polygon fill="#A80036" points="250,313.3271,254,323.3271,258,313.3271,254,317.3271" style="stroke:#A80036;stroke-width:1.0;"/><line style="stroke:#A80036;stroke-width:1.5;" x1="254" x2="254" y1="183.6792" y2="215.3896"/><polygon fill="#A80036" points="250,205.3896,254,215.3896,258,205.3896,254,209.3896" style="stroke:#A80036;stroke-width:1.0;"/><line style="stroke:#A80036;stroke-width:1.5;" x1="254" x2="254" y1="357.2959" y2="367.2959"/><line style="stroke:#A80036;stroke-width:1.5;" x1="254" x2="376" y1="367.2959" y2="367.2959"/><polygon fill="#A80036" points="372,277.9404,376,267.9404,380,277.9404,376,273.9404" style="stroke:#A80036;stroke-width:1.5;"/><line style="stroke:#A80036;stroke-width:1.5;" x1="376" x2="376" y1="171.6792" y2="367.2959"/><line style="stroke:#A80036;stroke-width:1.5;" x1="376" x2="302" y1="171.6792" y2="171.6792"/><polygon fill="#A80036" points="312,167.6792,302,171.6792,312,175.6792,308,171.6792" style="stroke:#A80036;stroke-width:1.0;"/><line style="stroke:#A80036;stroke-width:1.5;" x1="206" x2="132" y1="171.6792" y2="171.6792"/><polygon fill="#A80036" points="128,263.9404,132,273.9404,136,263.9404,132,267.9404" style="stroke:#A80036;stroke-width:1.5;"/><line style="stroke:#A80036;stroke-width:1.5;" x1="132" x2="132" y1="171.6792" y2="379.2959"/><line style="stroke:#A80036;stroke-width:1.5;" x1="132" x2="254" y1="379.2959" y2="379.2959"/><line style="stroke:#A80036;stroke-width:1.5;" x1="254" x2="254" y1="379.2959" y2="399.2959"/><polygon fill="#A80036" points="250,389.2959,254,399.2959,258,389.2959,254,393.2959" style="stroke:#A80036;stroke-width:1.0;"/><line style="stroke:#A80036;stroke-width:1.5;" x1="336" x2="336" y1="515.667" y2="550.667"/><polygon fill="#A80036" points="332,540.667,336,550.667,340,540.667,336,544.667" style="stroke:#A80036;stroke-width:1.0;"/><line style="stroke:#A80036;stroke-width:1.5;" x1="182" x2="172" y1="459.6982" y2="459.6982"/><line style="stroke:#A80036;stroke-width:1.5;" x1="172" x2="172" y1="459.6982" y2="481.6982"/><polygon fill="#A80036" points="168,471.6982,172,481.6982,176,471.6982,172,475.6982" style="stroke:#A80036;stroke-width:1.0;"/><line style="stroke:#A80036;stroke-width:1.5;" x1="326" x2="336" y1="459.6982" y2="459.6982"/><line style="stroke:#A80036;stroke-width:1.5;" x1="336" x2="336" y1="459.6982" y2="481.6982"/><polygon fill="#A80036" points="332,471.6982,336,481.6982,340,471.6982,336,475.6982" style="stroke:#A80036;stroke-width:1.0;"/><line style="stroke:#A80036;stroke-width:1.5;" x1="172" x2="172" y1="515.667" y2="602.6357"/><line style="stroke:#A80036;stroke-width:1.5;" x1="172" x2="242" y1="602.6357" y2="602.6357"/><polygon fill="#A80036" points="232,598.6357,242,602.6357,232,606.6357,236,602.6357" style="stroke:#A80036;stroke-width:1.0;"/><line style="stroke:#A80036;stroke-width:1.5;" x1="336" x2="336" y1="584.6357" y2="602.6357"/><line style="stroke:#A80036;stroke-width:1.5;" x1="336" x2="266" y1="602.6357" y2="602.6357"/><polygon fill="#A80036" points="276,598.6357,266,602.6357,276,606.6357,272,602.6357" style="stroke:#A80036;stroke-width:1.0;"/><line style="stroke:#A80036;stroke-width:1.5;" x1="254" x2="254" y1="423.2959" y2="447.6982"/><polygon fill="#A80036" points="250,437.6982,254,447.6982,258,437.6982,254,441.6982" style="stroke:#A80036;stroke-width:1.0;"/><line style="stroke:#A80036;stroke-width:1.5;" x1="329" x2="423" y1="411.2959" y2="411.2959"/><polygon fill="#A80036" points="419,521.167,423,531.167,427,521.167,423,525.167" style="stroke:#A80036;stroke-width:1.5;"/><line style="stroke:#A80036;stroke-width:1.5;" x1="423" x2="423" y1="411.2959" y2="646.6357"/><line style="stroke:#A80036;stroke-width:1.5;" x1="423" x2="266" y1="646.6357" y2="646.6357"/><polygon fill="#A80036" points="276,642.6357,266,646.6357,276,650.6357,272,646.6357" style="stroke:#A80036;stroke-width:1.0;"/><line style="stroke:#A80036;stroke-width:1.5;" x1="254" x2="254" y1="614.6357" y2="634.6357"/><polygon fill="#A80036" points="250,624.6357,254,634.6357,258,624.6357,254,628.6357" style="stroke:#A80036;stroke-width:1.0;"/><line style="stroke:#A80036;stroke-width:1.5;" x1="187" x2="176.75" y1="746.3462" y2="746.3462"/><line style="stroke:#A80036;stroke-width:1.5;" x1="176.75" x2="176.75" y1="746.3462" y2="768.3462"/><polygon fill="#A80036" points="172.75,758.3462,176.75,768.3462,180.75,758.3462,176.75,762.3462" style="stroke:#A80036;stroke-width:1.0;"/><line style="stroke:#A80036;stroke-width:1.5;" x1="321" x2="331.25" y1="746.3462" y2="746.3462"/><line style="stroke:#A80036;stroke-width:1.5;" x1="331.25" x2="331.25" y1="746.3462" y2="768.3462"/><polygon fill="#A80036" points="327.25,758.3462,331.25,768.3462,335.25,758.3462,331.25,762.3462" style="stroke:#A80036;stroke-width:1.0;"/><line style="stroke:#A80036;stroke-width:1.5;" x1="176.75" x2="176.75" y1="802.3149" y2="820.3149"/><line style="stroke:#A80036;stroke-width:1.5;" x1="176.75" x2="242" y1="820.3149" y2="820.3149"/><polygon fill="#A80036" points="232,816.3149,242,820.3149,232,824.3149,236,820.3149" style="stroke:#A80036;stroke-width:1.0;"/><line style="stroke:#A80036;stroke-width:1.5;" x1="331.25" x2="331.25" y1="802.3149" y2="820.3149"/><line style="stroke:#A80036;stroke-width:1.5;" x1="331.25" x2="266" y1="820.3149" y2="820.3149"/><polygon fill="#A80036" points="276,816.3149,266,820.3149,276,824.3149,272,820.3149" style="stroke:#A80036;stroke-width:1.0;"/><line style="stroke:#A80036;stroke-width:1.5;" x1="254" x2="254" y1="702.6357" y2="734.3462"/><polygon fill="#A80036" points="250,724.3462,254,734.3462,258,724.3462,254,728.3462" style="stroke:#A80036;stroke-width:1.0;"/><line style="stroke:#A80036;stroke-width:1.5;" x1="254" x2="254" y1="832.3149" y2="842.3149"/><line style="stroke:#A80036;stroke-width:1.5;" x1="254" x2="423.25" y1="842.3149" y2="842.3149"/><polygon fill="#A80036" points="419.25,774.9282,423.25,764.9282,427.25,774.9282,423.25,770.9282" style="stroke:#A80036;stroke-width:1.5;"/><line style="stroke:#A80036;stroke-width:1.5;" x1="423.25" x2="423.25" y1="690.6357" y2="842.3149"/><line style="stroke:#A80036;stroke-width:1.5;" x1="423.25" x2="332.5" y1="690.6357" y2="690.6357"/><polygon fill="#A80036" points="342.5,686.6357,332.5,690.6357,342.5,694.6357,338.5,690.6357" style="stroke:#A80036;stroke-width:1.0;"/><line style="stroke:#A80036;stroke-width:1.5;" x1="175.5" x2="90.25" y1="690.6357" y2="690.6357"/><polygon fill="#A80036" points="86.25,760.9282,90.25,770.9282,94.25,760.9282,90.25,764.9282" style="stroke:#A80036;stroke-width:1.5;"/><line style="stroke:#A80036;stroke-width:1.5;" x1="90.25" x2="90.25" y1="690.6357" y2="854.3149"/><line style="stroke:#A80036;stroke-width:1.5;" x1="90.25" x2="254" y1="854.3149" y2="854.3149"/><line style="stroke:#A80036;stroke-width:1.5;" x1="254" x2="254" y1="854.3149" y2="874.3149"/><polygon fill="#A80036" points="250,864.3149,254,874.3149,258,864.3149,254,868.3149" style="stroke:#A80036;stroke-width:1.0;"/><line style="stroke:#A80036;stroke-width:1.5;" x1="254" x2="254" y1="658.6357" y2="678.6357"/><polygon fill="#A80036" points="250,668.6357,254,678.6357,258,668.6357,254,672.6357" style="stroke:#A80036;stroke-width:1.0;"/><line style="stroke:#A80036;stroke-width:1.5;" x1="254" x2="254" y1="898.3149" y2="922.7173"/><polygon fill="#A80036" points="250,912.7173,254,922.7173,258,912.7173,254,916.7173" style="stroke:#A80036;stroke-width:1.0;"/><line style="stroke:#A80036;stroke-width:1.5;" x1="417.5" x2="429.5" y1="886.3149" y2="886.3149"/><polygon fill="#A80036" points="425.5,929.7017,429.5,939.7017,433.5,929.7017,429.5,933.7017" style="stroke:#A80036;stroke-width:1.5;"/><line style="stroke:#A80036;stroke-width:1.5;" x1="429.5" x2="429.5" y1="886.3149" y2="988.686"/><line style="stroke:#A80036;stroke-width:1.5;" x1="429.5" x2="266" y1="988.686" y2="988.686"/><polygon fill="#A80036" points="276,984.686,266,988.686,276,992.686,272,988.686" style="stroke:#A80036;stroke-width:1.0;"/><line style="stroke:#A80036;stroke-width:1.5;" x1="254" x2="254" y1="956.686" y2="976.686"/><polygon fill="#A80036" points="250,966.686,254,976.686,258,966.686,254,970.686" style="stroke:#A80036;stroke-width:1.0;"/><line style="stroke:#A80036;stroke-width:1.5;" x1="254" x2="254" y1="127.9688" y2="159.6792"/><polygon fill="#A80036" points="250,149.6792,254,159.6792,258,149.6792,254,153.6792" style="stroke:#A80036;stroke-width:1.0;"/><line style="stroke:#A80036;stroke-width:1.5;" x1="254" x2="254" y1="1000.686" y2="1010.686"/><line style="stroke:#A80036;stroke-width:1.5;" x1="254" x2="447" y1="1010.686" y2="1010.686"/><polygon fill="#A80036" points="443,568.6826,447,558.6826,451,568.6826,447,564.6826" style="stroke:#A80036;stroke-width:1.5;"/><line style="stroke:#A80036;stroke-width:1.5;" x1="447" x2="447" y1="115.9688" y2="1010.686"/><line style="stroke:#A80036;stroke-width:1.5;" x1="447" x2="421.5" y1="115.9688" y2="115.9688"/><polygon fill="#A80036" points="431.5,111.9688,421.5,115.9688,431.5,119.9688,427.5,115.9688" style="stroke:#A80036;stroke-width:1.0;"/><line style="stroke:#A80036;stroke-width:1.5;" x1="86.5" x2="66.25" y1="115.9688" y2="115.9688"/><polygon fill="#A80036" points="62.25,554.6826,66.25,564.6826,70.25,554.6826,66.25,558.6826" style="stroke:#A80036;stroke-width:1.5;"/><line style="stroke:#A80036;stroke-width:1.5;" x1="66.25" x2="66.25" y1="115.9688" y2="1022.686"/><line style="stroke:#A80036;stroke-width:1.5;" x1="66.25" x2="254" y1="1022.686" y2="1022.686"/><line style="stroke:#A80036;stroke-width:1.5;" x1="254" x2="254" y1="1022.686" y2="1042.686"/><polygon fill="#A80036" points="250,1032.686,254,1042.686,258,1032.686,254,1036.686" style="stroke:#A80036;stroke-width:1.0;"/><line style="stroke:#A80036;stroke-width:1.5;" x1="254" x2="254" y1="83.9688" y2="103.9688"/><polygon fill="#A80036" points="250,93.9688,254,103.9688,258,93.9688,254,97.9688" style="stroke:#A80036;stroke-width:1.0;"/><line style="stroke:#A80036;stroke-width:1.5;" x1="254" x2="254" y1="1076.6548" y2="1096.6548"/><polygon fill="#A80036" points="250,1086.6548,254,1096.6548,258,1086.6548,254,1090.6548" style="stroke:#A80036;stroke-width:1.0;"/><line style="stroke:#A80036;stroke-width:1.5;" x1="254" x2="254" y1="1130.6235" y2="1150.6235"/><polygon fill="#A80036" points="250,1140.6235,254,1150.6235,258,1140.6235,254,1144.6235" style="stroke:#A80036;stroke-width:1.0;"/><!--MD5=[0a0e80f05c50a5e249f09e962293bde3]
@startuml
start
:Bestellstatus = inProgress;
while (Bestellstatus = inProgress oder Nutzer bricht nicht ab?) is (true)
while(Nutzeraktion) is (wählt Produk aus)
:Nutzer wählt Menge aus; 
:Nutzer wählt Lieferintervall aus;
:Produkt wird Abobox hinzugefügt;
endwhile (Nutzer möchte Produkte bestellen)
if (Nutzer ist eingeloggt?) then (Nein)
    if (Nutzer ist registriert?) then (Ja)
        :Nutzer einloggen;
    else (Nein)
        :Nutzer registrieren;
        :Nutzer einloggen;
    endif
else (Ja)
    
endif
while(Nutzer prüft Bestellung) is (prüft)
if (Bestellung korrekt?) then (Nein)
    :Bestellung ändern;
else (Ja)
    :Bestätigt Bestellung;
endif
endwhile (Bestätigt)
if (Weniger als 5 Artikel in Abobox für Minimalzeitraum?) then (Nein)
    :Bestellstatus = completed;
else (Ja)
    
endif
endwhile (false) 
:Bestellbestätigung anzeigen;
:Bestätigungsemail senden;
stop
@enduml

PlantUML version 1.2021.15beta6(Unknown compile time)
(GPL source distribution)
Java Runtime: Java(TM) SE Runtime Environment
JVM: Java HotSpot(TM) 64-Bit Server VM
Default Encoding: UTF-8
Language: en
Country: US
--></g></svg>