<?xml version="1.0" encoding="UTF-8" standalone="no"?><svg xmlns="http://www.w3.org/2000/svg" xmlns:xlink="http://www.w3.org/1999/xlink" contentScriptType="application/ecmascript" contentStyleType="text/css" height="296px" preserveAspectRatio="none" style="width:546px;height:296px;background:#FFFFFF;" version="1.1" viewBox="0 0 546 296" width="546px" zoomAndPan="magnify"><defs><filter height="300%" id="f8wv54hk6hgho" width="300%" x="-1" y="-1"><feGaussianBlur result="blurOut" stdDeviation="2.0"/><feColorMatrix in="blurOut" result="blurOut2" type="matrix" values="0 0 0 0 0 0 0 0 0 0 0 0 0 0 0 0 0 0 .4 0"/><feOffset dx="4.0" dy="4.0" in="blurOut2" result="blurOut3"/><feBlend in="SourceGraphic" in2="blurOut3" mode="normal"/></filter></defs><g><!--MD5=[73dda7005de60a227966661ed5e41803]
class Paypal--><rect codeLine="1" fill="#FEFECE" filter="url(#f8wv54hk6hgho)" height="86.4141" id="Paypal" style="stroke:#A80036;stroke-width:1.5;" width="135" x="7" y="26.5"/><ellipse cx="51.25" cy="42.5" fill="#ADD1B2" rx="11" ry="11" style="stroke:#A80036;stroke-width:1.0;"/><path d="M53.5938,38.1719 C52.6563,37.7344 52.0625,37.5938 51.1875,37.5938 C48.5625,37.5938 46.5625,39.6719 46.5625,42.3906 L46.5625,43.5156 C46.5625,46.0938 48.6719,47.9844 51.5625,47.9844 C52.7813,47.9844 53.9375,47.6875 54.6875,47.1406 C55.2656,46.7344 55.5938,46.2813 55.5938,45.8906 C55.5938,45.4375 55.2031,45.0469 54.7344,45.0469 C54.5156,45.0469 54.3125,45.125 54.125,45.3125 C53.6719,45.7969 53.6719,45.7969 53.4844,45.8906 C53.0625,46.1563 52.375,46.2813 51.6094,46.2813 C49.5625,46.2813 48.2656,45.1875 48.2656,43.4844 L48.2656,42.3906 C48.2656,40.6094 49.5156,39.2969 51.25,39.2969 C51.8281,39.2969 52.4375,39.4531 52.9063,39.7031 C53.3906,39.9844 53.5625,40.2031 53.6563,40.6094 C53.7188,41.0156 53.75,41.1406 53.8906,41.2656 C54.0313,41.4063 54.2656,41.5156 54.4844,41.5156 C54.75,41.5156 55.0156,41.375 55.1875,41.1563 C55.2969,41 55.3281,40.8125 55.3281,40.3906 L55.3281,38.9688 C55.3281,38.5313 55.3125,38.4063 55.2188,38.25 C55.0625,37.9844 54.7813,37.8438 54.4844,37.8438 C54.1875,37.8438 53.9844,37.9375 53.7656,38.25 L53.5938,38.1719 Z " fill="#000000"/><text fill="#000000" font-family="sans-serif" font-size="12" lengthAdjust="spacing" textLength="38" x="71.75" y="46.6543">Paypal</text><line style="stroke:#A80036;stroke-width:1.5;" x1="8" x2="141" y1="58.5" y2="58.5"/><text fill="#000000" font-family="sans-serif" font-size="11" lengthAdjust="spacing" textLength="73" x="13" y="72.7104">paypalId : int</text><text fill="#000000" font-family="sans-serif" font-size="11" lengthAdjust="spacing" textLength="123" x="13" y="85.5151">emailAdresse : String</text><text fill="#000000" font-family="sans-serif" font-size="11" lengthAdjust="spacing" textLength="94" x="13" y="98.3198">passwort : String</text><line style="stroke:#A80036;stroke-width:1.5;" x1="8" x2="141" y1="104.9141" y2="104.9141"/><!--MD5=[61fbe9b8b69527743e8f42a13cc3c2dd]
class Kreditkarte--><rect codeLine="7" fill="#FEFECE" filter="url(#f8wv54hk6hgho)" height="124.8281" id="Kreditkarte" style="stroke:#A80036;stroke-width:1.5;" width="219" x="177" y="7"/><ellipse cx="248.75" cy="23" fill="#ADD1B2" rx="11" ry="11" style="stroke:#A80036;stroke-width:1.0;"/><path d="M251.0938,18.6719 C250.1563,18.2344 249.5625,18.0938 248.6875,18.0938 C246.0625,18.0938 244.0625,20.1719 244.0625,22.8906 L244.0625,24.0156 C244.0625,26.5938 246.1719,28.4844 249.0625,28.4844 C250.2813,28.4844 251.4375,28.1875 252.1875,27.6406 C252.7656,27.2344 253.0938,26.7813 253.0938,26.3906 C253.0938,25.9375 252.7031,25.5469 252.2344,25.5469 C252.0156,25.5469 251.8125,25.625 251.625,25.8125 C251.1719,26.2969 251.1719,26.2969 250.9844,26.3906 C250.5625,26.6563 249.875,26.7813 249.1094,26.7813 C247.0625,26.7813 245.7656,25.6875 245.7656,23.9844 L245.7656,22.8906 C245.7656,21.1094 247.0156,19.7969 248.75,19.7969 C249.3281,19.7969 249.9375,19.9531 250.4063,20.2031 C250.8906,20.4844 251.0625,20.7031 251.1563,21.1094 C251.2188,21.5156 251.25,21.6406 251.3906,21.7656 C251.5313,21.9063 251.7656,22.0156 251.9844,22.0156 C252.25,22.0156 252.5156,21.875 252.6875,21.6563 C252.7969,21.5 252.8281,21.3125 252.8281,20.8906 L252.8281,19.4688 C252.8281,19.0313 252.8125,18.9063 252.7188,18.75 C252.5625,18.4844 252.2813,18.3438 251.9844,18.3438 C251.6875,18.3438 251.4844,18.4375 251.2656,18.75 L251.0938,18.6719 Z " fill="#000000"/><text fill="#000000" font-family="sans-serif" font-size="12" lengthAdjust="spacing" textLength="67" x="269.25" y="27.1543">Kreditkarte</text><line style="stroke:#A80036;stroke-width:1.5;" x1="178" x2="395" y1="39" y2="39"/><text fill="#000000" font-family="sans-serif" font-size="11" lengthAdjust="spacing" textLength="104" x="183" y="53.2104">kreditKartenId : int</text><text fill="#000000" font-family="sans-serif" font-size="11" lengthAdjust="spacing" textLength="207" x="183" y="66.0151">herausgeber : Kreditkartenausgeber</text><text fill="#000000" font-family="sans-serif" font-size="11" lengthAdjust="spacing" textLength="87" x="183" y="78.8198">inhaber : String</text><text fill="#000000" font-family="sans-serif" font-size="11" lengthAdjust="spacing" textLength="142" x="183" y="91.6245">kreditkartenNummer : int</text><text fill="#000000" font-family="sans-serif" font-size="11" lengthAdjust="spacing" textLength="146" x="183" y="104.4292">ablaufdatum : Timestamp</text><text fill="#000000" font-family="sans-serif" font-size="11" lengthAdjust="spacing" textLength="44" x="183" y="117.2339">csv : int</text><line style="stroke:#A80036;stroke-width:1.5;" x1="178" x2="395" y1="123.8281" y2="123.8281"/><!--MD5=[59abbd3fa3e1a0318dd7b01fe5b38b24]
class Lastschrift--><rect codeLine="16" fill="#FEFECE" filter="url(#f8wv54hk6hgho)" height="99.2188" id="Lastschrift" style="stroke:#A80036;stroke-width:1.5;" width="101" x="431" y="20"/><ellipse cx="449.6" cy="36" fill="#ADD1B2" rx="11" ry="11" style="stroke:#A80036;stroke-width:1.0;"/><path d="M451.9438,31.6719 C451.0063,31.2344 450.4125,31.0938 449.5375,31.0938 C446.9125,31.0938 444.9125,33.1719 444.9125,35.8906 L444.9125,37.0156 C444.9125,39.5938 447.0219,41.4844 449.9125,41.4844 C451.1313,41.4844 452.2875,41.1875 453.0375,40.6406 C453.6156,40.2344 453.9438,39.7813 453.9438,39.3906 C453.9438,38.9375 453.5531,38.5469 453.0844,38.5469 C452.8656,38.5469 452.6625,38.625 452.475,38.8125 C452.0219,39.2969 452.0219,39.2969 451.8344,39.3906 C451.4125,39.6563 450.725,39.7813 449.9594,39.7813 C447.9125,39.7813 446.6156,38.6875 446.6156,36.9844 L446.6156,35.8906 C446.6156,34.1094 447.8656,32.7969 449.6,32.7969 C450.1781,32.7969 450.7875,32.9531 451.2563,33.2031 C451.7406,33.4844 451.9125,33.7031 452.0063,34.1094 C452.0688,34.5156 452.1,34.6406 452.2406,34.7656 C452.3813,34.9063 452.6156,35.0156 452.8344,35.0156 C453.1,35.0156 453.3656,34.875 453.5375,34.6563 C453.6469,34.5 453.6781,34.3125 453.6781,33.8906 L453.6781,32.4688 C453.6781,32.0313 453.6625,31.9063 453.5688,31.75 C453.4125,31.4844 453.1313,31.3438 452.8344,31.3438 C452.5375,31.3438 452.3344,31.4375 452.1156,31.75 L451.9438,31.6719 Z " fill="#000000"/><text fill="#000000" font-family="sans-serif" font-size="12" lengthAdjust="spacing" textLength="61" x="464.4" y="40.1543">Lastschrift</text><line style="stroke:#A80036;stroke-width:1.5;" x1="432" x2="531" y1="52" y2="52"/><text fill="#000000" font-family="sans-serif" font-size="11" lengthAdjust="spacing" textLength="89" x="437" y="66.2104">lastschriftid : int</text><text fill="#000000" font-family="sans-serif" font-size="11" lengthAdjust="spacing" textLength="87" x="437" y="79.0151">inhaber : String</text><text fill="#000000" font-family="sans-serif" font-size="11" lengthAdjust="spacing" textLength="68" x="437" y="91.8198">iban : String</text><text fill="#000000" font-family="sans-serif" font-size="11" lengthAdjust="spacing" textLength="60" x="437" y="104.6245">bic : String</text><line style="stroke:#A80036;stroke-width:1.5;" x1="432" x2="531" y1="111.2188" y2="111.2188"/><!--MD5=[73a0c2c9f2da8ed5db54fe4e9b77c6c7]
class Kreditkartenausgeber--><rect codeLine="23" fill="#FEFECE" filter="url(#f8wv54hk6hgho)" height="73.6094" id="Kreditkartenausgeber" style="stroke:#A80036;stroke-width:1.5;" width="164" x="204.5" y="209"/><ellipse cx="219.5" cy="225" fill="#EB937F" rx="11" ry="11" style="stroke:#A80036;stroke-width:1.0;"/><path d="M218.2969,225.875 L219.75,225.875 L219.75,225.9844 C219.75,226.3906 219.7813,226.5469 219.8594,226.7031 C220.0156,226.9531 220.2969,227.1094 220.5938,227.1094 C220.8438,227.1094 221.1094,226.9688 221.2656,226.75 C221.3906,226.5938 221.4219,226.4375 221.4219,225.9844 L221.4219,224.0625 C221.4219,223.9063 221.4219,223.8594 221.4063,223.7031 C221.3438,223.2344 221.0313,222.9219 220.5781,222.9219 C220.3281,222.9219 220.0625,223.0625 219.8906,223.2813 C219.7813,223.4531 219.75,223.6094 219.75,224.0625 L219.75,224.1875 L218.2969,224.1875 L218.2969,221.7813 L222.2813,221.7813 L222.2813,222.6406 C222.2813,223.0469 222.3125,223.2188 222.3906,223.375 C222.5625,223.625 222.8438,223.7813 223.125,223.7813 C223.3906,223.7813 223.6563,223.6406 223.8281,223.4219 C223.9375,223.25 223.9688,223.1094 223.9688,222.6406 L223.9688,220.0938 L216.3438,220.0938 C215.9063,220.0938 215.7813,220.1094 215.625,220.2031 C215.375,220.3594 215.2188,220.6563 215.2188,220.9375 C215.2188,221.2188 215.3594,221.4688 215.5781,221.6406 C215.7344,221.75 215.9219,221.7813 216.3438,221.7813 L216.5938,221.7813 L216.5938,228.2969 L216.3438,228.2969 C215.9375,228.2969 215.7813,228.3125 215.625,228.4219 C215.375,228.5938 215.2188,228.8594 215.2188,229.1563 C215.2188,229.4219 215.3594,229.6719 215.5781,229.8281 C215.7188,229.9531 215.9531,230 216.3438,230 L224.3438,230 L224.3438,227.4219 C224.3438,226.9844 224.3125,226.8438 224.2344,226.6875 C224.0625,226.4375 223.7813,226.2813 223.5,226.2813 C223.2344,226.2813 222.9688,226.3906 222.7969,226.6406 C222.6875,226.7969 222.6563,226.9375 222.6563,227.4219 L222.6563,228.2969 L218.2969,228.2969 L218.2969,225.875 Z " fill="#000000"/><text fill="#000000" font-family="sans-serif" font-size="12" lengthAdjust="spacing" textLength="132" x="233.5" y="229.1543">Kreditkartenausgeber</text><line style="stroke:#A80036;stroke-width:1.5;" x1="205.5" x2="367.5" y1="241" y2="241"/><text fill="#000000" font-family="sans-serif" font-size="11" lengthAdjust="spacing" textLength="24" x="210.5" y="255.2104">Visa</text><text fill="#000000" font-family="sans-serif" font-size="11" lengthAdjust="spacing" textLength="38" x="210.5" y="268.0151">Master</text><line style="stroke:#A80036;stroke-width:1.5;" x1="205.5" x2="367.5" y1="274.6094" y2="274.6094"/><!--MD5=[ff6f2b126435823cb6e3d4b1ee6408bc]
reverse link Kreditkarte to Kreditkartenausgeber--><path codeLine="28" d="M286.5,145.206 C286.5,167.275 286.5,190.4364 286.5,208.8848 " fill="none" id="Kreditkarte-backto-Kreditkartenausgeber" style="stroke:#A80036;stroke-width:1.0;"/><polygon fill="#FFFFFF" points="286.5,132.022,282.5,138.022,286.5,144.022,290.5,138.022,286.5,132.022" style="stroke:#A80036;stroke-width:1.0;"/><polygon fill="#000000" points="291.5,165.5664,288.5611,174.6115,294.4389,174.6115,291.5,165.5664" style="stroke:#000000;stroke-width:1.0;"/><text fill="#000000" font-family="sans-serif" font-size="13" lengthAdjust="spacing" textLength="53" x="300.5" y="175.0669">legt fest</text><!--MD5=[0e6c36eb05f218218779790a12438308]
@startuml
class Paypal {
    paypalId : int
    emailAdresse : String
    passwort : String
}

class Kreditkarte {
    kreditKartenId : int
    herausgeber : Kreditkartenausgeber
    inhaber : String
    kreditkartenNummer : int
    ablaufdatum : Timestamp
    csv : int
}

class Lastschrift {
    lastschriftid : int
    inhaber : String
    iban : String
    bic : String
}

enum Kreditkartenausgeber {
    Visa
    Master
}

Kreditkarte o- - Kreditkartenausgeber : < legt fest
@enduml

PlantUML version 1.2021.15beta6(Unknown compile time)
(GPL source distribution)
Java Runtime: Java(TM) SE Runtime Environment
JVM: Java HotSpot(TM) 64-Bit Server VM
Default Encoding: UTF-8
Language: en
Country: US
--></g></svg>