<?xml version="1.0" encoding="UTF-8" standalone="no"?><svg xmlns="http://www.w3.org/2000/svg" xmlns:xlink="http://www.w3.org/1999/xlink" contentScriptType="application/ecmascript" contentStyleType="text/css" height="610px" preserveAspectRatio="none" style="width:879px;height:610px;background:#FFFFFF;" version="1.1" viewBox="0 0 879 610" width="879px" zoomAndPan="magnify"><defs><filter height="300%" id="f1isnglm1xvkc3" width="300%" x="-1" y="-1"><feGaussianBlur result="blurOut" stdDeviation="2.0"/><feColorMatrix in="blurOut" result="blurOut2" type="matrix" values="0 0 0 0 0 0 0 0 0 0 0 0 0 0 0 0 0 0 .4 0"/><feOffset dx="4.0" dy="4.0" in="blurOut2" result="blurOut3"/><feBlend in="SourceGraphic" in2="blurOut3" mode="normal"/></filter></defs><g><!--MD5=[a95e7f665f948d831c16659167a5f089]
class Produkt--><rect codeLine="1" fill="#FEFECE" filter="url(#f1isnglm1xvkc3)" height="112.0234" id="Produkt" style="stroke:#A80036;stroke-width:1.5;" width="183" x="384" y="7"/><ellipse cx="468.25" cy="23" fill="#ADD1B2" rx="11" ry="11" style="stroke:#A80036;stroke-width:1.0;"/><path d="M470.5938,18.6719 C469.6563,18.2344 469.0625,18.0938 468.1875,18.0938 C465.5625,18.0938 463.5625,20.1719 463.5625,22.8906 L463.5625,24.0156 C463.5625,26.5938 465.6719,28.4844 468.5625,28.4844 C469.7813,28.4844 470.9375,28.1875 471.6875,27.6406 C472.2656,27.2344 472.5938,26.7813 472.5938,26.3906 C472.5938,25.9375 472.2031,25.5469 471.7344,25.5469 C471.5156,25.5469 471.3125,25.625 471.125,25.8125 C470.6719,26.2969 470.6719,26.2969 470.4844,26.3906 C470.0625,26.6563 469.375,26.7813 468.6094,26.7813 C466.5625,26.7813 465.2656,25.6875 465.2656,23.9844 L465.2656,22.8906 C465.2656,21.1094 466.5156,19.7969 468.25,19.7969 C468.8281,19.7969 469.4375,19.9531 469.9063,20.2031 C470.3906,20.4844 470.5625,20.7031 470.6563,21.1094 C470.7188,21.5156 470.75,21.6406 470.8906,21.7656 C471.0313,21.9063 471.2656,22.0156 471.4844,22.0156 C471.75,22.0156 472.0156,21.875 472.1875,21.6563 C472.2969,21.5 472.3281,21.3125 472.3281,20.8906 L472.3281,19.4688 C472.3281,19.0313 472.3125,18.9063 472.2188,18.75 C472.0625,18.4844 471.7813,18.3438 471.4844,18.3438 C471.1875,18.3438 470.9844,18.4375 470.7656,18.75 L470.5938,18.6719 Z " fill="#000000"/><text fill="#000000" font-family="sans-serif" font-size="12" lengthAdjust="spacing" textLength="6" x="488.75" y="27.1543">P</text><line style="stroke:#A80036;stroke-width:1.5;" x1="385" x2="566" y1="39" y2="39"/><text fill="#000000" font-family="sans-serif" font-size="11" lengthAdjust="spacing" textLength="143" x="390" y="53.2104">PB : Produktbeschreibung</text><text fill="#000000" font-family="sans-serif" font-size="11" lengthAdjust="spacing" textLength="171" x="390" y="66.0151">TI : Transparenzinformationen</text><text fill="#000000" font-family="sans-serif" font-size="11" lengthAdjust="spacing" textLength="98" x="390" y="78.8198">VT : Verwendung</text><text fill="#000000" font-family="sans-serif" font-size="11" lengthAdjust="spacing" textLength="47" x="390" y="91.6245">G : Preis</text><text fill="#000000" font-family="sans-serif" font-size="11" lengthAdjust="spacing" textLength="118" x="390" y="104.4292">V : Verfuegbarkeit[*]</text><line style="stroke:#A80036;stroke-width:1.5;" x1="385" x2="566" y1="111.0234" y2="111.0234"/><!--MD5=[772d8b87bd4e991ff7bf116af82a851f]
class Produktbeschreibung--><rect codeLine="8" fill="#FEFECE" filter="url(#f1isnglm1xvkc3)" height="86.4141" id="Produktbeschreibung" style="stroke:#A80036;stroke-width:1.5;" width="169" x="7" y="185.5"/><ellipse cx="80.25" cy="201.5" fill="#ADD1B2" rx="11" ry="11" style="stroke:#A80036;stroke-width:1.0;"/><path d="M82.5938,197.1719 C81.6563,196.7344 81.0625,196.5938 80.1875,196.5938 C77.5625,196.5938 75.5625,198.6719 75.5625,201.3906 L75.5625,202.5156 C75.5625,205.0938 77.6719,206.9844 80.5625,206.9844 C81.7813,206.9844 82.9375,206.6875 83.6875,206.1406 C84.2656,205.7344 84.5938,205.2813 84.5938,204.8906 C84.5938,204.4375 84.2031,204.0469 83.7344,204.0469 C83.5156,204.0469 83.3125,204.125 83.125,204.3125 C82.6719,204.7969 82.6719,204.7969 82.4844,204.8906 C82.0625,205.1563 81.375,205.2813 80.6094,205.2813 C78.5625,205.2813 77.2656,204.1875 77.2656,202.4844 L77.2656,201.3906 C77.2656,199.6094 78.5156,198.2969 80.25,198.2969 C80.8281,198.2969 81.4375,198.4531 81.9063,198.7031 C82.3906,198.9844 82.5625,199.2031 82.6563,199.6094 C82.7188,200.0156 82.75,200.1406 82.8906,200.2656 C83.0313,200.4063 83.2656,200.5156 83.4844,200.5156 C83.75,200.5156 84.0156,200.375 84.1875,200.1563 C84.2969,200 84.3281,199.8125 84.3281,199.3906 L84.3281,197.9688 C84.3281,197.5313 84.3125,197.4063 84.2188,197.25 C84.0625,196.9844 83.7813,196.8438 83.4844,196.8438 C83.1875,196.8438 82.9844,196.9375 82.7656,197.25 L82.5938,197.1719 Z " fill="#000000"/><text fill="#000000" font-family="sans-serif" font-size="12" lengthAdjust="spacing" textLength="14" x="100.75" y="205.6543">PB</text><line style="stroke:#A80036;stroke-width:1.5;" x1="8" x2="175" y1="217.5" y2="217.5"/><text fill="#000000" font-family="sans-serif" font-size="11" lengthAdjust="spacing" textLength="77" x="13" y="231.7104">name : String</text><text fill="#000000" font-family="sans-serif" font-size="11" lengthAdjust="spacing" textLength="73" x="13" y="244.5151">inhalt : Inhalt</text><text fill="#000000" font-family="sans-serif" font-size="11" lengthAdjust="spacing" textLength="157" x="13" y="257.3198">inhaltsstoffe : Inhaltsstoff[*]</text><line style="stroke:#A80036;stroke-width:1.5;" x1="8" x2="175" y1="263.9141" y2="263.9141"/><!--MD5=[8ff355d5072be856552625ee401d74f7]
class Inhaltsstoff--><rect codeLine="13" fill="#FEFECE" filter="url(#f1isnglm1xvkc3)" height="73.6094" id="Inhaltsstoff" style="stroke:#A80036;stroke-width:1.5;" width="135" x="24" y="350.5"/><ellipse cx="56.1" cy="366.5" fill="#ADD1B2" rx="11" ry="11" style="stroke:#A80036;stroke-width:1.0;"/><path d="M58.4438,362.1719 C57.5063,361.7344 56.9125,361.5938 56.0375,361.5938 C53.4125,361.5938 51.4125,363.6719 51.4125,366.3906 L51.4125,367.5156 C51.4125,370.0938 53.5219,371.9844 56.4125,371.9844 C57.6313,371.9844 58.7875,371.6875 59.5375,371.1406 C60.1156,370.7344 60.4438,370.2813 60.4438,369.8906 C60.4438,369.4375 60.0531,369.0469 59.5844,369.0469 C59.3656,369.0469 59.1625,369.125 58.975,369.3125 C58.5219,369.7969 58.5219,369.7969 58.3344,369.8906 C57.9125,370.1563 57.225,370.2813 56.4594,370.2813 C54.4125,370.2813 53.1156,369.1875 53.1156,367.4844 L53.1156,366.3906 C53.1156,364.6094 54.3656,363.2969 56.1,363.2969 C56.6781,363.2969 57.2875,363.4531 57.7563,363.7031 C58.2406,363.9844 58.4125,364.2031 58.5063,364.6094 C58.5688,365.0156 58.6,365.1406 58.7406,365.2656 C58.8813,365.4063 59.1156,365.5156 59.3344,365.5156 C59.6,365.5156 59.8656,365.375 60.0375,365.1563 C60.1469,365 60.1781,364.8125 60.1781,364.3906 L60.1781,362.9688 C60.1781,362.5313 60.1625,362.4063 60.0688,362.25 C59.9125,361.9844 59.6313,361.8438 59.3344,361.8438 C59.0375,361.8438 58.8344,361.9375 58.6156,362.25 L58.4438,362.1719 Z " fill="#000000"/><text fill="#000000" font-family="sans-serif" font-size="12" lengthAdjust="spacing" textLength="65" x="73.9" y="370.6543">Inhaltsstoff</text><line style="stroke:#A80036;stroke-width:1.5;" x1="25" x2="158" y1="382.5" y2="382.5"/><text fill="#000000" font-family="sans-serif" font-size="11" lengthAdjust="spacing" textLength="35" x="30" y="396.7104">id : int</text><text fill="#000000" font-family="sans-serif" font-size="11" lengthAdjust="spacing" textLength="123" x="30" y="409.5151">anteil_in_prozent : int</text><line style="stroke:#A80036;stroke-width:1.5;" x1="25" x2="158" y1="416.1094" y2="416.1094"/><!--MD5=[3b7f5b33e77eaabc828d82def1794997]
class Transparenzinformationen--><rect codeLine="17" fill="#FEFECE" filter="url(#f1isnglm1xvkc3)" height="99.2188" id="Transparenzinformationen" style="stroke:#A80036;stroke-width:1.5;" width="151" x="211" y="179"/><ellipse cx="277.25" cy="195" fill="#ADD1B2" rx="11" ry="11" style="stroke:#A80036;stroke-width:1.0;"/><path d="M279.5938,190.6719 C278.6563,190.2344 278.0625,190.0938 277.1875,190.0938 C274.5625,190.0938 272.5625,192.1719 272.5625,194.8906 L272.5625,196.0156 C272.5625,198.5938 274.6719,200.4844 277.5625,200.4844 C278.7813,200.4844 279.9375,200.1875 280.6875,199.6406 C281.2656,199.2344 281.5938,198.7813 281.5938,198.3906 C281.5938,197.9375 281.2031,197.5469 280.7344,197.5469 C280.5156,197.5469 280.3125,197.625 280.125,197.8125 C279.6719,198.2969 279.6719,198.2969 279.4844,198.3906 C279.0625,198.6563 278.375,198.7813 277.6094,198.7813 C275.5625,198.7813 274.2656,197.6875 274.2656,195.9844 L274.2656,194.8906 C274.2656,193.1094 275.5156,191.7969 277.25,191.7969 C277.8281,191.7969 278.4375,191.9531 278.9063,192.2031 C279.3906,192.4844 279.5625,192.7031 279.6563,193.1094 C279.7188,193.5156 279.75,193.6406 279.8906,193.7656 C280.0313,193.9063 280.2656,194.0156 280.4844,194.0156 C280.75,194.0156 281.0156,193.875 281.1875,193.6563 C281.2969,193.5 281.3281,193.3125 281.3281,192.8906 L281.3281,191.4688 C281.3281,191.0313 281.3125,190.9063 281.2188,190.75 C281.0625,190.4844 280.7813,190.3438 280.4844,190.3438 C280.1875,190.3438 279.9844,190.4375 279.7656,190.75 L279.5938,190.6719 Z " fill="#000000"/><text fill="#000000" font-family="sans-serif" font-size="12" lengthAdjust="spacing" textLength="10" x="297.75" y="199.1543">TI</text><line style="stroke:#A80036;stroke-width:1.5;" x1="212" x2="361" y1="211" y2="211"/><text fill="#000000" font-family="sans-serif" font-size="11" lengthAdjust="spacing" textLength="66" x="217" y="225.2104">feld : String</text><text fill="#000000" font-family="sans-serif" font-size="11" lengthAdjust="spacing" textLength="77" x="217" y="238.0151">bauer : String</text><text fill="#000000" font-family="sans-serif" font-size="11" lengthAdjust="spacing" textLength="94" x="217" y="250.8198">anbauort : String</text><text fill="#000000" font-family="sans-serif" font-size="11" lengthAdjust="spacing" textLength="139" x="217" y="263.6245">lieferanten : Lieferant[*]</text><line style="stroke:#A80036;stroke-width:1.5;" x1="212" x2="361" y1="270.2188" y2="270.2188"/><!--MD5=[d61eb4208a4a9da1b3a488ed0fcc75dc]
class Lieferant--><rect codeLine="23" fill="#FEFECE" filter="url(#f1isnglm1xvkc3)" height="99.2188" id="Lieferant" style="stroke:#A80036;stroke-width:1.5;" width="182" x="195.5" y="338"/><ellipse cx="256.25" cy="354" fill="#ADD1B2" rx="11" ry="11" style="stroke:#A80036;stroke-width:1.0;"/><path d="M258.5938,349.6719 C257.6563,349.2344 257.0625,349.0938 256.1875,349.0938 C253.5625,349.0938 251.5625,351.1719 251.5625,353.8906 L251.5625,355.0156 C251.5625,357.5938 253.6719,359.4844 256.5625,359.4844 C257.7813,359.4844 258.9375,359.1875 259.6875,358.6406 C260.2656,358.2344 260.5938,357.7813 260.5938,357.3906 C260.5938,356.9375 260.2031,356.5469 259.7344,356.5469 C259.5156,356.5469 259.3125,356.625 259.125,356.8125 C258.6719,357.2969 258.6719,357.2969 258.4844,357.3906 C258.0625,357.6563 257.375,357.7813 256.6094,357.7813 C254.5625,357.7813 253.2656,356.6875 253.2656,354.9844 L253.2656,353.8906 C253.2656,352.1094 254.5156,350.7969 256.25,350.7969 C256.8281,350.7969 257.4375,350.9531 257.9063,351.2031 C258.3906,351.4844 258.5625,351.7031 258.6563,352.1094 C258.7188,352.5156 258.75,352.6406 258.8906,352.7656 C259.0313,352.9063 259.2656,353.0156 259.4844,353.0156 C259.75,353.0156 260.0156,352.875 260.1875,352.6563 C260.2969,352.5 260.3281,352.3125 260.3281,351.8906 L260.3281,350.4688 C260.3281,350.0313 260.3125,349.9063 260.2188,349.75 C260.0625,349.4844 259.7813,349.3438 259.4844,349.3438 C259.1875,349.3438 258.9844,349.4375 258.7656,349.75 L258.5938,349.6719 Z " fill="#000000"/><text fill="#000000" font-family="sans-serif" font-size="12" lengthAdjust="spacing" textLength="52" x="276.75" y="358.1543">Lieferant</text><line style="stroke:#A80036;stroke-width:1.5;" x1="196.5" x2="376.5" y1="370" y2="370"/><text fill="#000000" font-family="sans-serif" font-size="11" lengthAdjust="spacing" textLength="77" x="201.5" y="384.2104">name : String</text><text fill="#000000" font-family="sans-serif" font-size="11" lengthAdjust="spacing" textLength="99" x="201.5" y="397.0151">startPunkt : String</text><text fill="#000000" font-family="sans-serif" font-size="11" lengthAdjust="spacing" textLength="96" x="201.5" y="409.8198">endPunkt : String</text><text fill="#000000" font-family="sans-serif" font-size="11" lengthAdjust="spacing" textLength="170" x="201.5" y="422.6245">lieferantenart : Lieferantenart</text><line style="stroke:#A80036;stroke-width:1.5;" x1="196.5" x2="376.5" y1="429.2188" y2="429.2188"/><!--MD5=[4aa3acbd9f2f28c96b57faeeed7c2d27]
class Lieferantenart--><rect codeLine="29" fill="#FEFECE" filter="url(#f1isnglm1xvkc3)" height="99.2188" id="Lieferantenart" style="stroke:#A80036;stroke-width:1.5;" width="115" x="229" y="497"/><ellipse cx="244" cy="513" fill="#EB937F" rx="11" ry="11" style="stroke:#A80036;stroke-width:1.0;"/><path d="M242.7969,513.875 L244.25,513.875 L244.25,513.9844 C244.25,514.3906 244.2813,514.5469 244.3594,514.7031 C244.5156,514.9531 244.7969,515.1094 245.0938,515.1094 C245.3438,515.1094 245.6094,514.9688 245.7656,514.75 C245.8906,514.5938 245.9219,514.4375 245.9219,513.9844 L245.9219,512.0625 C245.9219,511.9063 245.9219,511.8594 245.9063,511.7031 C245.8438,511.2344 245.5313,510.9219 245.0781,510.9219 C244.8281,510.9219 244.5625,511.0625 244.3906,511.2813 C244.2813,511.4531 244.25,511.6094 244.25,512.0625 L244.25,512.1875 L242.7969,512.1875 L242.7969,509.7813 L246.7813,509.7813 L246.7813,510.6406 C246.7813,511.0469 246.8125,511.2188 246.8906,511.375 C247.0625,511.625 247.3438,511.7813 247.625,511.7813 C247.8906,511.7813 248.1563,511.6406 248.3281,511.4219 C248.4375,511.25 248.4688,511.1094 248.4688,510.6406 L248.4688,508.0938 L240.8438,508.0938 C240.4063,508.0938 240.2813,508.1094 240.125,508.2031 C239.875,508.3594 239.7188,508.6563 239.7188,508.9375 C239.7188,509.2188 239.8594,509.4688 240.0781,509.6406 C240.2344,509.75 240.4219,509.7813 240.8438,509.7813 L241.0938,509.7813 L241.0938,516.2969 L240.8438,516.2969 C240.4375,516.2969 240.2813,516.3125 240.125,516.4219 C239.875,516.5938 239.7188,516.8594 239.7188,517.1563 C239.7188,517.4219 239.8594,517.6719 240.0781,517.8281 C240.2188,517.9531 240.4531,518 240.8438,518 L248.8438,518 L248.8438,515.4219 C248.8438,514.9844 248.8125,514.8438 248.7344,514.6875 C248.5625,514.4375 248.2813,514.2813 248,514.2813 C247.7344,514.2813 247.4688,514.3906 247.2969,514.6406 C247.1875,514.7969 247.1563,514.9375 247.1563,515.4219 L247.1563,516.2969 L242.7969,516.2969 L242.7969,513.875 Z " fill="#000000"/><text fill="#000000" font-family="sans-serif" font-size="12" lengthAdjust="spacing" textLength="83" x="258" y="517.1543">Lieferantenart</text><line style="stroke:#A80036;stroke-width:1.5;" x1="230" x2="343" y1="529" y2="529"/><text fill="#000000" font-family="sans-serif" font-size="11" lengthAdjust="spacing" textLength="24" x="235" y="543.2104">LKW</text><text fill="#000000" font-family="sans-serif" font-size="11" lengthAdjust="spacing" textLength="22" x="235" y="556.0151">Zug</text><text fill="#000000" font-family="sans-serif" font-size="11" lengthAdjust="spacing" textLength="52" x="235" y="568.8198">Flugzeug</text><text fill="#000000" font-family="sans-serif" font-size="11" lengthAdjust="spacing" textLength="32" x="235" y="581.6245">Schiff</text><line style="stroke:#A80036;stroke-width:1.5;" x1="230" x2="343" y1="588.2188" y2="588.2188"/><!--MD5=[842cf0aa231e5b0ba2cbcbbd8dea6e4d]
class Verwendung--><rect codeLine="35" fill="#FEFECE" filter="url(#f1isnglm1xvkc3)" height="60.8047" id="Verwendung" style="stroke:#A80036;stroke-width:1.5;" width="156" x="397.5" y="198"/><ellipse cx="463.75" cy="214" fill="#ADD1B2" rx="11" ry="11" style="stroke:#A80036;stroke-width:1.0;"/><path d="M466.0938,209.6719 C465.1563,209.2344 464.5625,209.0938 463.6875,209.0938 C461.0625,209.0938 459.0625,211.1719 459.0625,213.8906 L459.0625,215.0156 C459.0625,217.5938 461.1719,219.4844 464.0625,219.4844 C465.2813,219.4844 466.4375,219.1875 467.1875,218.6406 C467.7656,218.2344 468.0938,217.7813 468.0938,217.3906 C468.0938,216.9375 467.7031,216.5469 467.2344,216.5469 C467.0156,216.5469 466.8125,216.625 466.625,216.8125 C466.1719,217.2969 466.1719,217.2969 465.9844,217.3906 C465.5625,217.6563 464.875,217.7813 464.1094,217.7813 C462.0625,217.7813 460.7656,216.6875 460.7656,214.9844 L460.7656,213.8906 C460.7656,212.1094 462.0156,210.7969 463.75,210.7969 C464.3281,210.7969 464.9375,210.9531 465.4063,211.2031 C465.8906,211.4844 466.0625,211.7031 466.1563,212.1094 C466.2188,212.5156 466.25,212.6406 466.3906,212.7656 C466.5313,212.9063 466.7656,213.0156 466.9844,213.0156 C467.25,213.0156 467.5156,212.875 467.6875,212.6563 C467.7969,212.5 467.8281,212.3125 467.8281,211.8906 L467.8281,210.4688 C467.8281,210.0313 467.8125,209.9063 467.7188,209.75 C467.5625,209.4844 467.2813,209.3438 466.9844,209.3438 C466.6875,209.3438 466.4844,209.4375 466.2656,209.75 L466.0938,209.6719 Z " fill="#000000"/><text fill="#000000" font-family="sans-serif" font-size="12" lengthAdjust="spacing" textLength="15" x="484.25" y="218.1543">VT</text><line style="stroke:#A80036;stroke-width:1.5;" x1="398.5" x2="552.5" y1="230" y2="230"/><text fill="#000000" font-family="sans-serif" font-size="11" lengthAdjust="spacing" textLength="144" x="403.5" y="244.2104">verwendungen : String[*]</text><line style="stroke:#A80036;stroke-width:1.5;" x1="398.5" x2="552.5" y1="250.8047" y2="250.8047"/><!--MD5=[4f529154ac8a14163d644c225aa886ca]
class Preis--><rect codeLine="38" fill="#FEFECE" filter="url(#f1isnglm1xvkc3)" height="86.4141" id="Preis" style="stroke:#A80036;stroke-width:1.5;" width="120" x="588.5" y="185.5"/><ellipse cx="639.75" cy="201.5" fill="#ADD1B2" rx="11" ry="11" style="stroke:#A80036;stroke-width:1.0;"/><path d="M642.0938,197.1719 C641.1563,196.7344 640.5625,196.5938 639.6875,196.5938 C637.0625,196.5938 635.0625,198.6719 635.0625,201.3906 L635.0625,202.5156 C635.0625,205.0938 637.1719,206.9844 640.0625,206.9844 C641.2813,206.9844 642.4375,206.6875 643.1875,206.1406 C643.7656,205.7344 644.0938,205.2813 644.0938,204.8906 C644.0938,204.4375 643.7031,204.0469 643.2344,204.0469 C643.0156,204.0469 642.8125,204.125 642.625,204.3125 C642.1719,204.7969 642.1719,204.7969 641.9844,204.8906 C641.5625,205.1563 640.875,205.2813 640.1094,205.2813 C638.0625,205.2813 636.7656,204.1875 636.7656,202.4844 L636.7656,201.3906 C636.7656,199.6094 638.0156,198.2969 639.75,198.2969 C640.3281,198.2969 640.9375,198.4531 641.4063,198.7031 C641.8906,198.9844 642.0625,199.2031 642.1563,199.6094 C642.2188,200.0156 642.25,200.1406 642.3906,200.2656 C642.5313,200.4063 642.7656,200.5156 642.9844,200.5156 C643.25,200.5156 643.5156,200.375 643.6875,200.1563 C643.7969,200 643.8281,199.8125 643.8281,199.3906 L643.8281,197.9688 C643.8281,197.5313 643.8125,197.4063 643.7188,197.25 C643.5625,196.9844 643.2813,196.8438 642.9844,196.8438 C642.6875,196.8438 642.4844,196.9375 642.2656,197.25 L642.0938,197.1719 Z " fill="#000000"/><text fill="#000000" font-family="sans-serif" font-size="12" lengthAdjust="spacing" textLength="9" x="660.25" y="205.6543">G</text><line style="stroke:#A80036;stroke-width:1.5;" x1="589.5" x2="707.5" y1="217.5" y2="217.5"/><text fill="#000000" font-family="sans-serif" font-size="11" lengthAdjust="spacing" textLength="98" x="594.5" y="231.7104">preis_normal : int</text><text fill="#000000" font-family="sans-serif" font-size="11" lengthAdjust="spacing" textLength="90" x="594.5" y="244.5151">rabatt : boolean</text><text fill="#000000" font-family="sans-serif" font-size="11" lengthAdjust="spacing" textLength="108" x="594.5" y="257.3198">rabatt_prozent : int</text><line style="stroke:#A80036;stroke-width:1.5;" x1="589.5" x2="707.5" y1="263.9141" y2="263.9141"/><!--MD5=[f2b0e0ebab78d45a2b153b0e6abce85d]
class Verfuegbarkeit--><rect codeLine="43" fill="#FEFECE" filter="url(#f1isnglm1xvkc3)" height="73.6094" id="Verfuegbarkeit" style="stroke:#A80036;stroke-width:1.5;" width="122" x="743.5" y="191.5"/><ellipse cx="758.5" cy="207.5" fill="#ADD1B2" rx="11" ry="11" style="stroke:#A80036;stroke-width:1.0;"/><path d="M760.8438,203.1719 C759.9063,202.7344 759.3125,202.5938 758.4375,202.5938 C755.8125,202.5938 753.8125,204.6719 753.8125,207.3906 L753.8125,208.5156 C753.8125,211.0938 755.9219,212.9844 758.8125,212.9844 C760.0313,212.9844 761.1875,212.6875 761.9375,212.1406 C762.5156,211.7344 762.8438,211.2813 762.8438,210.8906 C762.8438,210.4375 762.4531,210.0469 761.9844,210.0469 C761.7656,210.0469 761.5625,210.125 761.375,210.3125 C760.9219,210.7969 760.9219,210.7969 760.7344,210.8906 C760.3125,211.1563 759.625,211.2813 758.8594,211.2813 C756.8125,211.2813 755.5156,210.1875 755.5156,208.4844 L755.5156,207.3906 C755.5156,205.6094 756.7656,204.2969 758.5,204.2969 C759.0781,204.2969 759.6875,204.4531 760.1563,204.7031 C760.6406,204.9844 760.8125,205.2031 760.9063,205.6094 C760.9688,206.0156 761,206.1406 761.1406,206.2656 C761.2813,206.4063 761.5156,206.5156 761.7344,206.5156 C762,206.5156 762.2656,206.375 762.4375,206.1563 C762.5469,206 762.5781,205.8125 762.5781,205.3906 L762.5781,203.9688 C762.5781,203.5313 762.5625,203.4063 762.4688,203.25 C762.3125,202.9844 762.0313,202.8438 761.7344,202.8438 C761.4375,202.8438 761.2344,202.9375 761.0156,203.25 L760.8438,203.1719 Z " fill="#000000"/><text fill="#000000" font-family="sans-serif" font-size="12" lengthAdjust="spacing" textLength="90" x="772.5" y="211.6543">Verfuegbarkeit</text><line style="stroke:#A80036;stroke-width:1.5;" x1="744.5" x2="864.5" y1="223.5" y2="223.5"/><text fill="#000000" font-family="sans-serif" font-size="11" lengthAdjust="spacing" textLength="102" x="749.5" y="237.7104">startDatum : Date</text><text fill="#000000" font-family="sans-serif" font-size="11" lengthAdjust="spacing" textLength="99" x="749.5" y="250.5151">endDatum : Date</text><line style="stroke:#A80036;stroke-width:1.5;" x1="744.5" x2="864.5" y1="257.1094" y2="257.1094"/><!--MD5=[7763a517a07393af3f7fd10b29278975]
reverse link Produkt to Produktbeschreibung--><path codeLine="48" d="M371.561,104.753 C318.055,126.143 251.953,153.209 193.5,179 C187.849,181.493 182.044,184.107 176.209,186.775 " fill="none" id="Produkt-backto-Produktbeschreibung" style="stroke:#A80036;stroke-width:1.0;"/><polygon fill="#FFFFFF" points="383.825,99.861,376.7701,98.3684,372.6788,104.3065,379.7338,105.7992,383.825,99.861" style="stroke:#A80036;stroke-width:1.0;"/><!--MD5=[aa8629cf55cf32e9acd5a4bce759d653]
reverse link Produkt to Transparenzinformationen--><path codeLine="49" d="M401.921,127.652 C382.224,144.691 361.252,162.834 342.662,178.915 " fill="none" id="Produkt-backto-Transparenzinformationen" style="stroke:#A80036;stroke-width:1.0;"/><polygon fill="#FFFFFF" points="411.777,119.126,404.6224,120.0266,402.7019,126.9773,409.8566,126.0767,411.777,119.126" style="stroke:#A80036;stroke-width:1.0;"/><!--MD5=[e06e3fae7baf1271057064b4c018d3b6]
reverse link Produkt to Verwendung--><path codeLine="50" d="M475.5,132.577 C475.5,155.408 475.5,179.646 475.5,197.915 " fill="none" id="Produkt-backto-Verwendung" style="stroke:#A80036;stroke-width:1.0;"/><polygon fill="#FFFFFF" points="475.5,119.354,471.5,125.354,475.5,131.354,479.5,125.354,475.5,119.354" style="stroke:#A80036;stroke-width:1.0;"/><!--MD5=[4976fdbd5939169b117979f323a64a08]
reverse link Produkt to Preis--><path codeLine="51" d="M543.582,128.344 C563.867,147.515 585.569,168.025 603.941,185.388 " fill="none" id="Produkt-backto-Preis" style="stroke:#A80036;stroke-width:1.0;"/><polygon fill="#FFFFFF" points="534.07,119.354,535.6837,126.3822,542.7919,127.5959,541.1782,120.5676,534.07,119.354" style="stroke:#A80036;stroke-width:1.0;"/><!--MD5=[1d6ba231b24e0861b69fc64b2886a32a]
reverse link Produkt to Verfuegbarkeit--><path codeLine="52" d="M579.246,107.99 C625.039,128.308 679.114,153.544 726.5,179 C733.664,182.849 741.07,187.089 748.336,191.411 " fill="none" id="Produkt-backto-Verfuegbarkeit" style="stroke:#A80036;stroke-width:1.0;"/><polygon fill="#FFFFFF" points="567.179,102.664,571.0532,108.746,578.1574,107.509,574.2832,101.427,567.179,102.664" style="stroke:#A80036;stroke-width:1.0;"/><!--MD5=[f8c899135849ab05da88ab2b573266f1]
reverse link Produktbeschreibung to Inhaltsstoff--><path codeLine="53" d="M91.5,284.741 C91.5,306.546 91.5,330.982 91.5,350.443 " fill="none" id="Produktbeschreibung-backto-Inhaltsstoff" style="stroke:#A80036;stroke-width:1.0;"/><polygon fill="#FFFFFF" points="91.5,271.573,87.5,277.573,91.5,283.573,95.5,277.573,91.5,271.573" style="stroke:#A80036;stroke-width:1.0;"/><!--MD5=[54e9e598594d74c8cf379fba4da5fce5]
reverse link Transparenzinformationen to Lieferant--><path codeLine="54" d="M286.5,291.58 C286.5,307.006 286.5,323.317 286.5,337.985 " fill="none" id="Transparenzinformationen-backto-Lieferant" style="stroke:#A80036;stroke-width:1.0;"/><polygon fill="#FFFFFF" points="286.5,278.315,282.5,284.315,286.5,290.315,290.5,284.315,286.5,278.315" style="stroke:#A80036;stroke-width:1.0;"/><!--MD5=[3974ed0374fae9804db45c21fe4c62c5]
reverse link Lieferant to Lieferantenart--><path codeLine="55" d="M286.5,450.58 C286.5,466.006 286.5,482.317 286.5,496.9848 " fill="none" id="Lieferant-backto-Lieferantenart" style="stroke:#A80036;stroke-width:1.0;"/><polygon fill="#FFFFFF" points="286.5,437.315,282.5,443.315,286.5,449.315,290.5,443.315,286.5,437.315" style="stroke:#A80036;stroke-width:1.0;"/><!--MD5=[8409676f25b1ad05a9647e81a57e0b48]
@startuml
class Produkt as "P" {
    PB : Produktbeschreibung
    TI : Transparenzinformationen
    VT : Verwendung
    G : Preis
    V : Verfuegbarkeit[*]
}
class Produktbeschreibung as "PB"{
    name : String
    inhalt : Inhalt
    inhaltsstoffe : Inhaltsstoff[*]
}
class Inhaltsstoff {
    id : int
    anteil_in_prozent : int
}
class Transparenzinformationen as "TI" {
    feld : String
    bauer : String
    anbauort : String
    lieferanten : Lieferant[*]
}
class Lieferant{
    name : String
    startPunkt : String
    endPunkt : String
    lieferantenart : Lieferantenart
}
enum Lieferantenart{
    LKW
    Zug
    Flugzeug
    Schiff
}
class Verwendung as "VT" {
    verwendungen : String[*]
}
class Preis as "G" {
    preis_normal : int
    rabatt : boolean
    rabatt_prozent : int
}
class Verfuegbarkeit{
    startDatum : Date
    endDatum : Date
}

Produkt o- - Produktbeschreibung
Produkt o- - Transparenzinformationen
Produkt o- - Verwendung
Produkt o- - Preis
Produkt o- - Verfuegbarkeit
Produktbeschreibung o- - Inhaltsstoff
Transparenzinformationen o- - Lieferant
Lieferant o- - Lieferantenart
@enduml

PlantUML version 1.2021.15beta6(Unknown compile time)
(GPL source distribution)
Java Runtime: Java(TM) SE Runtime Environment
JVM: Java HotSpot(TM) 64-Bit Server VM
Default Encoding: UTF-8
Language: en
Country: US
--></g></svg>