<?xml version="1.0" encoding="UTF-8" standalone="no"?><svg xmlns="http://www.w3.org/2000/svg" xmlns:xlink="http://www.w3.org/1999/xlink" contentScriptType="application/ecmascript" contentStyleType="text/css" height="309px" preserveAspectRatio="none" style="width:231px;height:309px;background:#FFFFFF;" version="1.1" viewBox="0 0 231 309" width="231px" zoomAndPan="magnify"><defs><filter height="300%" id="f1sxqtsu6k6l1h" width="300%" x="-1" y="-1"><feGaussianBlur result="blurOut" stdDeviation="2.0"/><feColorMatrix in="blurOut" result="blurOut2" type="matrix" values="0 0 0 0 0 0 0 0 0 0 0 0 0 0 0 0 0 0 .4 0"/><feOffset dx="4.0" dy="4.0" in="blurOut2" result="blurOut3"/><feBlend in="SourceGraphic" in2="blurOut3" mode="normal"/></filter></defs><g><line style="stroke:#A80036;stroke-width:1.0;stroke-dasharray:5.0,5.0;" x1="23" x2="23" y1="88.2969" y2="224.8281"/><line style="stroke:#A80036;stroke-width:1.0;stroke-dasharray:5.0,5.0;" x1="108.5" x2="108.5" y1="88.2969" y2="224.8281"/><line style="stroke:#A80036;stroke-width:1.0;stroke-dasharray:5.0,5.0;" x1="193.5" x2="193.5" y1="88.2969" y2="224.8281"/><text fill="#000000" font-family="sans-serif" font-size="14" lengthAdjust="spacing" textLength="31" x="5" y="84.9951">User</text><ellipse cx="23.5" cy="15" fill="#FEFECE" filter="url(#f1sxqtsu6k6l1h)" rx="8" ry="8" style="stroke:#A80036;stroke-width:2.0;"/><path d="M23.5,23 L23.5,50 M10.5,31 L36.5,31 M23.5,50 L10.5,65 M23.5,50 L36.5,65 " fill="none" filter="url(#f1sxqtsu6k6l1h)" style="stroke:#A80036;stroke-width:2.0;"/><text fill="#000000" font-family="sans-serif" font-size="14" lengthAdjust="spacing" textLength="31" x="5" y="236.8232">User</text><ellipse cx="23.5" cy="250.125" fill="#FEFECE" filter="url(#f1sxqtsu6k6l1h)" rx="8" ry="8" style="stroke:#A80036;stroke-width:2.0;"/><path d="M23.5,258.125 L23.5,285.125 M10.5,266.125 L36.5,266.125 M23.5,285.125 L10.5,300.125 M23.5,285.125 L36.5,300.125 " fill="none" filter="url(#f1sxqtsu6k6l1h)" style="stroke:#A80036;stroke-width:2.0;"/><text fill="#000000" font-family="sans-serif" font-size="14" lengthAdjust="spacing" textLength="68" x="71.5" y="84.9951">Webshop</text><ellipse cx="108.5" cy="56" fill="#FEFECE" filter="url(#f1sxqtsu6k6l1h)" rx="12" ry="12" style="stroke:#A80036;stroke-width:2.0;"/><polygon fill="#A80036" points="104.5,44,110.5,39,108.5,44,110.5,49,104.5,44" style="stroke:#A80036;stroke-width:1.0;"/><text fill="#000000" font-family="sans-serif" font-size="14" lengthAdjust="spacing" textLength="68" x="71.5" y="236.8232">Webshop</text><ellipse cx="108.5" cy="256.125" fill="#FEFECE" filter="url(#f1sxqtsu6k6l1h)" rx="12" ry="12" style="stroke:#A80036;stroke-width:2.0;"/><polygon fill="#A80036" points="104.5,244.125,110.5,239.125,108.5,244.125,110.5,249.125,104.5,244.125" style="stroke:#A80036;stroke-width:1.0;"/><text fill="#000000" font-family="sans-serif" font-size="14" lengthAdjust="spacing" textLength="68" x="156.5" y="84.9951">Database</text><path d="M175.5,36 C175.5,26 193.5,26 193.5,26 C193.5,26 211.5,26 211.5,36 L211.5,62 C211.5,72 193.5,72 193.5,72 C193.5,72 175.5,72 175.5,62 L175.5,36 " fill="#FEFECE" filter="url(#f1sxqtsu6k6l1h)" style="stroke:#000000;stroke-width:1.5;"/><path d="M175.5,36 C175.5,46 193.5,46 193.5,46 C193.5,46 211.5,46 211.5,36 " fill="none" style="stroke:#000000;stroke-width:1.5;"/><text fill="#000000" font-family="sans-serif" font-size="14" lengthAdjust="spacing" textLength="68" x="156.5" y="236.8232">Database</text><path d="M175.5,250.125 C175.5,240.125 193.5,240.125 193.5,240.125 C193.5,240.125 211.5,240.125 211.5,250.125 L211.5,276.125 C211.5,286.125 193.5,286.125 193.5,286.125 C193.5,286.125 175.5,286.125 175.5,276.125 L175.5,250.125 " fill="#FEFECE" filter="url(#f1sxqtsu6k6l1h)" style="stroke:#000000;stroke-width:1.5;"/><path d="M175.5,250.125 C175.5,260.125 193.5,260.125 193.5,260.125 C193.5,260.125 211.5,260.125 211.5,250.125 " fill="none" style="stroke:#000000;stroke-width:1.5;"/><polygon fill="#A80036" points="96.5,115.4297,106.5,119.4297,96.5,123.4297,100.5,119.4297" style="stroke:#A80036;stroke-width:1.0;"/><line style="stroke:#A80036;stroke-width:1.0;" x1="23.5" x2="102.5" y1="119.4297" y2="119.4297"/><text fill="#000000" font-family="sans-serif" font-size="13" lengthAdjust="spacing" textLength="60" x="30.5" y="114.3638">produktid</text><polygon fill="#A80036" points="181.5,144.5625,191.5,148.5625,181.5,152.5625,185.5,148.5625" style="stroke:#A80036;stroke-width:1.0;"/><line style="stroke:#A80036;stroke-width:1.0;" x1="108.5" x2="187.5" y1="148.5625" y2="148.5625"/><text fill="#000000" font-family="sans-serif" font-size="13" lengthAdjust="spacing" textLength="60" x="115.5" y="143.4966">produktid</text><polygon fill="#A80036" points="119.5,173.6953,109.5,177.6953,119.5,181.6953,115.5,177.6953" style="stroke:#A80036;stroke-width:1.0;"/><line style="stroke:#A80036;stroke-width:1.0;" x1="113.5" x2="192.5" y1="177.6953" y2="177.6953"/><text fill="#000000" font-family="sans-serif" font-size="13" lengthAdjust="spacing" textLength="61" x="125.5" y="172.6294">Produkt P</text><polygon fill="#A80036" points="34.5,202.8281,24.5,206.8281,34.5,210.8281,30.5,206.8281" style="stroke:#A80036;stroke-width:1.0;"/><line style="stroke:#A80036;stroke-width:1.0;" x1="28.5" x2="107.5" y1="206.8281" y2="206.8281"/><text fill="#000000" font-family="sans-serif" font-size="13" lengthAdjust="spacing" textLength="61" x="40.5" y="201.7622">Produkt P</text><!--MD5=[184d403824393af2eec39b5c3b6ba73a]
@startuml
actor User
control Webshop
database Database

User -> Webshop : produktid
Webshop -> Database : produktid
Database -> Webshop : Produkt P
Webshop -> User : Produkt P
@enduml

PlantUML version 1.2021.15beta6(Unknown compile time)
(GPL source distribution)
Java Runtime: Java(TM) SE Runtime Environment
JVM: Java HotSpot(TM) 64-Bit Server VM
Default Encoding: UTF-8
Language: en
Country: US
--></g></svg>