<?xml version="1.0" encoding="UTF-8" standalone="no"?><svg xmlns="http://www.w3.org/2000/svg" xmlns:xlink="http://www.w3.org/1999/xlink" contentScriptType="application/ecmascript" contentStyleType="text/css" height="679px" preserveAspectRatio="none" style="width:769px;height:679px;background:#FFFFFF;" version="1.1" viewBox="0 0 769 679" width="769px" zoomAndPan="magnify"><defs><filter height="300%" id="f1dzzbhrzdhmuq" width="300%" x="-1" y="-1"><feGaussianBlur result="blurOut" stdDeviation="2.0"/><feColorMatrix in="blurOut" result="blurOut2" type="matrix" values="0 0 0 0 0 0 0 0 0 0 0 0 0 0 0 0 0 0 .4 0"/><feOffset dx="4.0" dy="4.0" in="blurOut2" result="blurOut3"/><feBlend in="SourceGraphic" in2="blurOut3" mode="normal"/></filter></defs><g><rect fill="#FFFFFF" filter="url(#f1dzzbhrzdhmuq)" height="488.125" style="stroke:#A80036;stroke-width:1.0;" width="10" x="52" y="98.2969"/><rect fill="#FFFFFF" filter="url(#f1dzzbhrzdhmuq)" height="70.2656" style="stroke:#A80036;stroke-width:1.0;" width="10" x="264" y="119.4297"/><rect fill="#FFFFFF" filter="url(#f1dzzbhrzdhmuq)" height="258.0625" style="stroke:#A80036;stroke-width:1.0;" width="10" x="264" y="302.2266"/><rect fill="#FFFFFF" filter="url(#f1dzzbhrzdhmuq)" height="12" style="stroke:#A80036;stroke-width:1.0;" width="10" x="473" y="148.5625"/><rect fill="#FFFFFF" filter="url(#f1dzzbhrzdhmuq)" height="12" style="stroke:#A80036;stroke-width:1.0;" width="10" x="473" y="519.1563"/><rect fill="#FFFFFF" filter="url(#f1dzzbhrzdhmuq)" height="98.3984" style="stroke:#A80036;stroke-width:1.0;" width="10" x="639.5" y="331.3594"/><rect fill="#FFFFFF" filter="url(#f1dzzbhrzdhmuq)" height="269.1953" style="stroke:#000000;stroke-width:2.0;" width="745" x="10" y="221.8281"/><rect fill="#FFFFFF" filter="url(#f1dzzbhrzdhmuq)" height="137.6641" style="stroke:#000000;stroke-width:2.0;" width="725" x="20" y="346.3594"/><rect fill="#FFFFFF" filter="url(#f1dzzbhrzdhmuq)" height="46.2656" style="stroke:#000000;stroke-width:2.0;" width="513" x="222" y="370.4922"/><rect fill="#FFFFFF" height="60.2656" style="stroke:none;stroke-width:1.0;" width="725" x="20" y="423.7578"/><line style="stroke:#A80036;stroke-width:1.0;stroke-dasharray:5.0,5.0;" x1="57" x2="57" y1="88.2969" y2="595.4219"/><line style="stroke:#A80036;stroke-width:1.0;stroke-dasharray:5.0,5.0;" x1="269" x2="269" y1="88.2969" y2="595.4219"/><line style="stroke:#A80036;stroke-width:1.0;stroke-dasharray:5.0,5.0;" x1="478" x2="478" y1="88.2969" y2="595.4219"/><line style="stroke:#A80036;stroke-width:1.0;stroke-dasharray:5.0,5.0;" x1="644" x2="644" y1="88.2969" y2="595.4219"/><text fill="#000000" font-family="sans-serif" font-size="14" lengthAdjust="spacing" textLength="48" x="30" y="84.9951">Nutzer</text><ellipse cx="57" cy="15" fill="#FEFECE" filter="url(#f1dzzbhrzdhmuq)" rx="8" ry="8" style="stroke:#A80036;stroke-width:2.0;"/><path d="M57,23 L57,50 M44,31 L70,31 M57,50 L44,65 M57,50 L70,65 " fill="none" filter="url(#f1dzzbhrzdhmuq)" style="stroke:#A80036;stroke-width:2.0;"/><text fill="#000000" font-family="sans-serif" font-size="14" lengthAdjust="spacing" textLength="48" x="30" y="607.417">Nutzer</text><ellipse cx="57" cy="620.7188" fill="#FEFECE" filter="url(#f1dzzbhrzdhmuq)" rx="8" ry="8" style="stroke:#A80036;stroke-width:2.0;"/><path d="M57,628.7188 L57,655.7188 M44,636.7188 L70,636.7188 M57,655.7188 L44,670.7188 M57,655.7188 L70,670.7188 " fill="none" filter="url(#f1dzzbhrzdhmuq)" style="stroke:#A80036;stroke-width:2.0;"/><text fill="#000000" font-family="sans-serif" font-size="14" lengthAdjust="spacing" textLength="68" x="232" y="84.9951">Webshop</text><ellipse cx="269" cy="56" fill="#FEFECE" filter="url(#f1dzzbhrzdhmuq)" rx="12" ry="12" style="stroke:#A80036;stroke-width:2.0;"/><polygon fill="#A80036" points="265,44,271,39,269,44,271,49,265,44" style="stroke:#A80036;stroke-width:1.0;"/><text fill="#000000" font-family="sans-serif" font-size="14" lengthAdjust="spacing" textLength="68" x="232" y="607.417">Webshop</text><ellipse cx="269" cy="626.7188" fill="#FEFECE" filter="url(#f1dzzbhrzdhmuq)" rx="12" ry="12" style="stroke:#A80036;stroke-width:2.0;"/><polygon fill="#A80036" points="265,614.7188,271,609.7188,269,614.7188,271,619.7188,265,614.7188" style="stroke:#A80036;stroke-width:1.0;"/><text fill="#000000" font-family="sans-serif" font-size="14" lengthAdjust="spacing" textLength="146" x="402" y="84.9951">Webshopdatenbank</text><path d="M460,36 C460,26 478,26 478,26 C478,26 496,26 496,36 L496,62 C496,72 478,72 478,72 C478,72 460,72 460,62 L460,36 " fill="#FEFECE" filter="url(#f1dzzbhrzdhmuq)" style="stroke:#000000;stroke-width:1.5;"/><path d="M460,36 C460,46 478,46 478,46 C478,46 496,46 496,36 " fill="none" style="stroke:#000000;stroke-width:1.5;"/><text fill="#000000" font-family="sans-serif" font-size="14" lengthAdjust="spacing" textLength="146" x="402" y="607.417">Webshopdatenbank</text><path d="M460,620.7188 C460,610.7188 478,610.7188 478,610.7188 C478,610.7188 496,610.7188 496,620.7188 L496,646.7188 C496,656.7188 478,656.7188 478,656.7188 C478,656.7188 460,656.7188 460,646.7188 L460,620.7188 " fill="#FEFECE" filter="url(#f1dzzbhrzdhmuq)" style="stroke:#000000;stroke-width:1.5;"/><path d="M460,620.7188 C460,630.7188 478,630.7188 478,630.7188 C478,630.7188 496,630.7188 496,620.7188 " fill="none" style="stroke:#000000;stroke-width:1.5;"/><text fill="#000000" font-family="sans-serif" font-size="14" lengthAdjust="spacing" textLength="155" x="564" y="84.9951">Zahlungsdienstleister</text><path d="M626.5,36 C626.5,26 644.5,26 644.5,26 C644.5,26 662.5,26 662.5,36 L662.5,62 C662.5,72 644.5,72 644.5,72 C644.5,72 626.5,72 626.5,62 L626.5,36 " fill="#FEFECE" filter="url(#f1dzzbhrzdhmuq)" style="stroke:#000000;stroke-width:1.5;"/><path d="M626.5,36 C626.5,46 644.5,46 644.5,46 C644.5,46 662.5,46 662.5,36 " fill="none" style="stroke:#000000;stroke-width:1.5;"/><text fill="#000000" font-family="sans-serif" font-size="14" lengthAdjust="spacing" textLength="155" x="564" y="607.417">Zahlungsdienstleister</text><path d="M626.5,620.7188 C626.5,610.7188 644.5,610.7188 644.5,610.7188 C644.5,610.7188 662.5,610.7188 662.5,620.7188 L662.5,646.7188 C662.5,656.7188 644.5,656.7188 644.5,656.7188 C644.5,656.7188 626.5,656.7188 626.5,646.7188 L626.5,620.7188 " fill="#FEFECE" filter="url(#f1dzzbhrzdhmuq)" style="stroke:#000000;stroke-width:1.5;"/><path d="M626.5,620.7188 C626.5,630.7188 644.5,630.7188 644.5,630.7188 C644.5,630.7188 662.5,630.7188 662.5,620.7188 " fill="none" style="stroke:#000000;stroke-width:1.5;"/><rect fill="#FFFFFF" filter="url(#f1dzzbhrzdhmuq)" height="488.125" style="stroke:#A80036;stroke-width:1.0;" width="10" x="52" y="98.2969"/><rect fill="#FFFFFF" filter="url(#f1dzzbhrzdhmuq)" height="70.2656" style="stroke:#A80036;stroke-width:1.0;" width="10" x="264" y="119.4297"/><rect fill="#FFFFFF" filter="url(#f1dzzbhrzdhmuq)" height="258.0625" style="stroke:#A80036;stroke-width:1.0;" width="10" x="264" y="302.2266"/><rect fill="#FFFFFF" filter="url(#f1dzzbhrzdhmuq)" height="12" style="stroke:#A80036;stroke-width:1.0;" width="10" x="473" y="148.5625"/><rect fill="#FFFFFF" filter="url(#f1dzzbhrzdhmuq)" height="12" style="stroke:#A80036;stroke-width:1.0;" width="10" x="473" y="519.1563"/><rect fill="#FFFFFF" filter="url(#f1dzzbhrzdhmuq)" height="98.3984" style="stroke:#A80036;stroke-width:1.0;" width="10" x="639.5" y="331.3594"/><polygon fill="#A80036" points="252,115.4297,262,119.4297,252,123.4297,256,119.4297" style="stroke:#A80036;stroke-width:1.0;"/><line style="stroke:#A80036;stroke-width:1.0;" x1="62" x2="258" y1="119.4297" y2="119.4297"/><text fill="#000000" font-family="sans-serif" font-size="13" font-weight="bold" lengthAdjust="spacing" textLength="9" x="69" y="114.3638">1</text><text fill="#000000" font-family="sans-serif" font-size="13" lengthAdjust="spacing" textLength="170" x="82" y="114.3638">Zahlungsdaten bearbeiten</text><polygon fill="#A80036" points="461,144.5625,471,148.5625,461,152.5625,465,148.5625" style="stroke:#A80036;stroke-width:1.0;"/><line style="stroke:#A80036;stroke-width:1.0;" x1="274" x2="467" y1="148.5625" y2="148.5625"/><text fill="#000000" font-family="sans-serif" font-size="13" font-weight="bold" lengthAdjust="spacing" textLength="9" x="281" y="143.4966">2</text><text fill="#000000" font-family="sans-serif" font-size="13" lengthAdjust="spacing" textLength="151" x="294" y="143.4966">Zahlungsdaten abrufen</text><polygon fill="#A80036" points="285,156.5625,275,160.5625,285,164.5625,281,160.5625" style="stroke:#A80036;stroke-width:1.0;"/><line style="stroke:#A80036;stroke-width:1.0;stroke-dasharray:2.0,2.0;" x1="279" x2="477" y1="160.5625" y2="160.5625"/><text fill="#000000" font-family="sans-serif" font-size="13" font-weight="bold" lengthAdjust="spacing" textLength="8" x="291" y="173.6294">3</text><text fill="#000000" font-family="sans-serif" font-size="13" lengthAdjust="spacing" textLength="97" x="303" y="173.6294">Zahlungsdaten</text><polygon fill="#A80036" points="73,185.6953,63,189.6953,73,193.6953,69,189.6953" style="stroke:#A80036;stroke-width:1.0;"/><line style="stroke:#A80036;stroke-width:1.0;stroke-dasharray:2.0,2.0;" x1="67" x2="268" y1="189.6953" y2="189.6953"/><text fill="#000000" font-family="sans-serif" font-size="13" font-weight="bold" lengthAdjust="spacing" textLength="9" x="79" y="202.7622">4</text><text fill="#000000" font-family="sans-serif" font-size="13" lengthAdjust="spacing" textLength="97" x="92" y="202.7622">Zahlungsdaten</text><path d="M10,221.8281 L88,221.8281 L88,228.8281 L78,238.8281 L10,238.8281 L10,221.8281 " fill="#EEEEEE" style="stroke:#000000;stroke-width:1.0;"/><rect fill="none" height="269.1953" style="stroke:#000000;stroke-width:2.0;" width="745" x="10" y="221.8281"/><text fill="#000000" font-family="sans-serif" font-size="13" font-weight="bold" lengthAdjust="spacing" textLength="33" x="25" y="234.895">loop</text><text fill="#000000" font-family="sans-serif" font-size="11" font-weight="bold" lengthAdjust="spacing" textLength="208" x="103" y="234.0386">[Verification nicht erfolgreich]</text><line style="stroke:#A80036;stroke-width:1.0;" x1="62" x2="104" y1="260.0938" y2="260.0938"/><line style="stroke:#A80036;stroke-width:1.0;" x1="104" x2="104" y1="260.0938" y2="273.0938"/><line style="stroke:#A80036;stroke-width:1.0;" x1="63" x2="104" y1="273.0938" y2="273.0938"/><polygon fill="#A80036" points="73,269.0938,63,273.0938,73,277.0938,69,273.0938" style="stroke:#A80036;stroke-width:1.0;"/><text fill="#000000" font-family="sans-serif" font-size="13" font-weight="bold" lengthAdjust="spacing" textLength="9" x="69" y="255.0278">5</text><text fill="#000000" font-family="sans-serif" font-size="13" lengthAdjust="spacing" textLength="141" x="82" y="255.0278">Änderung vornehmen</text><polygon fill="#A80036" points="252,298.2266,262,302.2266,252,306.2266,256,302.2266" style="stroke:#A80036;stroke-width:1.0;"/><line style="stroke:#A80036;stroke-width:1.0;" x1="62" x2="258" y1="302.2266" y2="302.2266"/><text fill="#000000" font-family="sans-serif" font-size="13" font-weight="bold" lengthAdjust="spacing" textLength="9" x="69" y="297.1606">6</text><text fill="#000000" font-family="sans-serif" font-size="13" lengthAdjust="spacing" textLength="141" x="82" y="297.1606">Änderung übermitteln</text><polygon fill="#A80036" points="627.5,327.3594,637.5,331.3594,627.5,335.3594,631.5,331.3594" style="stroke:#A80036;stroke-width:1.0;"/><line style="stroke:#A80036;stroke-width:1.0;" x1="274" x2="633.5" y1="331.3594" y2="331.3594"/><text fill="#000000" font-family="sans-serif" font-size="13" font-weight="bold" lengthAdjust="spacing" textLength="9" x="281" y="326.2935">7</text><text fill="#000000" font-family="sans-serif" font-size="13" lengthAdjust="spacing" textLength="138" x="294" y="326.2935">Änderung überprüfen</text><path d="M20,346.3594 L86,346.3594 L86,353.3594 L76,363.3594 L20,363.3594 L20,346.3594 " fill="#EEEEEE" style="stroke:#000000;stroke-width:1.0;"/><rect fill="none" height="137.6641" style="stroke:#000000;stroke-width:2.0;" width="725" x="20" y="346.3594"/><text fill="#000000" font-family="sans-serif" font-size="13" font-weight="bold" lengthAdjust="spacing" textLength="21" x="35" y="359.4263">alt</text><path d="M222,370.4922 L310,370.4922 L310,377.4922 L300,387.4922 L222,387.4922 L222,370.4922 " fill="#EEEEEE" style="stroke:#000000;stroke-width:1.0;"/><rect fill="none" height="46.2656" style="stroke:#000000;stroke-width:2.0;" width="513" x="222" y="370.4922"/><text fill="#000000" font-family="sans-serif" font-size="13" font-weight="bold" lengthAdjust="spacing" textLength="43" x="237" y="383.5591">break</text><polygon fill="#A80036" points="285,387.625,275,391.625,285,395.625,281,391.625" style="stroke:#A80036;stroke-width:1.0;"/><line style="stroke:#A80036;stroke-width:1.0;stroke-dasharray:2.0,2.0;" x1="279" x2="638.5" y1="391.625" y2="391.625"/><text fill="#000000" font-family="sans-serif" font-size="13" lengthAdjust="spacing" textLength="29" x="291" y="404.6919">True</text><line style="stroke:#000000;stroke-width:1.0;stroke-dasharray:2.0,2.0;" x1="20" x2="745" y1="424.7578" y2="424.7578"/><polygon fill="#A80036" points="285,425.7578,275,429.7578,285,433.7578,281,429.7578" style="stroke:#A80036;stroke-width:1.0;"/><line style="stroke:#A80036;stroke-width:1.0;stroke-dasharray:2.0,2.0;" x1="279" x2="643.5" y1="429.7578" y2="429.7578"/><text fill="#000000" font-family="sans-serif" font-size="13" lengthAdjust="spacing" textLength="33" x="291" y="442.8247">False</text><polygon fill="#A80036" points="73,454.8906,63,458.8906,73,462.8906,69,458.8906" style="stroke:#A80036;stroke-width:1.0;"/><line style="stroke:#A80036;stroke-width:1.0;stroke-dasharray:2.0,2.0;" x1="67" x2="263" y1="458.8906" y2="458.8906"/><text fill="#000000" font-family="sans-serif" font-size="13" lengthAdjust="spacing" textLength="101" x="79" y="471.9575">falsche Eingabe</text><polygon fill="#A80036" points="461,515.1563,471,519.1563,461,523.1563,465,519.1563" style="stroke:#A80036;stroke-width:1.0;"/><line style="stroke:#A80036;stroke-width:1.0;" x1="274" x2="467" y1="519.1563" y2="519.1563"/><text fill="#000000" font-family="sans-serif" font-size="13" font-weight="bold" lengthAdjust="spacing" textLength="9" x="281" y="514.0903">8</text><text fill="#000000" font-family="sans-serif" font-size="13" lengthAdjust="spacing" textLength="147" x="294" y="514.0903">Update Zahlungsdaten</text><polygon fill="#A80036" points="285,527.1563,275,531.1563,285,535.1563,281,531.1563" style="stroke:#A80036;stroke-width:1.0;"/><line style="stroke:#A80036;stroke-width:1.0;stroke-dasharray:2.0,2.0;" x1="279" x2="477" y1="531.1563" y2="531.1563"/><text fill="#000000" font-family="sans-serif" font-size="13" font-weight="bold" lengthAdjust="spacing" textLength="9" x="291" y="544.2231">9</text><text fill="#000000" font-family="sans-serif" font-size="13" lengthAdjust="spacing" textLength="162" x="304" y="544.2231">Änderung vorgenommen</text><polygon fill="#A80036" points="73,556.2891,63,560.2891,73,564.2891,69,560.2891" style="stroke:#A80036;stroke-width:1.0;"/><line style="stroke:#A80036;stroke-width:1.0;stroke-dasharray:2.0,2.0;" x1="67" x2="268" y1="560.2891" y2="560.2891"/><text fill="#000000" font-family="sans-serif" font-size="13" font-weight="bold" lengthAdjust="spacing" textLength="19" x="79" y="573.356">10</text><text fill="#000000" font-family="sans-serif" font-size="13" lengthAdjust="spacing" textLength="76" x="102" y="573.356">Bestätigung</text><!--MD5=[3fd92210b8222f1c3b410db884dda90b]
@startuml
actor Nutzer
    control Webshop
    database Webshopdatenbank
    database Zahlungsdienstleister

    skinparam responseMessageBelowArrow true
    autonumber
    activate Nutzer
    Nutzer -> Webshop : Zahlungsdaten bearbeiten
    activate Webshop
    Webshop -> Webshopdatenbank : Zahlungsdaten abrufen
    activate Webshopdatenbank
    Webshopdatenbank - -> Webshop : Zahlungsdaten
    deactivate Webshopdatenbank
    Webshop - -> Nutzer : Zahlungsdaten
    deactivate Webshop
    loop Verification nicht erfolgreich
        Nutzer -> Nutzer : Änderung vornehmen
        Nutzer -> Webshop : Änderung übermitteln
        activate Webshop
        Webshop -> Zahlungsdienstleister : Änderung überprüfen
        activate Zahlungsdienstleister
        autonumber stop
        alt  
            break
                Zahlungsdienstleister - -> Webshop : True
                
            end
        else
            Zahlungsdienstleister - -> Webshop : False
            deactivate Zahlungsdienstleister
            Webshop - -> Nutzer : falsche Eingabe
        end
    end
    autonumber resume
    Webshop -> Webshopdatenbank : Update Zahlungsdaten
    activate Webshopdatenbank
    Webshopdatenbank - -> Webshop : Änderung vorgenommen
    deactivate Webshopdatenbank
    Webshop - -> Nutzer : Bestätigung

    deactivate Webshop
@enduml

PlantUML version 1.2021.15beta6(Unknown compile time)
(GPL source distribution)
Java Runtime: Java(TM) SE Runtime Environment
JVM: Java HotSpot(TM) 64-Bit Server VM
Default Encoding: UTF-8
Language: en
Country: US
--></g></svg>